<svg width="411" height="204" viewBox="0 0 411 204" fill="none" xmlns="http://www.w3.org/2000/svg">
<path d="M10.2747 2.9429C11.0473 1.62493 12.9527 1.62493 13.7253 2.9429L15.4512 5.88664C15.7332 6.36761 16.2031 6.70904 16.7477 6.8286L20.0807 7.5603C21.5729 7.8879 22.1617 9.69996 21.147 10.8421L18.8806 13.3931C18.5103 13.8099 18.3308 14.3624 18.3854 14.9173L18.7195 18.3132C18.869 19.8337 17.3276 20.9536 15.9278 20.3415L12.8013 18.9744C12.2904 18.751 11.7096 18.751 11.1987 18.9744L8.0722 20.3415C6.6724 20.9536 5.13097 19.8337 5.28054 18.3132L5.61459 14.9173C5.66917 14.3624 5.48967 13.8099 5.11938 13.3931L2.85302 10.8421C1.83834 9.69995 2.42711 7.8879 3.91935 7.5603L7.25233 6.8286C7.79689 6.70904 8.26683 6.36761 8.54881 5.88664L10.2747 2.9429Z" fill="#FFCE22"/>
<path d="M53.0967 12.582V14.5332C53.0967 15.582 53.0029 16.4668 52.8154 17.1875C52.6279 17.9082 52.3584 18.4883 52.0068 18.9277C51.6553 19.3672 51.2305 19.6865 50.7324 19.8857C50.2402 20.0791 49.6836 20.1758 49.0625 20.1758C48.5703 20.1758 48.1162 20.1143 47.7002 19.9912C47.2842 19.8682 46.9092 19.6719 46.5752 19.4023C46.2471 19.127 45.9658 18.7695 45.7314 18.3301C45.4971 17.8906 45.3184 17.3574 45.1953 16.7305C45.0723 16.1035 45.0107 15.3711 45.0107 14.5332V12.582C45.0107 11.5332 45.1045 10.6543 45.292 9.94531C45.4854 9.23633 45.7578 8.66797 46.1094 8.24023C46.4609 7.80664 46.8828 7.49609 47.375 7.30859C47.873 7.12109 48.4297 7.02734 49.0449 7.02734C49.543 7.02734 50 7.08887 50.416 7.21191C50.8379 7.3291 51.2129 7.51953 51.541 7.7832C51.8691 8.04102 52.1475 8.38672 52.376 8.82031C52.6104 9.24805 52.7891 9.77246 52.9121 10.3936C53.0352 11.0146 53.0967 11.7441 53.0967 12.582ZM51.4619 14.7969V12.3096C51.4619 11.7354 51.4268 11.2314 51.3564 10.7979C51.292 10.3584 51.1953 9.9834 51.0664 9.67285C50.9375 9.3623 50.7734 9.11035 50.5742 8.91699C50.3809 8.72363 50.1553 8.58301 49.8975 8.49512C49.6455 8.40137 49.3613 8.35449 49.0449 8.35449C48.6582 8.35449 48.3154 8.42773 48.0166 8.57422C47.7178 8.71484 47.4658 8.94043 47.2607 9.25098C47.0615 9.56152 46.9092 9.96875 46.8037 10.4727C46.6982 10.9766 46.6455 11.5889 46.6455 12.3096V14.7969C46.6455 15.3711 46.6777 15.8779 46.7422 16.3174C46.8125 16.7568 46.915 17.1377 47.0498 17.46C47.1846 17.7764 47.3486 18.0371 47.542 18.2422C47.7354 18.4473 47.958 18.5996 48.21 18.6992C48.4678 18.793 48.752 18.8398 49.0625 18.8398C49.4609 18.8398 49.8096 18.7637 50.1084 18.6113C50.4072 18.459 50.6562 18.2217 50.8555 17.8994C51.0605 17.5713 51.2129 17.1523 51.3125 16.6426C51.4121 16.127 51.4619 15.5117 51.4619 14.7969ZM57.2451 13.9092L55.9443 13.5752L56.5859 7.20312H63.1514V8.70605H57.9658L57.5791 12.1865C57.8135 12.0518 58.1094 11.9258 58.4668 11.8086C58.8301 11.6914 59.2461 11.6328 59.7148 11.6328C60.3066 11.6328 60.8369 11.7354 61.3057 11.9404C61.7744 12.1396 62.1729 12.4268 62.501 12.8018C62.835 13.1768 63.0898 13.6279 63.2656 14.1553C63.4414 14.6826 63.5293 15.2715 63.5293 15.9219C63.5293 16.5371 63.4443 17.1025 63.2744 17.6182C63.1104 18.1338 62.8613 18.585 62.5273 18.9717C62.1934 19.3525 61.7715 19.6484 61.2617 19.8594C60.7578 20.0703 60.1631 20.1758 59.4775 20.1758C58.9619 20.1758 58.4727 20.1055 58.0098 19.9648C57.5527 19.8184 57.1426 19.5986 56.7793 19.3057C56.4219 19.0068 56.1289 18.6377 55.9004 18.1982C55.6777 17.7529 55.5371 17.2314 55.4785 16.6338H57.0254C57.0957 17.1143 57.2363 17.5186 57.4473 17.8467C57.6582 18.1748 57.9336 18.4238 58.2734 18.5938C58.6191 18.7578 59.0205 18.8398 59.4775 18.8398C59.8643 18.8398 60.207 18.7725 60.5059 18.6377C60.8047 18.5029 61.0566 18.3096 61.2617 18.0576C61.4668 17.8057 61.6221 17.501 61.7275 17.1436C61.8389 16.7861 61.8945 16.3848 61.8945 15.9395C61.8945 15.5352 61.8389 15.1602 61.7275 14.8145C61.6162 14.4688 61.4492 14.167 61.2266 13.9092C61.0098 13.6514 60.7432 13.4521 60.4268 13.3115C60.1104 13.165 59.7471 13.0918 59.3369 13.0918C58.792 13.0918 58.3789 13.165 58.0977 13.3115C57.8223 13.458 57.5381 13.6572 57.2451 13.9092Z" fill="#81807E"/>
<rect x="85.5" y="0.5" width="325" height="27" rx="13.5" fill="#1A1A1A"/>
<rect x="85.5" y="0.5" width="325" height="27" rx="13.5" stroke="#262626"/>
<rect x="95" y="10" width="284" height="8" rx="4" fill="#AE9B84"/>
<path d="M10.2747 46.9429C11.0473 45.6249 12.9527 45.6249 13.7253 46.9429L15.4512 49.8866C15.7332 50.3676 16.2031 50.709 16.7477 50.8286L20.0807 51.5603C21.5729 51.8879 22.1617 53.7 21.147 54.8421L18.8806 57.3931C18.5103 57.8099 18.3308 58.3624 18.3854 58.9173L18.7195 62.3132C18.869 63.8337 17.3276 64.9536 15.9278 64.3415L12.8013 62.9744C12.2904 62.751 11.7096 62.751 11.1987 62.9744L8.0722 64.3415C6.6724 64.9536 5.13097 63.8337 5.28054 62.3132L5.61459 58.9173C5.66917 58.3624 5.48967 57.8099 5.11938 57.3931L2.85302 54.8421C1.83834 53.7 2.42711 51.8879 3.91935 51.5603L7.25233 50.8286C7.79689 50.709 8.26683 50.3676 8.54881 49.8866L10.2747 46.9429Z" fill="#FFCE22"/>
<path d="M53.0967 56.582V58.5332C53.0967 59.582 53.0029 60.4668 52.8154 61.1875C52.6279 61.9082 52.3584 62.4883 52.0068 62.9277C51.6553 63.3672 51.2305 63.6865 50.7324 63.8857C50.2402 64.0791 49.6836 64.1758 49.0625 64.1758C48.5703 64.1758 48.1162 64.1143 47.7002 63.9912C47.2842 63.8682 46.9092 63.6719 46.5752 63.4023C46.2471 63.127 45.9658 62.7695 45.7314 62.3301C45.4971 61.8906 45.3184 61.3574 45.1953 60.7305C45.0723 60.1035 45.0107 59.3711 45.0107 58.5332V56.582C45.0107 55.5332 45.1045 54.6543 45.292 53.9453C45.4854 53.2363 45.7578 52.668 46.1094 52.2402C46.4609 51.8066 46.8828 51.4961 47.375 51.3086C47.873 51.1211 48.4297 51.0273 49.0449 51.0273C49.543 51.0273 50 51.0889 50.416 51.2119C50.8379 51.3291 51.2129 51.5195 51.541 51.7832C51.8691 52.041 52.1475 52.3867 52.376 52.8203C52.6104 53.248 52.7891 53.7725 52.9121 54.3936C53.0352 55.0146 53.0967 55.7441 53.0967 56.582ZM51.4619 58.7969V56.3096C51.4619 55.7354 51.4268 55.2314 51.3564 54.7979C51.292 54.3584 51.1953 53.9834 51.0664 53.6729C50.9375 53.3623 50.7734 53.1104 50.5742 52.917C50.3809 52.7236 50.1553 52.583 49.8975 52.4951C49.6455 52.4014 49.3613 52.3545 49.0449 52.3545C48.6582 52.3545 48.3154 52.4277 48.0166 52.5742C47.7178 52.7148 47.4658 52.9404 47.2607 53.251C47.0615 53.5615 46.9092 53.9688 46.8037 54.4727C46.6982 54.9766 46.6455 55.5889 46.6455 56.3096V58.7969C46.6455 59.3711 46.6777 59.8779 46.7422 60.3174C46.8125 60.7568 46.915 61.1377 47.0498 61.46C47.1846 61.7764 47.3486 62.0371 47.542 62.2422C47.7354 62.4473 47.958 62.5996 48.21 62.6992C48.4678 62.793 48.752 62.8398 49.0625 62.8398C49.4609 62.8398 49.8096 62.7637 50.1084 62.6113C50.4072 62.459 50.6562 62.2217 50.8555 61.8994C51.0605 61.5713 51.2129 61.1523 51.3125 60.6426C51.4121 60.127 51.4619 59.5117 51.4619 58.7969ZM63.8369 59.6934V61.0293H54.5908V60.0713L60.3213 51.2031H61.6484L60.2246 53.7695L56.4365 59.6934H63.8369ZM62.0527 51.2031V64H60.4268V51.2031H62.0527Z" fill="#81807E"/>
<rect x="85.5" y="44.5" width="325" height="27" rx="13.5" fill="#1A1A1A"/>
<rect x="85.5" y="44.5" width="325" height="27" rx="13.5" stroke="#262626"/>
<rect x="95" y="54" width="234" height="8" rx="4" fill="#AE9B84"/>
<path d="M10.2747 90.9429C11.0473 89.6249 12.9527 89.6249 13.7253 90.9429L15.4512 93.8866C15.7332 94.3676 16.2031 94.709 16.7477 94.8286L20.0807 95.5603C21.5729 95.8879 22.1617 97.7 21.147 98.8421L18.8806 101.393C18.5103 101.81 18.3308 102.362 18.3854 102.917L18.7195 106.313C18.869 107.834 17.3276 108.954 15.9278 108.341L12.8013 106.974C12.2904 106.751 11.7096 106.751 11.1987 106.974L8.0722 108.341C6.6724 108.954 5.13097 107.834 5.28054 106.313L5.61459 102.917C5.66917 102.362 5.48967 101.81 5.11938 101.393L2.85302 98.8421C1.83834 97.7 2.42711 95.8879 3.91935 95.5603L7.25233 94.8286C7.79689 94.709 8.26683 94.3676 8.54881 93.8866L10.2747 90.9429Z" fill="#FFCE22"/>
<path d="M53.0967 100.582V102.533C53.0967 103.582 53.0029 104.467 52.8154 105.188C52.6279 105.908 52.3584 106.488 52.0068 106.928C51.6553 107.367 51.2305 107.687 50.7324 107.886C50.2402 108.079 49.6836 108.176 49.0625 108.176C48.5703 108.176 48.1162 108.114 47.7002 107.991C47.2842 107.868 46.9092 107.672 46.5752 107.402C46.2471 107.127 45.9658 106.77 45.7314 106.33C45.4971 105.891 45.3184 105.357 45.1953 104.73C45.0723 104.104 45.0107 103.371 45.0107 102.533V100.582C45.0107 99.5332 45.1045 98.6543 45.292 97.9453C45.4854 97.2363 45.7578 96.668 46.1094 96.2402C46.4609 95.8066 46.8828 95.4961 47.375 95.3086C47.873 95.1211 48.4297 95.0273 49.0449 95.0273C49.543 95.0273 50 95.0889 50.416 95.2119C50.8379 95.3291 51.2129 95.5195 51.541 95.7832C51.8691 96.041 52.1475 96.3867 52.376 96.8203C52.6104 97.248 52.7891 97.7725 52.9121 98.3936C53.0352 99.0146 53.0967 99.7441 53.0967 100.582ZM51.4619 102.797V100.31C51.4619 99.7354 51.4268 99.2314 51.3564 98.7979C51.292 98.3584 51.1953 97.9834 51.0664 97.6729C50.9375 97.3623 50.7734 97.1104 50.5742 96.917C50.3809 96.7236 50.1553 96.583 49.8975 96.4951C49.6455 96.4014 49.3613 96.3545 49.0449 96.3545C48.6582 96.3545 48.3154 96.4277 48.0166 96.5742C47.7178 96.7148 47.4658 96.9404 47.2607 97.251C47.0615 97.5615 46.9092 97.9688 46.8037 98.4727C46.6982 98.9766 46.6455 99.5889 46.6455 100.31V102.797C46.6455 103.371 46.6777 103.878 46.7422 104.317C46.8125 104.757 46.915 105.138 47.0498 105.46C47.1846 105.776 47.3486 106.037 47.542 106.242C47.7354 106.447 47.958 106.6 48.21 106.699C48.4678 106.793 48.752 106.84 49.0625 106.84C49.4609 106.84 49.8096 106.764 50.1084 106.611C50.4072 106.459 50.6562 106.222 50.8555 105.899C51.0605 105.571 51.2129 105.152 51.3125 104.643C51.4121 104.127 51.4619 103.512 51.4619 102.797ZM57.5615 100.802H58.7217C59.29 100.802 59.7588 100.708 60.1279 100.521C60.5029 100.327 60.7812 100.066 60.9629 99.7383C61.1504 99.4043 61.2441 99.0293 61.2441 98.6133C61.2441 98.1211 61.1621 97.708 60.998 97.374C60.834 97.04 60.5879 96.7881 60.2598 96.6182C59.9316 96.4482 59.5156 96.3633 59.0117 96.3633C58.5547 96.3633 58.1504 96.4541 57.7988 96.6357C57.4531 96.8115 57.1807 97.0635 56.9814 97.3916C56.7881 97.7197 56.6914 98.1064 56.6914 98.5518H55.0654C55.0654 97.9014 55.2295 97.3096 55.5576 96.7764C55.8857 96.2432 56.3457 95.8184 56.9375 95.502C57.5352 95.1855 58.2266 95.0273 59.0117 95.0273C59.7852 95.0273 60.4619 95.165 61.042 95.4404C61.6221 95.71 62.0732 96.1143 62.3955 96.6533C62.7178 97.1865 62.8789 97.8516 62.8789 98.6484C62.8789 98.9707 62.8027 99.3164 62.6504 99.6855C62.5039 100.049 62.2725 100.389 61.9561 100.705C61.6455 101.021 61.2412 101.282 60.7432 101.487C60.2451 101.687 59.6475 101.786 58.9502 101.786H57.5615V100.802ZM57.5615 102.138V101.162H58.9502C59.7646 101.162 60.4385 101.259 60.9717 101.452C61.5049 101.646 61.9238 101.903 62.2285 102.226C62.5391 102.548 62.7559 102.902 62.8789 103.289C63.0078 103.67 63.0723 104.051 63.0723 104.432C63.0723 105.029 62.9697 105.56 62.7646 106.022C62.5654 106.485 62.2812 106.878 61.9121 107.2C61.5488 107.522 61.1211 107.766 60.6289 107.93C60.1367 108.094 59.6006 108.176 59.0205 108.176C58.4639 108.176 57.9395 108.097 57.4473 107.938C56.9609 107.78 56.5303 107.552 56.1553 107.253C55.7803 106.948 55.4873 106.576 55.2764 106.137C55.0654 105.691 54.96 105.185 54.96 104.616H56.5859C56.5859 105.062 56.6826 105.451 56.876 105.785C57.0752 106.119 57.3564 106.38 57.7197 106.567C58.0889 106.749 58.5225 106.84 59.0205 106.84C59.5186 106.84 59.9463 106.755 60.3037 106.585C60.667 106.409 60.9453 106.146 61.1387 105.794C61.3379 105.442 61.4375 105 61.4375 104.467C61.4375 103.934 61.3262 103.497 61.1035 103.157C60.8809 102.812 60.5645 102.557 60.1543 102.393C59.75 102.223 59.2725 102.138 58.7217 102.138H57.5615Z" fill="#81807E"/>
<rect x="85.5" y="88.5" width="325" height="27" rx="13.5" fill="#1A1A1A"/>
<rect x="85.5" y="88.5" width="325" height="27" rx="13.5" stroke="#262626"/>
<rect x="95" y="98" width="189" height="8" rx="4" fill="#AE9B84"/>
<path d="M10.2747 134.943C11.0473 133.625 12.9527 133.625 13.7253 134.943L15.4512 137.887C15.7332 138.368 16.2031 138.709 16.7477 138.829L20.0807 139.56C21.5729 139.888 22.1617 141.7 21.147 142.842L18.8806 145.393C18.5103 145.81 18.3308 146.362 18.3854 146.917L18.7195 150.313C18.869 151.834 17.3276 152.954 15.9278 152.341L12.8013 150.974C12.2904 150.751 11.7096 150.751 11.1987 150.974L8.0722 152.341C6.6724 152.954 5.13097 151.834 5.28054 150.313L5.61459 146.917C5.66917 146.362 5.48967 145.81 5.11938 145.393L2.85302 142.842C1.83834 141.7 2.42711 139.888 3.91935 139.56L7.25233 138.829C7.79689 138.709 8.26683 138.368 8.54881 137.887L10.2747 134.943Z" fill="#FFCE22"/>
<path d="M53.0967 144.582V146.533C53.0967 147.582 53.0029 148.467 52.8154 149.188C52.6279 149.908 52.3584 150.488 52.0068 150.928C51.6553 151.367 51.2305 151.687 50.7324 151.886C50.2402 152.079 49.6836 152.176 49.0625 152.176C48.5703 152.176 48.1162 152.114 47.7002 151.991C47.2842 151.868 46.9092 151.672 46.5752 151.402C46.2471 151.127 45.9658 150.77 45.7314 150.33C45.4971 149.891 45.3184 149.357 45.1953 148.73C45.0723 148.104 45.0107 147.371 45.0107 146.533V144.582C45.0107 143.533 45.1045 142.654 45.292 141.945C45.4854 141.236 45.7578 140.668 46.1094 140.24C46.4609 139.807 46.8828 139.496 47.375 139.309C47.873 139.121 48.4297 139.027 49.0449 139.027C49.543 139.027 50 139.089 50.416 139.212C50.8379 139.329 51.2129 139.52 51.541 139.783C51.8691 140.041 52.1475 140.387 52.376 140.82C52.6104 141.248 52.7891 141.772 52.9121 142.394C53.0352 143.015 53.0967 143.744 53.0967 144.582ZM51.4619 146.797V144.31C51.4619 143.735 51.4268 143.231 51.3564 142.798C51.292 142.358 51.1953 141.983 51.0664 141.673C50.9375 141.362 50.7734 141.11 50.5742 140.917C50.3809 140.724 50.1553 140.583 49.8975 140.495C49.6455 140.401 49.3613 140.354 49.0449 140.354C48.6582 140.354 48.3154 140.428 48.0166 140.574C47.7178 140.715 47.4658 140.94 47.2607 141.251C47.0615 141.562 46.9092 141.969 46.8037 142.473C46.6982 142.977 46.6455 143.589 46.6455 144.31V146.797C46.6455 147.371 46.6777 147.878 46.7422 148.317C46.8125 148.757 46.915 149.138 47.0498 149.46C47.1846 149.776 47.3486 150.037 47.542 150.242C47.7354 150.447 47.958 150.6 48.21 150.699C48.4678 150.793 48.752 150.84 49.0625 150.84C49.4609 150.84 49.8096 150.764 50.1084 150.611C50.4072 150.459 50.6562 150.222 50.8555 149.899C51.0605 149.571 51.2129 149.152 51.3125 148.643C51.4121 148.127 51.4619 147.512 51.4619 146.797ZM63.5732 150.664V152H55.1973V150.831L59.3896 146.164C59.9053 145.59 60.3037 145.104 60.585 144.705C60.8721 144.301 61.0713 143.94 61.1826 143.624C61.2998 143.302 61.3584 142.974 61.3584 142.64C61.3584 142.218 61.2705 141.837 61.0947 141.497C60.9248 141.151 60.6729 140.876 60.3389 140.671C60.0049 140.466 59.6006 140.363 59.126 140.363C58.5576 140.363 58.083 140.475 57.7021 140.697C57.3271 140.914 57.0459 141.219 56.8584 141.611C56.6709 142.004 56.5771 142.455 56.5771 142.965H54.9512C54.9512 142.244 55.1094 141.585 55.4258 140.987C55.7422 140.39 56.2109 139.915 56.832 139.563C57.4531 139.206 58.2178 139.027 59.126 139.027C59.9346 139.027 60.626 139.171 61.2002 139.458C61.7744 139.739 62.2139 140.138 62.5186 140.653C62.8291 141.163 62.9844 141.761 62.9844 142.446C62.9844 142.821 62.9199 143.202 62.791 143.589C62.668 143.97 62.4951 144.351 62.2725 144.731C62.0557 145.112 61.8008 145.487 61.5078 145.856C61.2207 146.226 60.9131 146.589 60.585 146.946L57.1572 150.664H63.5732Z" fill="#81807E"/>
<rect x="85.5" y="132.5" width="325" height="27" rx="13.5" fill="#1A1A1A"/>
<rect x="85.5" y="132.5" width="325" height="27" rx="13.5" stroke="#262626"/>
<rect x="95" y="142" width="143" height="8" rx="4" fill="#AE9B84"/>
<path d="M10.2747 178.943C11.0473 177.625 12.9527 177.625 13.7253 178.943L15.4512 181.887C15.7332 182.368 16.2031 182.709 16.7477 182.829L20.0807 183.56C21.5729 183.888 22.1617 185.7 21.147 186.842L18.8806 189.393C18.5103 189.81 18.3308 190.362 18.3854 190.917L18.7195 194.313C18.869 195.834 17.3276 196.954 15.9278 196.341L12.8013 194.974C12.2904 194.751 11.7096 194.751 11.1987 194.974L8.0722 196.341C6.6724 196.954 5.13097 195.834 5.28054 194.313L5.61459 190.917C5.66917 190.362 5.48967 189.81 5.11938 189.393L2.85302 186.842C1.83834 185.7 2.42711 183.888 3.91935 183.56L7.25233 182.829C7.79689 182.709 8.26683 182.368 8.54881 181.887L10.2747 178.943Z" fill="#FFCE22"/>
<path d="M53.0967 188.582V190.533C53.0967 191.582 53.0029 192.467 52.8154 193.188C52.6279 193.908 52.3584 194.488 52.0068 194.928C51.6553 195.367 51.2305 195.687 50.7324 195.886C50.2402 196.079 49.6836 196.176 49.0625 196.176C48.5703 196.176 48.1162 196.114 47.7002 195.991C47.2842 195.868 46.9092 195.672 46.5752 195.402C46.2471 195.127 45.9658 194.77 45.7314 194.33C45.4971 193.891 45.3184 193.357 45.1953 192.73C45.0723 192.104 45.0107 191.371 45.0107 190.533V188.582C45.0107 187.533 45.1045 186.654 45.292 185.945C45.4854 185.236 45.7578 184.668 46.1094 184.24C46.4609 183.807 46.8828 183.496 47.375 183.309C47.873 183.121 48.4297 183.027 49.0449 183.027C49.543 183.027 50 183.089 50.416 183.212C50.8379 183.329 51.2129 183.52 51.541 183.783C51.8691 184.041 52.1475 184.387 52.376 184.82C52.6104 185.248 52.7891 185.772 52.9121 186.394C53.0352 187.015 53.0967 187.744 53.0967 188.582ZM51.4619 190.797V188.31C51.4619 187.735 51.4268 187.231 51.3564 186.798C51.292 186.358 51.1953 185.983 51.0664 185.673C50.9375 185.362 50.7734 185.11 50.5742 184.917C50.3809 184.724 50.1553 184.583 49.8975 184.495C49.6455 184.401 49.3613 184.354 49.0449 184.354C48.6582 184.354 48.3154 184.428 48.0166 184.574C47.7178 184.715 47.4658 184.94 47.2607 185.251C47.0615 185.562 46.9092 185.969 46.8037 186.473C46.6982 186.977 46.6455 187.589 46.6455 188.31V190.797C46.6455 191.371 46.6777 191.878 46.7422 192.317C46.8125 192.757 46.915 193.138 47.0498 193.46C47.1846 193.776 47.3486 194.037 47.542 194.242C47.7354 194.447 47.958 194.6 48.21 194.699C48.4678 194.793 48.752 194.84 49.0625 194.84C49.4609 194.84 49.8096 194.764 50.1084 194.611C50.4072 194.459 50.6562 194.222 50.8555 193.899C51.0605 193.571 51.2129 193.152 51.3125 192.643C51.4121 192.127 51.4619 191.512 51.4619 190.797ZM60.5322 183.133V196H58.9062V185.163L55.6279 186.358V184.891L60.2773 183.133H60.5322Z" fill="#81807E"/>
<rect x="85.5" y="176.5" width="325" height="27" rx="13.5" fill="#1A1A1A"/>
<rect x="85.5" y="176.5" width="325" height="27" rx="13.5" stroke="#262626"/>
<rect x="95" y="186" width="92" height="8" rx="4" fill="#AE9B84"/>
</svg>
