<svg width="556" height="341" viewBox="0 0 556 341" fill="none" xmlns="http://www.w3.org/2000/svg">
<path fill-rule="evenodd" clip-rule="evenodd" d="M411.604 267.033C381.376 317.415 344.821 340.12 311.5 340.12C278.178 340.12 241.624 317.415 211.395 267.033C181.612 217.395 161.98 146.408 161.98 66C161.98 -14.4084 181.612 -85.3946 211.395 -135.032C241.624 -185.413 278.178 -208.12 311.5 -208.12C344.821 -208.12 381.376 -185.413 411.604 -135.032C441.386 -85.3946 461.02 -14.4084 461.02 66C461.02 146.408 441.386 217.395 411.604 267.033ZM623 66C623 -106.037 483.535 -245.5 311.5 -245.5C139.463 -245.5 0 -106.037 0 66C0 238.035 139.463 377.5 311.5 377.5C483.535 377.5 623 238.035 623 66ZM37.38 66C37.38 177.922 104.454 274.175 200.598 316.758C154.498 260.03 124.6 168.836 124.6 66C124.6 -36.8346 154.498 -128.031 200.598 -184.759C104.454 -142.175 37.38 -45.9207 37.38 66ZM585.62 66C585.62 177.922 518.545 274.175 422.403 316.758C468.502 260.03 498.4 168.836 498.4 66C498.4 -36.8346 468.502 -128.031 422.403 -184.759C518.545 -142.175 585.62 -45.9207 585.62 66ZM311.5 100.265C330.424 100.265 345.765 84.9236 345.765 66C345.765 47.076 330.424 31.735 311.5 31.735C292.576 31.735 277.235 47.076 277.235 66C277.235 84.9236 292.576 100.265 311.5 100.265Z" fill="#B8A893"/>
</svg>
