<svg width="154" height="151" viewBox="0 0 154 151" fill="none" xmlns="http://www.w3.org/2000/svg">
<path fill-rule="evenodd" clip-rule="evenodd" d="M13.5086 -1.99138C1.5 10.0172 1.5 29.3448 1.5 68C1.5 106.655 1.5 125.983 13.5086 137.991C25.5172 150 44.8448 150 83.5 150H124.5C163.155 150 182.483 150 194.491 137.991C206.5 125.983 206.5 106.655 206.5 68C206.5 29.3448 206.5 10.0172 194.491 -1.99138C182.483 -14 163.155 -14 124.5 -14H83.5C44.8448 -14 25.5172 -14 13.5086 -1.99138ZM171.406 22.0786C174.124 25.3402 173.683 30.1877 170.421 32.9057L147.907 51.6673C138.822 59.2386 131.459 65.3752 124.959 69.5552C118.189 73.9094 111.596 76.66 104 76.66C96.404 76.66 89.8107 73.9094 83.0406 69.5552C76.5414 65.3752 69.1778 59.2386 60.0926 51.6674L37.5786 32.9057C34.317 30.1877 33.8763 25.3402 36.5943 22.0786C39.3123 18.817 44.1598 18.3763 47.4214 21.0943L69.5501 39.5349C79.1129 47.5039 85.7522 53.0188 91.3575 56.6238C96.7834 60.1135 100.463 61.285 104 61.285C107.537 61.285 111.217 60.1135 116.643 56.6238C122.248 53.0188 128.887 47.5039 138.45 39.5349L160.579 21.0943C163.84 18.3763 168.688 18.817 171.406 22.0786Z" stroke="#262626" stroke-width="2" stroke-linecap="round" stroke-dasharray="16 6"/>
</svg>
