<svg width="24" height="25" viewBox="0 0 24 25" fill="none" xmlns="http://www.w3.org/2000/svg">
<path fill-rule="evenodd" clip-rule="evenodd" d="M7.50049 6.5V7.25H5.51336C4.55381 7.25 3.74911 7.97444 3.64866 8.92872L2.3855 20.9287C2.26897 22.0358 3.13701 23 4.2502 23H19.7509C20.8641 23 21.7322 22.0358 21.6156 20.9287L20.3525 8.92872C20.252 7.97444 19.4473 7.25 18.4878 7.25H16.5005V6.5C16.5005 4.01472 14.4858 2 12.0005 2C9.51521 2 7.50049 4.01472 7.50049 6.5ZM12.0005 3.5C10.3436 3.5 9.00049 4.84315 9.00049 6.5V7.25H15.0005V6.5C15.0005 4.84315 13.6573 3.5 12.0005 3.5ZM9.00049 11.75C9.00049 13.4069 10.3436 14.75 12.0005 14.75C13.6573 14.75 15.0005 13.4069 15.0005 11.75V11C15.0005 10.5858 15.3363 10.25 15.7505 10.25C16.1647 10.25 16.5005 10.5858 16.5005 11V11.75C16.5005 14.2353 14.4858 16.25 12.0005 16.25C9.51521 16.25 7.50049 14.2353 7.50049 11.75V11C7.50049 10.5858 7.83628 10.25 8.25049 10.25C8.6647 10.25 9.00049 10.5858 9.00049 11V11.75Z" fill="#0F0F0F"/>
</svg>
