<svg width="1920" height="160" viewBox="0 0 1920 160" fill="none" xmlns="http://www.w3.org/2000/svg">
<path d="M11.3564 68.6719V90H8.57324V68.6719H11.3564ZM18.2119 68.6719V70.9863H1.73242V68.6719H18.2119ZM28.0996 70.5615L21.0391 90H18.1533L26.2832 68.6719H28.1436L28.0996 70.5615ZM34.0176 90L26.9424 70.5615L26.8984 68.6719H28.7588L36.918 90H34.0176ZM33.6514 82.1045V84.4189H21.6689V82.1045H33.6514ZM56.1807 68.6719V90H53.3389L42.6016 73.5498V90H39.7744V68.6719H42.6016L53.3828 85.166V68.6719H56.1807ZM64.0176 68.6719V90H61.1904V68.6719H64.0176ZM76.8936 68.6719L68.0312 78.6182L63.0508 83.7891L62.582 80.7715L66.332 76.6406L73.4951 68.6719H76.8936ZM74.1689 90L66.2734 79.5996L67.958 77.3584L77.5381 90H74.1689ZM94.7646 68.6719V90H91.9814V68.6719H94.7646ZM101.62 68.6719V70.9863H85.1406V68.6719H101.62ZM120.795 78.6621V80.0098C120.795 81.6113 120.595 83.0469 120.194 84.3164C119.794 85.5859 119.218 86.665 118.466 87.5537C117.714 88.4424 116.811 89.1211 115.756 89.5898C114.711 90.0586 113.539 90.293 112.24 90.293C110.98 90.293 109.823 90.0586 108.769 89.5898C107.724 89.1211 106.815 88.4424 106.044 87.5537C105.282 86.665 104.691 85.5859 104.271 84.3164C103.852 83.0469 103.642 81.6113 103.642 80.0098V78.6621C103.642 77.0605 103.847 75.6299 104.257 74.3701C104.677 73.1006 105.268 72.0215 106.029 71.1328C106.791 70.2344 107.694 69.5508 108.739 69.082C109.794 68.6133 110.951 68.3789 112.211 68.3789C113.51 68.3789 114.682 68.6133 115.727 69.082C116.781 69.5508 117.685 70.2344 118.437 71.1328C119.198 72.0215 119.779 73.1006 120.18 74.3701C120.59 75.6299 120.795 77.0605 120.795 78.6621ZM117.997 80.0098V78.6328C117.997 77.3633 117.865 76.2402 117.602 75.2637C117.348 74.2871 116.972 73.4668 116.474 72.8027C115.976 72.1387 115.365 71.6357 114.643 71.2939C113.93 70.9521 113.119 70.7812 112.211 70.7812C111.332 70.7812 110.536 70.9521 109.823 71.2939C109.12 71.6357 108.515 72.1387 108.007 72.8027C107.509 73.4668 107.123 74.2871 106.85 75.2637C106.576 76.2402 106.439 77.3633 106.439 78.6328V80.0098C106.439 81.2891 106.576 82.4219 106.85 83.4082C107.123 84.3848 107.514 85.21 108.021 85.8838C108.539 86.5479 109.149 87.0508 109.853 87.3926C110.565 87.7344 111.361 87.9053 112.24 87.9053C113.158 87.9053 113.974 87.7344 114.687 87.3926C115.399 87.0508 116 86.5479 116.488 85.8838C116.986 85.21 117.362 84.3848 117.616 83.4082C117.87 82.4219 117.997 81.2891 117.997 80.0098ZM132.895 81.6357H127.196V79.3359H132.895C133.998 79.3359 134.892 79.1602 135.575 78.8086C136.259 78.457 136.757 77.9688 137.069 77.3438C137.392 76.7188 137.553 76.0059 137.553 75.2051C137.553 74.4727 137.392 73.7842 137.069 73.1396C136.757 72.4951 136.259 71.9775 135.575 71.5869C134.892 71.1865 133.998 70.9863 132.895 70.9863H127.855V90H125.028V68.6719H132.895C134.506 68.6719 135.868 68.9502 136.981 69.5068C138.095 70.0635 138.939 70.835 139.516 71.8213C140.092 72.7979 140.38 73.916 140.38 75.1758C140.38 76.543 140.092 77.71 139.516 78.6768C138.939 79.6436 138.095 80.3809 136.981 80.8887C135.868 81.3867 134.506 81.6357 132.895 81.6357Z" fill="#333333"/>
<g clip-path="url(#clip0_71_2674)">
<mask id="mask0_71_2674" style="mask-type:luminance" maskUnits="userSpaceOnUse" x="158" y="50" width="60" height="60">
<path d="M218 50H158V110H218V50Z" fill="white"/>
</mask>
<g mask="url(#mask0_71_2674)">
<path d="M188 50L188.799 72.3919L194.237 50.6556L190.364 72.7244L200.202 52.5936L191.825 73.3749L205.634 55.7295L193.119 74.3149L210.294 59.9261L194.189 75.5035L213.981 65L194.988 76.8885L216.532 70.7295L195.483 78.4095L217.836 76.8641L195.65 80L217.836 83.1359L195.483 81.5906L216.532 89.2706L194.988 83.1116L213.981 95L194.189 84.4967L210.294 100.074L193.119 85.685L205.634 104.271L191.825 86.6252L200.202 107.407L190.364 87.2756L194.237 109.345L188.799 87.608L188 110L187.2 87.608L181.763 109.345L185.636 87.2756L175.798 107.407L184.175 86.6252L170.366 104.271L182.881 85.685L165.706 100.074L181.811 84.4967L162.019 95L181.011 83.1116L159.468 89.2706L180.517 81.5906L158.164 83.1359L180.35 80L158.164 76.8641L180.517 78.4095L159.468 70.7295L181.011 76.8885L162.019 65L181.811 75.5035L165.706 59.9261L182.881 74.3149L170.366 55.7295L184.175 73.3749L175.798 52.5936L185.636 72.7244L181.763 50.6556L187.2 72.3919L188 50Z" fill="#AE9B84"/>
</g>
</g>
<path d="M244.356 68.6719V90H241.573V68.6719H244.356ZM251.212 68.6719V70.9863H234.732V68.6719H251.212ZM256.207 79.8193V82.0459H249.059V79.8193H256.207ZM270.636 84.6094C270.636 84.1113 270.558 83.6719 270.401 83.291C270.255 82.9004 269.991 82.5488 269.61 82.2363C269.239 81.9238 268.722 81.626 268.058 81.3428C267.403 81.0596 266.573 80.7715 265.567 80.4785C264.513 80.166 263.561 79.8193 262.711 79.4385C261.861 79.0479 261.134 78.6035 260.528 78.1055C259.923 77.6074 259.459 77.0361 259.137 76.3916C258.814 75.7471 258.653 75.0098 258.653 74.1797C258.653 73.3496 258.824 72.583 259.166 71.8799C259.508 71.1768 259.996 70.5664 260.631 70.0488C261.275 69.5215 262.042 69.1113 262.931 68.8184C263.819 68.5254 264.811 68.3789 265.904 68.3789C267.506 68.3789 268.863 68.6865 269.977 69.3018C271.1 69.9072 271.954 70.7031 272.54 71.6895C273.126 72.666 273.419 73.7109 273.419 74.8242H270.606C270.606 74.0234 270.436 73.3154 270.094 72.7002C269.752 72.0752 269.234 71.5869 268.541 71.2354C267.848 70.874 266.969 70.6934 265.904 70.6934C264.898 70.6934 264.068 70.8447 263.414 71.1475C262.76 71.4502 262.271 71.8604 261.949 72.3779C261.637 72.8955 261.48 73.4863 261.48 74.1504C261.48 74.5996 261.573 75.0098 261.759 75.3809C261.954 75.7422 262.252 76.0791 262.652 76.3916C263.062 76.7041 263.58 76.9922 264.205 77.2559C264.84 77.5195 265.597 77.7734 266.476 78.0176C267.687 78.3594 268.731 78.7402 269.61 79.1602C270.489 79.5801 271.212 80.0537 271.778 80.5811C272.354 81.0986 272.779 81.6895 273.053 82.3535C273.336 83.0078 273.478 83.75 273.478 84.5801C273.478 85.4492 273.302 86.2354 272.95 86.9385C272.599 87.6416 272.096 88.2422 271.441 88.7402C270.787 89.2383 270.001 89.624 269.083 89.8975C268.175 90.1611 267.159 90.293 266.036 90.293C265.05 90.293 264.078 90.1562 263.121 89.8828C262.174 89.6094 261.31 89.1992 260.528 88.6523C259.757 88.1055 259.137 87.4316 258.668 86.6309C258.209 85.8203 257.979 84.8828 257.979 83.8184H260.792C260.792 84.5508 260.934 85.1807 261.217 85.708C261.5 86.2256 261.886 86.6553 262.374 86.9971C262.872 87.3389 263.434 87.5928 264.059 87.7588C264.693 87.915 265.353 87.9932 266.036 87.9932C267.022 87.9932 267.857 87.8564 268.541 87.583C269.225 87.3096 269.742 86.9189 270.094 86.4111C270.455 85.9033 270.636 85.3027 270.636 84.6094ZM291.012 77.8418V80.1416H279.469V77.8418H291.012ZM279.908 68.6719V90H277.081V68.6719H279.908ZM293.473 68.6719V90H290.66V68.6719H293.473ZM301.529 68.6719V90H298.702V68.6719H301.529ZM306.671 68.6719H313.731C315.333 68.6719 316.686 68.916 317.789 69.4043C318.902 69.8926 319.747 70.6152 320.323 71.5723C320.909 72.5195 321.202 73.6865 321.202 75.0732C321.202 76.0498 321.002 76.9434 320.602 77.7539C320.211 78.5547 319.645 79.2383 318.902 79.8047C318.17 80.3613 317.291 80.7764 316.266 81.0498L315.475 81.3574H308.839L308.81 79.0576H313.819C314.835 79.0576 315.68 78.8818 316.354 78.5303C317.027 78.1689 317.535 77.6855 317.877 77.0801C318.219 76.4746 318.39 75.8057 318.39 75.0732C318.39 74.2529 318.229 73.5352 317.906 72.9199C317.584 72.3047 317.076 71.8311 316.383 71.499C315.699 71.1572 314.815 70.9863 313.731 70.9863H309.498V90H306.671V68.6719ZM319.137 90L313.951 80.332L316.896 80.3174L322.154 89.8242V90H319.137ZM331.866 68.6719V90H329.083V68.6719H331.866ZM338.722 68.6719V70.9863H322.242V68.6719H338.722Z" fill="#333333"/>
<g clip-path="url(#clip1_71_2674)">
<mask id="mask1_71_2674" style="mask-type:luminance" maskUnits="userSpaceOnUse" x="356" y="50" width="60" height="60">
<path d="M416 50H356V110H416V50Z" fill="white"/>
</mask>
<g mask="url(#mask1_71_2674)">
<path d="M386 50L386.799 72.3919L392.237 50.6556L388.364 72.7244L398.202 52.5936L389.825 73.3749L403.634 55.7295L391.119 74.3149L408.294 59.9261L392.189 75.5035L411.981 65L392.988 76.8885L414.532 70.7295L393.483 78.4095L415.836 76.8641L393.65 80L415.836 83.1359L393.483 81.5906L414.532 89.2706L392.988 83.1116L411.981 95L392.189 84.4967L408.294 100.074L391.119 85.685L403.634 104.271L389.825 86.6252L398.202 107.407L388.364 87.2756L392.237 109.345L386.799 87.608L386 110L385.2 87.608L379.763 109.345L383.636 87.2756L373.798 107.407L382.175 86.6252L368.366 104.271L380.881 85.685L363.706 100.074L379.811 84.4967L360.019 95L379.011 83.1116L357.468 89.2706L378.517 81.5906L356.164 83.1359L378.35 80L356.164 76.8641L378.517 78.4095L357.468 70.7295L379.011 76.8885L360.019 65L379.811 75.5035L363.706 59.9261L380.881 74.3149L368.366 55.7295L382.175 73.3749L373.798 52.5936L383.636 72.7244L379.763 50.6556L385.2 72.3919L386 50Z" fill="#AE9B84"/>
</g>
</g>
<path d="M447.41 87.7002V90H436.746V87.7002H447.41ZM437.303 68.6719V90H434.476V68.6719H437.303ZM466.102 78.6621V80.0098C466.102 81.6113 465.901 83.0469 465.501 84.3164C465.101 85.5859 464.524 86.665 463.772 87.5537C463.021 88.4424 462.117 89.1211 461.062 89.5898C460.018 90.0586 458.846 90.293 457.547 90.293C456.287 90.293 455.13 90.0586 454.075 89.5898C453.03 89.1211 452.122 88.4424 451.351 87.5537C450.589 86.665 449.998 85.5859 449.578 84.3164C449.158 83.0469 448.948 81.6113 448.948 80.0098V78.6621C448.948 77.0605 449.153 75.6299 449.563 74.3701C449.983 73.1006 450.574 72.0215 451.336 71.1328C452.098 70.2344 453.001 69.5508 454.046 69.082C455.101 68.6133 456.258 68.3789 457.518 68.3789C458.816 68.3789 459.988 68.6133 461.033 69.082C462.088 69.5508 462.991 70.2344 463.743 71.1328C464.505 72.0215 465.086 73.1006 465.486 74.3701C465.896 75.6299 466.102 77.0605 466.102 78.6621ZM463.304 80.0098V78.6328C463.304 77.3633 463.172 76.2402 462.908 75.2637C462.654 74.2871 462.278 73.4668 461.78 72.8027C461.282 72.1387 460.672 71.6357 459.949 71.2939C459.236 70.9521 458.426 70.7812 457.518 70.7812C456.639 70.7812 455.843 70.9521 455.13 71.2939C454.427 71.6357 453.821 72.1387 453.313 72.8027C452.815 73.4668 452.43 74.2871 452.156 75.2637C451.883 76.2402 451.746 77.3633 451.746 78.6328V80.0098C451.746 81.2891 451.883 82.4219 452.156 83.4082C452.43 84.3848 452.82 85.21 453.328 85.8838C453.846 86.5479 454.456 87.0508 455.159 87.3926C455.872 87.7344 456.668 87.9053 457.547 87.9053C458.465 87.9053 459.28 87.7344 459.993 87.3926C460.706 87.0508 461.307 86.5479 461.795 85.8838C462.293 85.21 462.669 84.3848 462.923 83.4082C463.177 82.4219 463.304 81.2891 463.304 80.0098ZM486.741 68.6719V90H483.899L473.162 73.5498V90H470.335V68.6719H473.162L483.943 85.166V68.6719H486.741ZM507.513 79.3799V87.1875C507.249 87.5781 506.829 88.0176 506.253 88.5059C505.677 88.9844 504.881 89.4043 503.865 89.7656C502.859 90.1172 501.561 90.293 499.969 90.293C498.67 90.293 497.474 90.0684 496.38 89.6191C495.296 89.1602 494.354 88.4961 493.553 87.627C492.762 86.748 492.146 85.6836 491.707 84.4336C491.277 83.1738 491.062 81.748 491.062 80.1562V78.501C491.062 76.9092 491.248 75.4883 491.619 74.2383C492 72.9883 492.557 71.9287 493.289 71.0596C494.021 70.1807 494.92 69.5166 495.984 69.0674C497.049 68.6084 498.27 68.3789 499.646 68.3789C501.277 68.3789 502.64 68.6621 503.733 69.2285C504.837 69.7852 505.696 70.5566 506.312 71.543C506.937 72.5293 507.337 73.6523 507.513 74.9121H504.686C504.559 74.1406 504.305 73.4375 503.924 72.8027C503.553 72.168 503.021 71.6602 502.327 71.2793C501.634 70.8887 500.74 70.6934 499.646 70.6934C498.66 70.6934 497.806 70.874 497.083 71.2354C496.36 71.5967 495.765 72.1143 495.296 72.7881C494.827 73.4619 494.476 74.2773 494.241 75.2344C494.017 76.1914 493.904 77.2705 493.904 78.4717V80.1562C493.904 81.3867 494.046 82.4854 494.329 83.4521C494.622 84.4189 495.037 85.2441 495.574 85.9277C496.111 86.6016 496.751 87.1143 497.493 87.4658C498.245 87.8174 499.075 87.9932 499.983 87.9932C500.989 87.9932 501.805 87.9102 502.43 87.7441C503.055 87.5684 503.543 87.3633 503.895 87.1289C504.246 86.8848 504.515 86.6553 504.7 86.4404V81.665H499.764V79.3799H507.513ZM517.43 79.8193V82.0459H510.281V79.8193H517.43ZM531.858 84.6094C531.858 84.1113 531.78 83.6719 531.624 83.291C531.478 82.9004 531.214 82.5488 530.833 82.2363C530.462 81.9238 529.944 81.626 529.28 81.3428C528.626 81.0596 527.796 80.7715 526.79 80.4785C525.735 80.166 524.783 79.8193 523.934 79.4385C523.084 79.0479 522.356 78.6035 521.751 78.1055C521.146 77.6074 520.682 77.0361 520.359 76.3916C520.037 75.7471 519.876 75.0098 519.876 74.1797C519.876 73.3496 520.047 72.583 520.389 71.8799C520.73 71.1768 521.219 70.5664 521.854 70.0488C522.498 69.5215 523.265 69.1113 524.153 68.8184C525.042 68.5254 526.033 68.3789 527.127 68.3789C528.729 68.3789 530.086 68.6865 531.199 69.3018C532.322 69.9072 533.177 70.7031 533.763 71.6895C534.349 72.666 534.642 73.7109 534.642 74.8242H531.829C531.829 74.0234 531.658 73.3154 531.316 72.7002C530.975 72.0752 530.457 71.5869 529.764 71.2354C529.07 70.874 528.191 70.6934 527.127 70.6934C526.121 70.6934 525.291 70.8447 524.637 71.1475C523.982 71.4502 523.494 71.8604 523.172 72.3779C522.859 72.8955 522.703 73.4863 522.703 74.1504C522.703 74.5996 522.796 75.0098 522.981 75.3809C523.177 75.7422 523.475 76.0791 523.875 76.3916C524.285 76.7041 524.803 76.9922 525.428 77.2559C526.062 77.5195 526.819 77.7734 527.698 78.0176C528.909 78.3594 529.954 78.7402 530.833 79.1602C531.712 79.5801 532.435 80.0537 533.001 80.5811C533.577 81.0986 534.002 81.6895 534.275 82.3535C534.559 83.0078 534.7 83.75 534.7 84.5801C534.7 85.4492 534.524 86.2354 534.173 86.9385C533.821 87.6416 533.318 88.2422 532.664 88.7402C532.01 89.2383 531.224 89.624 530.306 89.8975C529.397 90.1611 528.382 90.293 527.259 90.293C526.272 90.293 525.301 90.1562 524.344 89.8828C523.396 89.6094 522.532 89.1992 521.751 88.6523C520.979 88.1055 520.359 87.4316 519.891 86.6309C519.432 85.8203 519.202 84.8828 519.202 83.8184H522.015C522.015 84.5508 522.156 85.1807 522.439 85.708C522.723 86.2256 523.108 86.6553 523.597 86.9971C524.095 87.3389 524.656 87.5928 525.281 87.7588C525.916 87.915 526.575 87.9932 527.259 87.9932C528.245 87.9932 529.08 87.8564 529.764 87.583C530.447 87.3096 530.965 86.9189 531.316 86.4111C531.678 85.9033 531.858 85.3027 531.858 84.6094ZM551.238 87.7002V90H540.574V87.7002H551.238ZM541.131 68.6719V90H538.304V68.6719H541.131ZM568.025 87.7002V90H556.731V87.7002H568.025ZM557.303 68.6719V90H554.476V68.6719H557.303ZM566.531 77.8418V80.1416H556.731V77.8418H566.531ZM567.879 68.6719V70.9863H556.731V68.6719H567.879ZM585.076 87.7002V90H573.782V87.7002H585.076ZM574.354 68.6719V90H571.526V68.6719H574.354ZM583.582 77.8418V80.1416H573.782V77.8418H583.582ZM584.93 68.6719V70.9863H573.782V68.6719H584.93ZM595.462 86.7627L601.746 68.6719H604.808L596.912 90H594.729L595.462 86.7627ZM589.588 68.6719L595.813 86.7627L596.59 90H594.407L586.526 68.6719H589.588ZM621.229 87.7002V90H609.935V87.7002H621.229ZM610.506 68.6719V90H607.679V68.6719H610.506ZM619.734 77.8418V80.1416H609.935V77.8418H619.734ZM621.082 68.6719V70.9863H609.935V68.6719H621.082ZM639.466 68.6719V90H636.683V68.6719H639.466ZM646.321 68.6719V70.9863H629.842V68.6719H646.321ZM651.316 79.8193V82.0459H644.168V79.8193H651.316ZM665.745 84.6094C665.745 84.1113 665.667 83.6719 665.511 83.291C665.364 82.9004 665.101 82.5488 664.72 82.2363C664.349 81.9238 663.831 81.626 663.167 81.3428C662.513 81.0596 661.683 80.7715 660.677 80.4785C659.622 80.166 658.67 79.8193 657.82 79.4385C656.971 79.0479 656.243 78.6035 655.638 78.1055C655.032 77.6074 654.568 77.0361 654.246 76.3916C653.924 75.7471 653.763 75.0098 653.763 74.1797C653.763 73.3496 653.934 72.583 654.275 71.8799C654.617 71.1768 655.105 70.5664 655.74 70.0488C656.385 69.5215 657.151 69.1113 658.04 68.8184C658.929 68.5254 659.92 68.3789 661.014 68.3789C662.615 68.3789 663.973 68.6865 665.086 69.3018C666.209 69.9072 667.063 70.7031 667.649 71.6895C668.235 72.666 668.528 73.7109 668.528 74.8242H665.716C665.716 74.0234 665.545 73.3154 665.203 72.7002C664.861 72.0752 664.344 71.5869 663.65 71.2354C662.957 70.874 662.078 70.6934 661.014 70.6934C660.008 70.6934 659.178 70.8447 658.523 71.1475C657.869 71.4502 657.381 71.8604 657.059 72.3779C656.746 72.8955 656.59 73.4863 656.59 74.1504C656.59 74.5996 656.683 75.0098 656.868 75.3809C657.063 75.7422 657.361 76.0791 657.762 76.3916C658.172 76.7041 658.689 76.9922 659.314 77.2559C659.949 77.5195 660.706 77.7734 661.585 78.0176C662.796 78.3594 663.841 78.7402 664.72 79.1602C665.599 79.5801 666.321 80.0537 666.888 80.5811C667.464 81.0986 667.889 81.6895 668.162 82.3535C668.445 83.0078 668.587 83.75 668.587 84.5801C668.587 85.4492 668.411 86.2354 668.06 86.9385C667.708 87.6416 667.205 88.2422 666.551 88.7402C665.896 89.2383 665.11 89.624 664.192 89.8975C663.284 90.1611 662.269 90.293 661.146 90.293C660.159 90.293 659.188 90.1562 658.23 89.8828C657.283 89.6094 656.419 89.1992 655.638 88.6523C654.866 88.1055 654.246 87.4316 653.777 86.6309C653.318 85.8203 653.089 84.8828 653.089 83.8184H655.901C655.901 84.5508 656.043 85.1807 656.326 85.708C656.609 86.2256 656.995 86.6553 657.483 86.9971C657.981 87.3389 658.543 87.5928 659.168 87.7588C659.803 87.915 660.462 87.9932 661.146 87.9932C662.132 87.9932 662.967 87.8564 663.65 87.583C664.334 87.3096 664.852 86.9189 665.203 86.4111C665.564 85.9033 665.745 85.3027 665.745 84.6094ZM686.121 77.8418V80.1416H674.578V77.8418H686.121ZM675.018 68.6719V90H672.19V68.6719H675.018ZM688.582 68.6719V90H685.77V68.6719H688.582ZM696.639 68.6719V90H693.812V68.6719H696.639ZM701.78 68.6719H708.841C710.442 68.6719 711.795 68.916 712.898 69.4043C714.012 69.8926 714.856 70.6152 715.433 71.5723C716.019 72.5195 716.312 73.6865 716.312 75.0732C716.312 76.0498 716.111 76.9434 715.711 77.7539C715.32 78.5547 714.754 79.2383 714.012 79.8047C713.279 80.3613 712.4 80.7764 711.375 81.0498L710.584 81.3574H703.948L703.919 79.0576H708.929C709.944 79.0576 710.789 78.8818 711.463 78.5303C712.137 78.1689 712.645 77.6855 712.986 77.0801C713.328 76.4746 713.499 75.8057 713.499 75.0732C713.499 74.2529 713.338 73.5352 713.016 72.9199C712.693 72.3047 712.186 71.8311 711.492 71.499C710.809 71.1572 709.925 70.9863 708.841 70.9863H704.607V90H701.78V68.6719ZM714.246 90L709.061 80.332L712.005 80.3174L717.264 89.8242V90H714.246Z" fill="#333333"/>
<g clip-path="url(#clip2_71_2674)">
<mask id="mask2_71_2674" style="mask-type:luminance" maskUnits="userSpaceOnUse" x="734" y="50" width="60" height="60">
<path d="M794 50H734V110H794V50Z" fill="white"/>
</mask>
<g mask="url(#mask2_71_2674)">
<path d="M764 50L764.799 72.3919L770.237 50.6556L766.364 72.7244L776.202 52.5936L767.825 73.3749L781.634 55.7295L769.119 74.3149L786.294 59.9261L770.189 75.5035L789.981 65L770.988 76.8885L792.532 70.7295L771.483 78.4095L793.836 76.8641L771.65 80L793.836 83.1359L771.483 81.5906L792.532 89.2706L770.988 83.1116L789.981 95L770.189 84.4967L786.294 100.074L769.119 85.685L781.634 104.271L767.825 86.6252L776.202 107.407L766.364 87.2756L770.237 109.345L764.799 87.608L764 110L763.2 87.608L757.763 109.345L761.636 87.2756L751.798 107.407L760.175 86.6252L746.366 104.271L758.881 85.685L741.706 100.074L757.811 84.4967L738.019 95L757.011 83.1116L735.468 89.2706L756.517 81.5906L734.164 83.1359L756.35 80L734.164 76.8641L756.517 78.4095L735.468 70.7295L757.011 76.8885L738.019 65L757.811 75.5035L741.706 59.9261L758.881 74.3149L746.366 55.7295L760.175 73.3749L751.798 52.5936L761.636 72.7244L757.763 50.6556L763.2 72.3919L764 50Z" fill="#AE9B84"/>
</g>
</g>
<path d="M812.476 68.6719H819.536C821.138 68.6719 822.49 68.916 823.594 69.4043C824.707 69.8926 825.552 70.6152 826.128 71.5723C826.714 72.5195 827.007 73.6865 827.007 75.0732C827.007 76.0498 826.807 76.9434 826.406 77.7539C826.016 78.5547 825.449 79.2383 824.707 79.8047C823.975 80.3613 823.096 80.7764 822.07 81.0498L821.279 81.3574H814.644L814.614 79.0576H819.624C820.64 79.0576 821.484 78.8818 822.158 78.5303C822.832 78.1689 823.34 77.6855 823.682 77.0801C824.023 76.4746 824.194 75.8057 824.194 75.0732C824.194 74.2529 824.033 73.5352 823.711 72.9199C823.389 72.3047 822.881 71.8311 822.188 71.499C821.504 71.1572 820.62 70.9863 819.536 70.9863H815.303V90H812.476V68.6719ZM824.941 90L819.756 80.332L822.7 80.3174L827.959 89.8242V90H824.941ZM838.857 70.5615L831.797 90H828.911L837.041 68.6719H838.901L838.857 70.5615ZM844.775 90L837.7 70.5615L837.656 68.6719H839.517L847.676 90H844.775ZM844.409 82.1045V84.4189H832.427V82.1045H844.409ZM866.118 79.3799V87.1875C865.854 87.5781 865.435 88.0176 864.858 88.5059C864.282 88.9844 863.486 89.4043 862.471 89.7656C861.465 90.1172 860.166 90.293 858.574 90.293C857.275 90.293 856.079 90.0684 854.985 89.6191C853.901 89.1602 852.959 88.4961 852.158 87.627C851.367 86.748 850.752 85.6836 850.312 84.4336C849.883 83.1738 849.668 81.748 849.668 80.1562V78.501C849.668 76.9092 849.854 75.4883 850.225 74.2383C850.605 72.9883 851.162 71.9287 851.895 71.0596C852.627 70.1807 853.525 69.5166 854.59 69.0674C855.654 68.6084 856.875 68.3789 858.252 68.3789C859.883 68.3789 861.245 68.6621 862.339 69.2285C863.442 69.7852 864.302 70.5566 864.917 71.543C865.542 72.5293 865.942 73.6523 866.118 74.9121H863.291C863.164 74.1406 862.91 73.4375 862.529 72.8027C862.158 72.168 861.626 71.6602 860.933 71.2793C860.239 70.8887 859.346 70.6934 858.252 70.6934C857.266 70.6934 856.411 70.874 855.688 71.2354C854.966 71.5967 854.37 72.1143 853.901 72.7881C853.433 73.4619 853.081 74.2773 852.847 75.2344C852.622 76.1914 852.51 77.2705 852.51 78.4717V80.1562C852.51 81.3867 852.651 82.4854 852.935 83.4521C853.228 84.4189 853.643 85.2441 854.18 85.9277C854.717 86.6016 855.356 87.1143 856.099 87.4658C856.851 87.8174 857.681 87.9932 858.589 87.9932C859.595 87.9932 860.41 87.9102 861.035 87.7441C861.66 87.5684 862.148 87.3633 862.5 87.1289C862.852 86.8848 863.12 86.6553 863.306 86.4404V81.665H858.369V79.3799H866.118ZM883.74 87.7002V90H873.076V87.7002H883.74ZM873.633 68.6719V90H870.806V68.6719H873.633ZM895.166 70.5615L888.105 90H885.22L893.35 68.6719H895.21L895.166 70.5615ZM901.084 90L894.009 70.5615L893.965 68.6719H895.825L903.984 90H901.084ZM900.718 82.1045V84.4189H888.735V82.1045H900.718ZM923.247 68.6719V90H920.405L909.668 73.5498V90H906.841V68.6719H909.668L920.449 85.166V68.6719H923.247ZM947.065 84.6094C947.065 84.1113 946.987 83.6719 946.831 83.291C946.685 82.9004 946.421 82.5488 946.04 82.2363C945.669 81.9238 945.151 81.626 944.487 81.3428C943.833 81.0596 943.003 80.7715 941.997 80.4785C940.942 80.166 939.99 79.8193 939.141 79.4385C938.291 79.0479 937.563 78.6035 936.958 78.1055C936.353 77.6074 935.889 77.0361 935.566 76.3916C935.244 75.7471 935.083 75.0098 935.083 74.1797C935.083 73.3496 935.254 72.583 935.596 71.8799C935.938 71.1768 936.426 70.5664 937.061 70.0488C937.705 69.5215 938.472 69.1113 939.36 68.8184C940.249 68.5254 941.24 68.3789 942.334 68.3789C943.936 68.3789 945.293 68.6865 946.406 69.3018C947.529 69.9072 948.384 70.7031 948.97 71.6895C949.556 72.666 949.849 73.7109 949.849 74.8242H947.036C947.036 74.0234 946.865 73.3154 946.523 72.7002C946.182 72.0752 945.664 71.5869 944.971 71.2354C944.277 70.874 943.398 70.6934 942.334 70.6934C941.328 70.6934 940.498 70.8447 939.844 71.1475C939.189 71.4502 938.701 71.8604 938.379 72.3779C938.066 72.8955 937.91 73.4863 937.91 74.1504C937.91 74.5996 938.003 75.0098 938.188 75.3809C938.384 75.7422 938.682 76.0791 939.082 76.3916C939.492 76.7041 940.01 76.9922 940.635 77.2559C941.27 77.5195 942.026 77.7734 942.905 78.0176C944.116 78.3594 945.161 78.7402 946.04 79.1602C946.919 79.5801 947.642 80.0537 948.208 80.5811C948.784 81.0986 949.209 81.6895 949.482 82.3535C949.766 83.0078 949.907 83.75 949.907 84.5801C949.907 85.4492 949.731 86.2354 949.38 86.9385C949.028 87.6416 948.525 88.2422 947.871 88.7402C947.217 89.2383 946.431 89.624 945.513 89.8975C944.604 90.1611 943.589 90.293 942.466 90.293C941.479 90.293 940.508 90.1562 939.551 89.8828C938.604 89.6094 937.739 89.1992 936.958 88.6523C936.187 88.1055 935.566 87.4316 935.098 86.6309C934.639 85.8203 934.409 84.8828 934.409 83.8184H937.222C937.222 84.5508 937.363 85.1807 937.646 85.708C937.93 86.2256 938.315 86.6553 938.804 86.9971C939.302 87.3389 939.863 87.5928 940.488 87.7588C941.123 87.915 941.782 87.9932 942.466 87.9932C943.452 87.9932 944.287 87.8564 944.971 87.583C945.654 87.3096 946.172 86.9189 946.523 86.4111C946.885 85.9033 947.065 85.3027 947.065 84.6094ZM966.445 87.7002V90H955.781V87.7002H966.445ZM956.338 68.6719V90H953.511V68.6719H956.338ZM983.232 87.7002V90H971.938V87.7002H983.232ZM972.51 68.6719V90H969.683V68.6719H972.51ZM981.738 77.8418V80.1416H971.938V77.8418H981.738ZM983.086 68.6719V70.9863H971.938V68.6719H983.086ZM1000.28 87.7002V90H988.989V87.7002H1000.28ZM989.561 68.6719V90H986.733V68.6719H989.561ZM998.789 77.8418V80.1416H988.989V77.8418H998.789ZM1000.14 68.6719V70.9863H988.989V68.6719H1000.14ZM1010.67 86.7627L1016.95 68.6719H1020.01L1012.12 90H1009.94L1010.67 86.7627ZM1004.79 68.6719L1011.02 86.7627L1011.8 90H1009.61L1001.73 68.6719H1004.79ZM1036.44 87.7002V90H1025.14V87.7002H1036.44ZM1025.71 68.6719V90H1022.89V68.6719H1025.71ZM1034.94 77.8418V80.1416H1025.14V77.8418H1034.94ZM1036.29 68.6719V70.9863H1025.14V68.6719H1036.29ZM1058.75 84.6094C1058.75 84.1113 1058.67 83.6719 1058.51 83.291C1058.36 82.9004 1058.1 82.5488 1057.72 82.2363C1057.35 81.9238 1056.83 81.626 1056.17 81.3428C1055.51 81.0596 1054.68 80.7715 1053.68 80.4785C1052.62 80.166 1051.67 79.8193 1050.82 79.4385C1049.97 79.0479 1049.24 78.6035 1048.64 78.1055C1048.03 77.6074 1047.57 77.0361 1047.25 76.3916C1046.92 75.7471 1046.76 75.0098 1046.76 74.1797C1046.76 73.3496 1046.93 72.583 1047.28 71.8799C1047.62 71.1768 1048.11 70.5664 1048.74 70.0488C1049.38 69.5215 1050.15 69.1113 1051.04 68.8184C1051.93 68.5254 1052.92 68.3789 1054.01 68.3789C1055.62 68.3789 1056.97 68.6865 1058.09 69.3018C1059.21 69.9072 1060.06 70.7031 1060.65 71.6895C1061.24 72.666 1061.53 73.7109 1061.53 74.8242H1058.72C1058.72 74.0234 1058.54 73.3154 1058.2 72.7002C1057.86 72.0752 1057.34 71.5869 1056.65 71.2354C1055.96 70.874 1055.08 70.6934 1054.01 70.6934C1053.01 70.6934 1052.18 70.8447 1051.52 71.1475C1050.87 71.4502 1050.38 71.8604 1050.06 72.3779C1049.75 72.8955 1049.59 73.4863 1049.59 74.1504C1049.59 74.5996 1049.68 75.0098 1049.87 75.3809C1050.06 75.7422 1050.36 76.0791 1050.76 76.3916C1051.17 76.7041 1051.69 76.9922 1052.31 77.2559C1052.95 77.5195 1053.71 77.7734 1054.58 78.0176C1055.8 78.3594 1056.84 78.7402 1057.72 79.1602C1058.6 79.5801 1059.32 80.0537 1059.89 80.5811C1060.46 81.0986 1060.89 81.6895 1061.16 82.3535C1061.45 83.0078 1061.59 83.75 1061.59 84.5801C1061.59 85.4492 1061.41 86.2354 1061.06 86.9385C1060.71 87.6416 1060.21 88.2422 1059.55 88.7402C1058.9 89.2383 1058.11 89.624 1057.19 89.8975C1056.28 90.1611 1055.27 90.293 1054.15 90.293C1053.16 90.293 1052.19 90.1562 1051.23 89.8828C1050.28 89.6094 1049.42 89.1992 1048.64 88.6523C1047.87 88.1055 1047.25 87.4316 1046.78 86.6309C1046.32 85.8203 1046.09 84.8828 1046.09 83.8184H1048.9C1048.9 84.5508 1049.04 85.1807 1049.33 85.708C1049.61 86.2256 1050 86.6553 1050.48 86.9971C1050.98 87.3389 1051.54 87.5928 1052.17 87.7588C1052.8 87.915 1053.46 87.9932 1054.15 87.9932C1055.13 87.9932 1055.97 87.8564 1056.65 87.583C1057.33 87.3096 1057.85 86.9189 1058.2 86.4111C1058.56 85.9033 1058.75 85.3027 1058.75 84.6094ZM1079.12 77.8418V80.1416H1067.58V77.8418H1079.12ZM1068.02 68.6719V90H1065.19V68.6719H1068.02ZM1081.58 68.6719V90H1078.77V68.6719H1081.58ZM1089.64 68.6719V90H1086.81V68.6719H1089.64ZM1094.78 68.6719H1101.84C1103.44 68.6719 1104.79 68.916 1105.9 69.4043C1107.01 69.8926 1107.86 70.6152 1108.43 71.5723C1109.02 72.5195 1109.31 73.6865 1109.31 75.0732C1109.31 76.0498 1109.11 76.9434 1108.71 77.7539C1108.32 78.5547 1107.75 79.2383 1107.01 79.8047C1106.28 80.3613 1105.4 80.7764 1104.38 81.0498L1103.58 81.3574H1096.95L1096.92 79.0576H1101.93C1102.94 79.0576 1103.79 78.8818 1104.46 78.5303C1105.14 78.1689 1105.64 77.6855 1105.99 77.0801C1106.33 76.4746 1106.5 75.8057 1106.5 75.0732C1106.5 74.2529 1106.34 73.5352 1106.02 72.9199C1105.69 72.3047 1105.19 71.8311 1104.49 71.499C1103.81 71.1572 1102.92 70.9863 1101.84 70.9863H1097.61V90H1094.78V68.6719ZM1107.25 90L1102.06 80.332L1105 80.3174L1110.26 89.8242V90H1107.25ZM1119.98 68.6719V90H1117.19V68.6719H1119.98ZM1126.83 68.6719V70.9863H1110.35V68.6719H1126.83Z" fill="#333333"/>
<g clip-path="url(#clip3_71_2674)">
<mask id="mask3_71_2674" style="mask-type:luminance" maskUnits="userSpaceOnUse" x="1144" y="50" width="60" height="60">
<path d="M1204 50H1144V110H1204V50Z" fill="white"/>
</mask>
<g mask="url(#mask3_71_2674)">
<path d="M1174 50L1174.8 72.3919L1180.24 50.6556L1176.36 72.7244L1186.2 52.5936L1177.82 73.3749L1191.63 55.7295L1179.12 74.3149L1196.29 59.9261L1180.19 75.5035L1199.98 65L1180.99 76.8885L1202.53 70.7295L1181.48 78.4095L1203.84 76.8641L1181.65 80L1203.84 83.1359L1181.48 81.5906L1202.53 89.2706L1180.99 83.1116L1199.98 95L1180.19 84.4967L1196.29 100.074L1179.12 85.685L1191.63 104.271L1177.82 86.6252L1186.2 107.407L1176.36 87.2756L1180.24 109.345L1174.8 87.608L1174 110L1173.2 87.608L1167.76 109.345L1171.64 87.2756L1161.8 107.407L1170.17 86.6252L1156.37 104.271L1168.88 85.685L1151.71 100.074L1167.81 84.4967L1148.02 95L1167.01 83.1116L1145.47 89.2706L1166.52 81.5906L1144.16 83.1359L1166.35 80L1144.16 76.8641L1166.52 78.4095L1145.47 70.7295L1167.01 76.8885L1148.02 65L1167.81 75.5035L1151.71 59.9261L1168.88 74.3149L1156.37 55.7295L1170.17 73.3749L1161.8 52.5936L1171.64 72.7244L1167.76 50.6556L1173.2 72.3919L1174 50Z" fill="#AE9B84"/>
</g>
</g>
<path d="M1235.35 83.2178H1238.16C1238.02 84.5654 1237.63 85.7715 1237.01 86.8359C1236.38 87.9004 1235.5 88.7451 1234.36 89.3701C1233.21 89.9854 1231.79 90.293 1230.08 90.293C1228.83 90.293 1227.69 90.0586 1226.67 89.5898C1225.65 89.1211 1224.78 88.457 1224.04 87.5977C1223.31 86.7285 1222.74 85.6885 1222.34 84.4775C1221.95 83.2568 1221.76 81.8994 1221.76 80.4053V78.2812C1221.76 76.7871 1221.95 75.4346 1222.34 74.2236C1222.74 73.0029 1223.32 71.958 1224.06 71.0889C1224.81 70.2197 1225.71 69.5508 1226.77 69.082C1227.82 68.6133 1229.01 68.3789 1230.33 68.3789C1231.94 68.3789 1233.3 68.6816 1234.41 69.2871C1235.53 69.8926 1236.39 70.7324 1237.01 71.8066C1237.63 72.8711 1238.02 74.1064 1238.16 75.5127H1235.35C1235.21 74.5166 1234.96 73.6621 1234.59 72.9492C1234.22 72.2266 1233.69 71.6699 1233.01 71.2793C1232.32 70.8887 1231.43 70.6934 1230.33 70.6934C1229.38 70.6934 1228.54 70.874 1227.82 71.2354C1227.11 71.5967 1226.51 72.1094 1226.02 72.7734C1225.54 73.4375 1225.18 74.2334 1224.94 75.1611C1224.69 76.0889 1224.57 77.1191 1224.57 78.252V80.4053C1224.57 81.4502 1224.68 82.4316 1224.89 83.3496C1225.12 84.2676 1225.45 85.0732 1225.9 85.7666C1226.35 86.46 1226.92 87.0068 1227.62 87.4072C1228.31 87.7979 1229.13 87.9932 1230.08 87.9932C1231.28 87.9932 1232.24 87.8027 1232.95 87.4219C1233.66 87.041 1234.2 86.4941 1234.56 85.7812C1234.93 85.0684 1235.2 84.2139 1235.35 83.2178ZM1242.02 68.6719H1249.08C1250.68 68.6719 1252.03 68.916 1253.13 69.4043C1254.25 69.8926 1255.09 70.6152 1255.67 71.5723C1256.25 72.5195 1256.55 73.6865 1256.55 75.0732C1256.55 76.0498 1256.35 76.9434 1255.95 77.7539C1255.56 78.5547 1254.99 79.2383 1254.25 79.8047C1253.52 80.3613 1252.64 80.7764 1251.61 81.0498L1250.82 81.3574H1244.18L1244.16 79.0576H1249.17C1250.18 79.0576 1251.03 78.8818 1251.7 78.5303C1252.37 78.1689 1252.88 77.6855 1253.22 77.0801C1253.56 76.4746 1253.74 75.8057 1253.74 75.0732C1253.74 74.2529 1253.57 73.5352 1253.25 72.9199C1252.93 72.3047 1252.42 71.8311 1251.73 71.499C1251.04 71.1572 1250.16 70.9863 1249.08 70.9863H1244.84V90H1242.02V68.6719ZM1254.48 90L1249.3 80.332L1252.24 80.3174L1257.5 89.8242V90H1254.48ZM1276.92 78.6621V80.0098C1276.92 81.6113 1276.72 83.0469 1276.32 84.3164C1275.92 85.5859 1275.35 86.665 1274.59 87.5537C1273.84 88.4424 1272.94 89.1211 1271.88 89.5898C1270.84 90.0586 1269.67 90.293 1268.37 90.293C1267.11 90.293 1265.95 90.0586 1264.9 89.5898C1263.85 89.1211 1262.94 88.4424 1262.17 87.5537C1261.41 86.665 1260.82 85.5859 1260.4 84.3164C1259.98 83.0469 1259.77 81.6113 1259.77 80.0098V78.6621C1259.77 77.0605 1259.98 75.6299 1260.39 74.3701C1260.81 73.1006 1261.4 72.0215 1262.16 71.1328C1262.92 70.2344 1263.82 69.5508 1264.87 69.082C1265.92 68.6133 1267.08 68.3789 1268.34 68.3789C1269.64 68.3789 1270.81 68.6133 1271.86 69.082C1272.91 69.5508 1273.81 70.2344 1274.57 71.1328C1275.33 72.0215 1275.91 73.1006 1276.31 74.3701C1276.72 75.6299 1276.92 77.0605 1276.92 78.6621ZM1274.13 80.0098V78.6328C1274.13 77.3633 1273.99 76.2402 1273.73 75.2637C1273.48 74.2871 1273.1 73.4668 1272.6 72.8027C1272.1 72.1387 1271.49 71.6357 1270.77 71.2939C1270.06 70.9521 1269.25 70.7812 1268.34 70.7812C1267.46 70.7812 1266.67 70.9521 1265.95 71.2939C1265.25 71.6357 1264.64 72.1387 1264.14 72.8027C1263.64 73.4668 1263.25 74.2871 1262.98 75.2637C1262.71 76.2402 1262.57 77.3633 1262.57 78.6328V80.0098C1262.57 81.2891 1262.71 82.4219 1262.98 83.4082C1263.25 84.3848 1263.64 85.21 1264.15 85.8838C1264.67 86.5479 1265.28 87.0508 1265.98 87.3926C1266.69 87.7344 1267.49 87.9053 1268.37 87.9053C1269.29 87.9053 1270.1 87.7344 1270.82 87.3926C1271.53 87.0508 1272.13 86.5479 1272.62 85.8838C1273.12 85.21 1273.49 84.3848 1273.75 83.4082C1274 82.4219 1274.13 81.2891 1274.13 80.0098ZM1289.02 81.6357H1283.33V79.3359H1289.02C1290.13 79.3359 1291.02 79.1602 1291.7 78.8086C1292.39 78.457 1292.89 77.9688 1293.2 77.3438C1293.52 76.7188 1293.68 76.0059 1293.68 75.2051C1293.68 74.4727 1293.52 73.7842 1293.2 73.1396C1292.89 72.4951 1292.39 71.9775 1291.7 71.5869C1291.02 71.1865 1290.13 70.9863 1289.02 70.9863H1283.98V90H1281.16V68.6719H1289.02C1290.63 68.6719 1292 68.9502 1293.11 69.5068C1294.22 70.0635 1295.07 70.835 1295.64 71.8213C1296.22 72.7979 1296.51 73.916 1296.51 75.1758C1296.51 76.543 1296.22 77.71 1295.64 78.6768C1295.07 79.6436 1294.22 80.3809 1293.11 80.8887C1292 81.3867 1290.63 81.6357 1289.02 81.6357ZM1314.82 68.6719V90H1312.04V68.6719H1314.82ZM1321.67 68.6719V70.9863H1305.2V68.6719H1321.67ZM1340.85 78.6621V80.0098C1340.85 81.6113 1340.65 83.0469 1340.25 84.3164C1339.85 85.5859 1339.27 86.665 1338.52 87.5537C1337.77 88.4424 1336.87 89.1211 1335.81 89.5898C1334.77 90.0586 1333.59 90.293 1332.29 90.293C1331.04 90.293 1329.88 90.0586 1328.82 89.5898C1327.78 89.1211 1326.87 88.4424 1326.1 87.5537C1325.34 86.665 1324.75 85.5859 1324.33 84.3164C1323.91 83.0469 1323.7 81.6113 1323.7 80.0098V78.6621C1323.7 77.0605 1323.9 75.6299 1324.31 74.3701C1324.73 73.1006 1325.32 72.0215 1326.08 71.1328C1326.85 70.2344 1327.75 69.5508 1328.79 69.082C1329.85 68.6133 1331.01 68.3789 1332.27 68.3789C1333.56 68.3789 1334.74 68.6133 1335.78 69.082C1336.84 69.5508 1337.74 70.2344 1338.49 71.1328C1339.25 72.0215 1339.83 73.1006 1340.23 74.3701C1340.64 75.6299 1340.85 77.0605 1340.85 78.6621ZM1338.05 80.0098V78.6328C1338.05 77.3633 1337.92 76.2402 1337.66 75.2637C1337.4 74.2871 1337.03 73.4668 1336.53 72.8027C1336.03 72.1387 1335.42 71.6357 1334.7 71.2939C1333.98 70.9521 1333.17 70.7812 1332.27 70.7812C1331.39 70.7812 1330.59 70.9521 1329.88 71.2939C1329.17 71.6357 1328.57 72.1387 1328.06 72.8027C1327.56 73.4668 1327.18 74.2871 1326.9 75.2637C1326.63 76.2402 1326.49 77.3633 1326.49 78.6328V80.0098C1326.49 81.2891 1326.63 82.4219 1326.9 83.4082C1327.18 84.3848 1327.57 85.21 1328.08 85.8838C1328.59 86.5479 1329.2 87.0508 1329.91 87.3926C1330.62 87.7344 1331.42 87.9053 1332.29 87.9053C1333.21 87.9053 1334.03 87.7344 1334.74 87.3926C1335.45 87.0508 1336.05 86.5479 1336.54 85.8838C1337.04 85.21 1337.42 84.3848 1337.67 83.4082C1337.92 82.4219 1338.05 81.2891 1338.05 80.0098ZM1352.95 81.6357H1347.25V79.3359H1352.95C1354.05 79.3359 1354.95 79.1602 1355.63 78.8086C1356.31 78.457 1356.81 77.9688 1357.12 77.3438C1357.45 76.7188 1357.61 76.0059 1357.61 75.2051C1357.61 74.4727 1357.45 73.7842 1357.12 73.1396C1356.81 72.4951 1356.31 71.9775 1355.63 71.5869C1354.95 71.1865 1354.05 70.9863 1352.95 70.9863H1347.91V90H1345.08V68.6719H1352.95C1354.56 68.6719 1355.92 68.9502 1357.04 69.5068C1358.15 70.0635 1358.99 70.835 1359.57 71.8213C1360.15 72.7979 1360.43 73.916 1360.43 75.1758C1360.43 76.543 1360.15 77.71 1359.57 78.6768C1358.99 79.6436 1358.15 80.3809 1357.04 80.8887C1355.92 81.3867 1354.56 81.6357 1352.95 81.6357Z" fill="#333333"/>
<g clip-path="url(#clip4_71_2674)">
<mask id="mask4_71_2674" style="mask-type:luminance" maskUnits="userSpaceOnUse" x="1378" y="50" width="60" height="60">
<path d="M1438 50H1378V110H1438V50Z" fill="white"/>
</mask>
<g mask="url(#mask4_71_2674)">
<path d="M1408 50L1408.8 72.3919L1414.24 50.6556L1410.36 72.7244L1420.2 52.5936L1411.82 73.3749L1425.63 55.7295L1413.12 74.3149L1430.29 59.9261L1414.19 75.5035L1433.98 65L1414.99 76.8885L1436.53 70.7295L1415.48 78.4095L1437.84 76.8641L1415.65 80L1437.84 83.1359L1415.48 81.5906L1436.53 89.2706L1414.99 83.1116L1433.98 95L1414.19 84.4967L1430.29 100.074L1413.12 85.685L1425.63 104.271L1411.82 86.6252L1420.2 107.407L1410.36 87.2756L1414.24 109.345L1408.8 87.608L1408 110L1407.2 87.608L1401.76 109.345L1405.64 87.2756L1395.8 107.407L1404.17 86.6252L1390.37 104.271L1402.88 85.685L1385.71 100.074L1401.81 84.4967L1382.02 95L1401.01 83.1116L1379.47 89.2706L1400.52 81.5906L1378.16 83.1359L1400.35 80L1378.16 76.8641L1400.52 78.4095L1379.47 70.7295L1401.01 76.8885L1382.02 65L1401.81 75.5035L1385.71 59.9261L1402.88 74.3149L1390.37 55.7295L1404.17 73.3749L1395.8 52.5936L1405.64 72.7244L1401.76 50.6556L1407.2 72.3919L1408 50Z" fill="#AE9B84"/>
</g>
</g>
<path d="M1463.36 86.7627L1469.64 68.6719H1472.71L1464.81 90H1462.63L1463.36 86.7627ZM1457.49 68.6719L1463.71 86.7627L1464.49 90H1462.31L1454.42 68.6719H1457.49ZM1480.25 79.8193V82.0459H1473.1V79.8193H1480.25ZM1499.72 68.6719V90H1496.88L1486.14 73.5498V90H1483.31V68.6719H1486.14L1496.92 85.166V68.6719H1499.72ZM1518.28 87.7002V90H1506.98V87.7002H1518.28ZM1507.55 68.6719V90H1504.73V68.6719H1507.55ZM1516.78 77.8418V80.1416H1506.98V77.8418H1516.78ZM1518.13 68.6719V70.9863H1506.98V68.6719H1518.13ZM1534.65 83.2178H1537.47C1537.32 84.5654 1536.93 85.7715 1536.31 86.8359C1535.68 87.9004 1534.8 88.7451 1533.66 89.3701C1532.52 89.9854 1531.09 90.293 1529.38 90.293C1528.13 90.293 1526.99 90.0586 1525.97 89.5898C1524.95 89.1211 1524.08 88.457 1523.35 87.5977C1522.61 86.7285 1522.05 85.6885 1521.65 84.4775C1521.26 83.2568 1521.06 81.8994 1521.06 80.4053V78.2812C1521.06 76.7871 1521.26 75.4346 1521.65 74.2236C1522.05 73.0029 1522.62 71.958 1523.36 71.0889C1524.11 70.2197 1525.02 69.5508 1526.07 69.082C1527.12 68.6133 1528.31 68.3789 1529.63 68.3789C1531.24 68.3789 1532.6 68.6816 1533.72 69.2871C1534.83 69.8926 1535.69 70.7324 1536.31 71.8066C1536.93 72.8711 1537.32 74.1064 1537.47 75.5127H1534.65C1534.52 74.5166 1534.26 73.6621 1533.89 72.9492C1533.52 72.2266 1532.99 71.6699 1532.31 71.2793C1531.63 70.8887 1530.73 70.6934 1529.63 70.6934C1528.68 70.6934 1527.85 70.874 1527.12 71.2354C1526.41 71.5967 1525.81 72.1094 1525.32 72.7734C1524.84 73.4375 1524.48 74.2334 1524.24 75.1611C1524 76.0889 1523.87 77.1191 1523.87 78.252V80.4053C1523.87 81.4502 1523.98 82.4316 1524.2 83.3496C1524.42 84.2676 1524.76 85.0732 1525.21 85.7666C1525.66 86.46 1526.23 87.0068 1526.92 87.4072C1527.61 87.7979 1528.43 87.9932 1529.38 87.9932C1530.58 87.9932 1531.54 87.8027 1532.25 87.4219C1532.96 87.041 1533.5 86.4941 1533.86 85.7812C1534.23 85.0684 1534.5 84.2139 1534.65 83.2178ZM1544.15 68.6719V90H1541.32V68.6719H1544.15ZM1557.02 68.6719L1548.16 78.6182L1543.18 83.7891L1542.71 80.7715L1546.46 76.6406L1553.62 68.6719H1557.02ZM1554.3 90L1546.4 79.5996L1548.09 77.3584L1557.67 90H1554.3ZM1578.97 84.6094C1578.97 84.1113 1578.89 83.6719 1578.73 83.291C1578.58 82.9004 1578.32 82.5488 1577.94 82.2363C1577.57 81.9238 1577.05 81.626 1576.39 81.3428C1575.73 81.0596 1574.9 80.7715 1573.9 80.4785C1572.84 80.166 1571.89 79.8193 1571.04 79.4385C1570.19 79.0479 1569.46 78.6035 1568.86 78.1055C1568.25 77.6074 1567.79 77.0361 1567.47 76.3916C1567.14 75.7471 1566.98 75.0098 1566.98 74.1797C1566.98 73.3496 1567.15 72.583 1567.5 71.8799C1567.84 71.1768 1568.33 70.5664 1568.96 70.0488C1569.61 69.5215 1570.37 69.1113 1571.26 68.8184C1572.15 68.5254 1573.14 68.3789 1574.23 68.3789C1575.84 68.3789 1577.19 68.6865 1578.31 69.3018C1579.43 69.9072 1580.28 70.7031 1580.87 71.6895C1581.46 72.666 1581.75 73.7109 1581.75 74.8242H1578.94C1578.94 74.0234 1578.77 73.3154 1578.42 72.7002C1578.08 72.0752 1577.56 71.5869 1576.87 71.2354C1576.18 70.874 1575.3 70.6934 1574.23 70.6934C1573.23 70.6934 1572.4 70.8447 1571.74 71.1475C1571.09 71.4502 1570.6 71.8604 1570.28 72.3779C1569.97 72.8955 1569.81 73.4863 1569.81 74.1504C1569.81 74.5996 1569.9 75.0098 1570.09 75.3809C1570.28 75.7422 1570.58 76.0791 1570.98 76.3916C1571.39 76.7041 1571.91 76.9922 1572.54 77.2559C1573.17 77.5195 1573.93 77.7734 1574.81 78.0176C1576.02 78.3594 1577.06 78.7402 1577.94 79.1602C1578.82 79.5801 1579.54 80.0537 1580.11 80.5811C1580.68 81.0986 1581.11 81.6895 1581.38 82.3535C1581.67 83.0078 1581.81 83.75 1581.81 84.5801C1581.81 85.4492 1581.63 86.2354 1581.28 86.9385C1580.93 87.6416 1580.43 88.2422 1579.77 88.7402C1579.12 89.2383 1578.33 89.624 1577.41 89.8975C1576.5 90.1611 1575.49 90.293 1574.37 90.293C1573.38 90.293 1572.41 90.1562 1571.45 89.8828C1570.5 89.6094 1569.64 89.1992 1568.86 88.6523C1568.09 88.1055 1567.47 87.4316 1567 86.6309C1566.54 85.8203 1566.31 84.8828 1566.31 83.8184H1569.12C1569.12 84.5508 1569.26 85.1807 1569.55 85.708C1569.83 86.2256 1570.22 86.6553 1570.7 86.9971C1571.2 87.3389 1571.76 87.5928 1572.39 87.7588C1573.02 87.915 1573.68 87.9932 1574.37 87.9932C1575.35 87.9932 1576.19 87.8564 1576.87 87.583C1577.55 87.3096 1578.07 86.9189 1578.42 86.4111C1578.79 85.9033 1578.97 85.3027 1578.97 84.6094ZM1599.34 77.8418V80.1416H1587.8V77.8418H1599.34ZM1588.24 68.6719V90H1585.41V68.6719H1588.24ZM1601.8 68.6719V90H1598.99V68.6719H1601.8ZM1609.86 68.6719V90H1607.03V68.6719H1609.86ZM1615 68.6719H1622.06C1623.66 68.6719 1625.02 68.916 1626.12 69.4043C1627.23 69.8926 1628.08 70.6152 1628.65 71.5723C1629.24 72.5195 1629.53 73.6865 1629.53 75.0732C1629.53 76.0498 1629.33 76.9434 1628.93 77.7539C1628.54 78.5547 1627.97 79.2383 1627.23 79.8047C1626.5 80.3613 1625.62 80.7764 1624.6 81.0498L1623.8 81.3574H1617.17L1617.14 79.0576H1622.15C1623.17 79.0576 1624.01 78.8818 1624.68 78.5303C1625.36 78.1689 1625.87 77.6855 1626.21 77.0801C1626.55 76.4746 1626.72 75.8057 1626.72 75.0732C1626.72 74.2529 1626.56 73.5352 1626.24 72.9199C1625.91 72.3047 1625.41 71.8311 1624.71 71.499C1624.03 71.1572 1623.15 70.9863 1622.06 70.9863H1617.83V90H1615V68.6719ZM1627.47 90L1622.28 80.332L1625.23 80.3174L1630.48 89.8242V90H1627.47ZM1640.2 68.6719V90H1637.41V68.6719H1640.2ZM1647.05 68.6719V70.9863H1630.57V68.6719H1647.05Z" fill="#333333"/>
<g clip-path="url(#clip5_71_2674)">
<mask id="mask5_71_2674" style="mask-type:luminance" maskUnits="userSpaceOnUse" x="1664" y="50" width="60" height="60">
<path d="M1724 50H1664V110H1724V50Z" fill="white"/>
</mask>
<g mask="url(#mask5_71_2674)">
<path d="M1694 50L1694.8 72.3919L1700.24 50.6556L1696.36 72.7244L1706.2 52.5936L1697.82 73.3749L1711.63 55.7295L1699.12 74.3149L1716.29 59.9261L1700.19 75.5035L1719.98 65L1700.99 76.8885L1722.53 70.7295L1701.48 78.4095L1723.84 76.8641L1701.65 80L1723.84 83.1359L1701.48 81.5906L1722.53 89.2706L1700.99 83.1116L1719.98 95L1700.19 84.4967L1716.29 100.074L1699.12 85.685L1711.63 104.271L1697.82 86.6252L1706.2 107.407L1696.36 87.2756L1700.24 109.345L1694.8 87.608L1694 110L1693.2 87.608L1687.76 109.345L1691.64 87.2756L1681.8 107.407L1690.17 86.6252L1676.37 104.271L1688.88 85.685L1671.71 100.074L1687.81 84.4967L1668.02 95L1687.01 83.1116L1665.47 89.2706L1686.52 81.5906L1664.16 83.1359L1686.35 80L1664.16 76.8641L1686.52 78.4095L1665.47 70.7295L1687.01 76.8885L1668.02 65L1687.81 75.5035L1671.71 59.9261L1688.88 74.3149L1676.37 55.7295L1690.17 73.3749L1681.8 52.5936L1691.64 72.7244L1687.76 50.6556L1693.2 72.3919L1694 50Z" fill="#AE9B84"/>
</g>
</g>
<path d="M1743.37 68.6719H1746.11L1753.1 86.0596L1760.07 68.6719H1762.82L1754.15 90H1752.01L1743.37 68.6719ZM1742.48 68.6719H1744.89L1745.29 81.6797V90H1742.48V68.6719ZM1761.28 68.6719H1763.7V90H1760.89V81.6797L1761.28 68.6719ZM1780.87 68.6719H1783.68V83.1006C1783.68 84.7021 1783.33 86.0352 1782.61 87.0996C1781.9 88.1641 1780.95 88.9648 1779.77 89.502C1778.6 90.0293 1777.32 90.293 1775.95 90.293C1774.5 90.293 1773.19 90.0293 1772.02 89.502C1770.86 88.9648 1769.94 88.1641 1769.25 87.0996C1768.58 86.0352 1768.24 84.7021 1768.24 83.1006V68.6719H1771.04V83.1006C1771.04 84.2139 1771.25 85.1318 1771.66 85.8545C1772.07 86.5771 1772.64 87.1143 1773.37 87.4658C1774.11 87.8174 1774.97 87.9932 1775.95 87.9932C1776.93 87.9932 1777.79 87.8174 1778.53 87.4658C1779.27 87.1143 1779.84 86.5771 1780.25 85.8545C1780.66 85.1318 1780.87 84.2139 1780.87 83.1006V68.6719ZM1799.49 84.6094C1799.49 84.1113 1799.41 83.6719 1799.25 83.291C1799.11 82.9004 1798.84 82.5488 1798.46 82.2363C1798.09 81.9238 1797.57 81.626 1796.91 81.3428C1796.25 81.0596 1795.42 80.7715 1794.42 80.4785C1793.36 80.166 1792.41 79.8193 1791.56 79.4385C1790.71 79.0479 1789.99 78.6035 1789.38 78.1055C1788.77 77.6074 1788.31 77.0361 1787.99 76.3916C1787.67 75.7471 1787.5 75.0098 1787.5 74.1797C1787.5 73.3496 1787.68 72.583 1788.02 71.8799C1788.36 71.1768 1788.85 70.5664 1789.48 70.0488C1790.13 69.5215 1790.89 69.1113 1791.78 68.8184C1792.67 68.5254 1793.66 68.3789 1794.76 68.3789C1796.36 68.3789 1797.71 68.6865 1798.83 69.3018C1799.95 69.9072 1800.81 70.7031 1801.39 71.6895C1801.98 72.666 1802.27 73.7109 1802.27 74.8242H1799.46C1799.46 74.0234 1799.29 73.3154 1798.95 72.7002C1798.6 72.0752 1798.09 71.5869 1797.39 71.2354C1796.7 70.874 1795.82 70.6934 1794.76 70.6934C1793.75 70.6934 1792.92 70.8447 1792.27 71.1475C1791.61 71.4502 1791.12 71.8604 1790.8 72.3779C1790.49 72.8955 1790.33 73.4863 1790.33 74.1504C1790.33 74.5996 1790.42 75.0098 1790.61 75.3809C1790.81 75.7422 1791.1 76.0791 1791.5 76.3916C1791.91 76.7041 1792.43 76.9922 1793.06 77.2559C1793.69 77.5195 1794.45 77.7734 1795.33 78.0176C1796.54 78.3594 1797.58 78.7402 1798.46 79.1602C1799.34 79.5801 1800.06 80.0537 1800.63 80.5811C1801.21 81.0986 1801.63 81.6895 1801.9 82.3535C1802.19 83.0078 1802.33 83.75 1802.33 84.5801C1802.33 85.4492 1802.15 86.2354 1801.8 86.9385C1801.45 87.6416 1800.95 88.2422 1800.29 88.7402C1799.64 89.2383 1798.85 89.624 1797.93 89.8975C1797.03 90.1611 1796.01 90.293 1794.89 90.293C1793.9 90.293 1792.93 90.1562 1791.97 89.8828C1791.03 89.6094 1790.16 89.1992 1789.38 88.6523C1788.61 88.1055 1787.99 87.4316 1787.52 86.6309C1787.06 85.8203 1786.83 84.8828 1786.83 83.8184H1789.64C1789.64 84.5508 1789.79 85.1807 1790.07 85.708C1790.35 86.2256 1790.74 86.6553 1791.23 86.9971C1791.72 87.3389 1792.29 87.5928 1792.91 87.7588C1793.54 87.915 1794.2 87.9932 1794.89 87.9932C1795.87 87.9932 1796.71 87.8564 1797.39 87.583C1798.08 87.3096 1798.59 86.9189 1798.95 86.4111C1799.31 85.9033 1799.49 85.3027 1799.49 84.6094ZM1818.81 83.2178H1821.62C1821.47 84.5654 1821.09 85.7715 1820.46 86.8359C1819.84 87.9004 1818.96 88.7451 1817.81 89.3701C1816.67 89.9854 1815.24 90.293 1813.54 90.293C1812.29 90.293 1811.15 90.0586 1810.12 89.5898C1809.11 89.1211 1808.23 88.457 1807.5 87.5977C1806.77 86.7285 1806.2 85.6885 1805.8 84.4775C1805.41 83.2568 1805.21 81.8994 1805.21 80.4053V78.2812C1805.21 76.7871 1805.41 75.4346 1805.8 74.2236C1806.2 73.0029 1806.77 71.958 1807.51 71.0889C1808.27 70.2197 1809.17 69.5508 1810.22 69.082C1811.28 68.6133 1812.47 68.3789 1813.78 68.3789C1815.4 68.3789 1816.76 68.6816 1817.87 69.2871C1818.98 69.8926 1819.85 70.7324 1820.46 71.8066C1821.09 72.8711 1821.47 74.1064 1821.62 75.5127H1818.81C1818.67 74.5166 1818.42 73.6621 1818.05 72.9492C1817.68 72.2266 1817.15 71.6699 1816.46 71.2793C1815.78 70.8887 1814.89 70.6934 1813.78 70.6934C1812.84 70.6934 1812 70.874 1811.28 71.2354C1810.57 71.5967 1809.97 72.1094 1809.48 72.7734C1809 73.4375 1808.64 74.2334 1808.39 75.1611C1808.15 76.0889 1808.03 77.1191 1808.03 78.252V80.4053C1808.03 81.4502 1808.13 82.4316 1808.35 83.3496C1808.57 84.2676 1808.91 85.0732 1809.36 85.7666C1809.81 86.46 1810.38 87.0068 1811.07 87.4072C1811.77 87.7979 1812.59 87.9932 1813.54 87.9932C1814.74 87.9932 1815.69 87.8027 1816.41 87.4219C1817.12 87.041 1817.66 86.4941 1818.02 85.7812C1818.39 85.0684 1818.65 84.2139 1818.81 83.2178ZM1838.41 87.7002V90H1827.74V87.7002H1838.41ZM1828.3 68.6719V90H1825.47V68.6719H1828.3ZM1855.2 87.7002V90H1843.9V87.7002H1855.2ZM1844.47 68.6719V90H1841.65V68.6719H1844.47ZM1853.7 77.8418V80.1416H1843.9V77.8418H1853.7ZM1855.05 68.6719V70.9863H1843.9V68.6719H1855.05ZM1877.5 84.6094C1877.5 84.1113 1877.43 83.6719 1877.27 83.291C1877.12 82.9004 1876.86 82.5488 1876.48 82.2363C1876.11 81.9238 1875.59 81.626 1874.93 81.3428C1874.27 81.0596 1873.44 80.7715 1872.44 80.4785C1871.38 80.166 1870.43 79.8193 1869.58 79.4385C1868.73 79.0479 1868 78.6035 1867.4 78.1055C1866.79 77.6074 1866.33 77.0361 1866.01 76.3916C1865.68 75.7471 1865.52 75.0098 1865.52 74.1797C1865.52 73.3496 1865.69 72.583 1866.04 71.8799C1866.38 71.1768 1866.87 70.5664 1867.5 70.0488C1868.14 69.5215 1868.91 69.1113 1869.8 68.8184C1870.69 68.5254 1871.68 68.3789 1872.77 68.3789C1874.38 68.3789 1875.73 68.6865 1876.85 69.3018C1877.97 69.9072 1878.82 70.7031 1879.41 71.6895C1880 72.666 1880.29 73.7109 1880.29 74.8242H1877.48C1877.48 74.0234 1877.3 73.3154 1876.96 72.7002C1876.62 72.0752 1876.1 71.5869 1875.41 71.2354C1874.72 70.874 1873.84 70.6934 1872.77 70.6934C1871.77 70.6934 1870.94 70.8447 1870.28 71.1475C1869.63 71.4502 1869.14 71.8604 1868.82 72.3779C1868.51 72.8955 1868.35 73.4863 1868.35 74.1504C1868.35 74.5996 1868.44 75.0098 1868.63 75.3809C1868.82 75.7422 1869.12 76.0791 1869.52 76.3916C1869.93 76.7041 1870.45 76.9922 1871.07 77.2559C1871.71 77.5195 1872.47 77.7734 1873.34 78.0176C1874.56 78.3594 1875.6 78.7402 1876.48 79.1602C1877.36 79.5801 1878.08 80.0537 1878.65 80.5811C1879.22 81.0986 1879.65 81.6895 1879.92 82.3535C1880.21 83.0078 1880.35 83.75 1880.35 84.5801C1880.35 85.4492 1880.17 86.2354 1879.82 86.9385C1879.47 87.6416 1878.96 88.2422 1878.31 88.7402C1877.66 89.2383 1876.87 89.624 1875.95 89.8975C1875.04 90.1611 1874.03 90.293 1872.91 90.293C1871.92 90.293 1870.95 90.1562 1869.99 89.8828C1869.04 89.6094 1868.18 89.1992 1867.4 88.6523C1866.63 88.1055 1866.01 87.4316 1865.54 86.6309C1865.08 85.8203 1864.85 84.8828 1864.85 83.8184H1867.66C1867.66 84.5508 1867.8 85.1807 1868.09 85.708C1868.37 86.2256 1868.75 86.6553 1869.24 86.9971C1869.74 87.3389 1870.3 87.5928 1870.93 87.7588C1871.56 87.915 1872.22 87.9932 1872.91 87.9932C1873.89 87.9932 1874.73 87.8564 1875.41 87.583C1876.09 87.3096 1876.61 86.9189 1876.96 86.4111C1877.32 85.9033 1877.5 85.3027 1877.5 84.6094ZM1897.88 77.8418V80.1416H1886.34V77.8418H1897.88ZM1886.78 68.6719V90H1883.95V68.6719H1886.78ZM1900.34 68.6719V90H1897.53V68.6719H1900.34ZM1908.4 68.6719V90H1905.57V68.6719H1908.4ZM1913.54 68.6719H1920.6C1922.2 68.6719 1923.55 68.916 1924.66 69.4043C1925.77 69.8926 1926.62 70.6152 1927.19 71.5723C1927.78 72.5195 1928.07 73.6865 1928.07 75.0732C1928.07 76.0498 1927.87 76.9434 1927.47 77.7539C1927.08 78.5547 1926.51 79.2383 1925.77 79.8047C1925.04 80.3613 1924.16 80.7764 1923.13 81.0498L1922.34 81.3574H1915.71L1915.68 79.0576H1920.69C1921.7 79.0576 1922.55 78.8818 1923.22 78.5303C1923.9 78.1689 1924.4 77.6855 1924.75 77.0801C1925.09 76.4746 1925.26 75.8057 1925.26 75.0732C1925.26 74.2529 1925.1 73.5352 1924.78 72.9199C1924.45 72.3047 1923.95 71.8311 1923.25 71.499C1922.57 71.1572 1921.68 70.9863 1920.6 70.9863H1916.37V90H1913.54V68.6719ZM1926.01 90L1920.82 80.332L1923.76 80.3174L1929.02 89.8242V90H1926.01ZM1938.74 68.6719V90H1935.95V68.6719H1938.74ZM1945.59 68.6719V70.9863H1929.11V68.6719H1945.59Z" fill="#333333"/>
<defs>
<clipPath id="clip0_71_2674">
<rect width="60" height="60" fill="white" transform="translate(158 50)"/>
</clipPath>
<clipPath id="clip1_71_2674">
<rect width="60" height="60" fill="white" transform="translate(356 50)"/>
</clipPath>
<clipPath id="clip2_71_2674">
<rect width="60" height="60" fill="white" transform="translate(734 50)"/>
</clipPath>
<clipPath id="clip3_71_2674">
<rect width="60" height="60" fill="white" transform="translate(1144 50)"/>
</clipPath>
<clipPath id="clip4_71_2674">
<rect width="60" height="60" fill="white" transform="translate(1378 50)"/>
</clipPath>
<clipPath id="clip5_71_2674">
<rect width="60" height="60" fill="white" transform="translate(1664 50)"/>
</clipPath>
</defs>
</svg>
