<svg width="401" height="249" viewBox="0 0 401 249" fill="none" xmlns="http://www.w3.org/2000/svg">
<mask id="path-1-outside-1_144_2424" maskUnits="userSpaceOnUse" x="0" y="0" width="401" height="249" fill="black">
<rect fill="white" width="401" height="249"/>
<path d="M0 0H399V249H0V0Z"/>
</mask>
<path d="M400 249V240.769H398V249H400ZM400 234.595V218.132H398V234.595H400ZM400 211.959V195.496H398V211.959H400ZM400 189.322V172.859H398V189.322H400ZM400 166.686V150.223H398V166.686H400ZM400 144.05V127.587H398V144.05H400ZM400 121.413V104.95H398V121.413H400ZM400 98.7768V82.314H398V98.7768H400ZM400 76.1405V59.6777H398V76.1405H400ZM400 53.5041V37.0413H398V53.5041H400ZM400 30.8677V14.4049H398V30.8677H400ZM400 8.23137V0H398V8.23137H400ZM401 249V240.769H397V249H401ZM401 234.595V218.132H397V234.595H401ZM401 211.959V195.496H397V211.959H401ZM401 189.322V172.859H397V189.322H401ZM401 166.686V150.223H397V166.686H401ZM401 144.05V127.587H397V144.05H401ZM401 121.413V104.95H397V121.413H401ZM401 98.7768V82.314H397V98.7768H401ZM401 76.1405V59.6777H397V76.1405H401ZM401 53.5041V37.0413H397V53.5041H401ZM401 30.8677V14.4049H397V30.8677H401ZM401 8.23137V0H397V8.23137H401Z" fill="#262626" mask="url(#path-1-outside-1_144_2424)"/>
<path d="M68.75 120.331V156H62.8662V127.313L54.1504 130.268V125.409L68.042 120.331H68.75ZM86.9629 150.336L86.9385 154.535C86.9385 156.195 86.5234 157.904 85.6934 159.662C84.8633 161.42 83.7646 162.868 82.3975 164.008L79.248 162.177C79.7038 161.444 80.1188 160.704 80.4932 159.955C80.8675 159.206 81.1686 158.409 81.3965 157.562C81.6243 156.716 81.7383 155.78 81.7383 154.755V150.336H86.9629ZM98.4619 139.472L93.7744 138.324L95.7031 120.453H114.868V125.434H100.586L99.6094 134.149C100.163 133.824 100.928 133.507 101.904 133.197C102.881 132.872 103.996 132.709 105.249 132.709C106.925 132.709 108.423 132.986 109.741 133.539C111.076 134.076 112.207 134.866 113.135 135.907C114.062 136.933 114.771 138.186 115.259 139.667C115.747 141.132 115.991 142.784 115.991 144.623C115.991 146.267 115.747 147.805 115.259 149.237C114.787 150.67 114.071 151.931 113.11 153.021C112.15 154.112 110.938 154.966 109.473 155.585C108.024 156.187 106.307 156.488 104.321 156.488C102.84 156.488 101.416 156.277 100.049 155.854C98.6979 155.414 97.4854 154.771 96.4111 153.925C95.3369 153.062 94.4743 152.004 93.8232 150.751C93.1722 149.481 92.7979 148.025 92.7002 146.381H98.4619C98.6084 147.536 98.9258 148.521 99.4141 149.335C99.9186 150.132 100.586 150.743 101.416 151.166C102.246 151.589 103.206 151.801 104.297 151.801C105.29 151.801 106.144 151.63 106.86 151.288C107.576 150.93 108.171 150.425 108.643 149.774C109.131 149.107 109.489 148.326 109.717 147.431C109.961 146.535 110.083 145.543 110.083 144.452C110.083 143.41 109.945 142.458 109.668 141.596C109.408 140.733 109.009 139.984 108.472 139.35C107.951 138.715 107.292 138.227 106.494 137.885C105.697 137.527 104.777 137.348 103.735 137.348C102.336 137.348 101.261 137.551 100.513 137.958C99.7803 138.365 99.0967 138.869 98.4619 139.472ZM143.872 135.248V141.059C143.872 143.842 143.595 146.218 143.042 148.188C142.505 150.141 141.724 151.728 140.698 152.948C139.673 154.169 138.444 155.064 137.012 155.634C135.596 156.203 134.009 156.488 132.251 156.488C130.851 156.488 129.549 156.309 128.345 155.951C127.157 155.593 126.082 155.032 125.122 154.267C124.162 153.502 123.34 152.517 122.656 151.312C121.989 150.092 121.468 148.635 121.094 146.942C120.736 145.25 120.557 143.288 120.557 141.059V135.248C120.557 132.449 120.833 130.089 121.387 128.168C121.94 126.231 122.729 124.66 123.755 123.456C124.78 122.235 126.001 121.348 127.417 120.795C128.849 120.242 130.444 119.965 132.202 119.965C133.618 119.965 134.92 120.144 136.108 120.502C137.313 120.844 138.387 121.389 139.331 122.138C140.291 122.886 141.105 123.863 141.772 125.067C142.456 126.256 142.977 127.696 143.335 129.389C143.693 131.065 143.872 133.018 143.872 135.248ZM137.988 141.889V134.369C137.988 132.953 137.907 131.708 137.744 130.634C137.581 129.543 137.337 128.624 137.012 127.875C136.702 127.11 136.312 126.492 135.84 126.02C135.368 125.531 134.831 125.181 134.229 124.97C133.626 124.742 132.951 124.628 132.202 124.628C131.291 124.628 130.477 124.807 129.761 125.165C129.045 125.507 128.442 126.06 127.954 126.825C127.466 127.59 127.091 128.599 126.831 129.853C126.587 131.09 126.465 132.595 126.465 134.369V141.889C126.465 143.321 126.546 144.582 126.709 145.673C126.872 146.763 127.116 147.699 127.441 148.48C127.767 149.245 128.158 149.88 128.613 150.385C129.085 150.873 129.622 151.231 130.225 151.459C130.843 151.687 131.519 151.801 132.251 151.801C133.179 151.801 134.001 151.622 134.717 151.264C135.433 150.906 136.035 150.336 136.523 149.555C137.012 148.757 137.378 147.724 137.622 146.454C137.866 145.185 137.988 143.663 137.988 141.889ZM172.29 135.248V141.059C172.29 143.842 172.013 146.218 171.46 148.188C170.923 150.141 170.142 151.728 169.116 152.948C168.091 154.169 166.862 155.064 165.43 155.634C164.014 156.203 162.427 156.488 160.669 156.488C159.269 156.488 157.967 156.309 156.763 155.951C155.575 155.593 154.5 155.032 153.54 154.267C152.58 153.502 151.758 152.517 151.074 151.312C150.407 150.092 149.886 148.635 149.512 146.942C149.154 145.25 148.975 143.288 148.975 141.059V135.248C148.975 132.449 149.251 130.089 149.805 128.168C150.358 126.231 151.147 124.66 152.173 123.456C153.198 122.235 154.419 121.348 155.835 120.795C157.267 120.242 158.862 119.965 160.62 119.965C162.036 119.965 163.338 120.144 164.526 120.502C165.731 120.844 166.805 121.389 167.749 122.138C168.709 122.886 169.523 123.863 170.19 125.067C170.874 126.256 171.395 127.696 171.753 129.389C172.111 131.065 172.29 133.018 172.29 135.248ZM166.406 141.889V134.369C166.406 132.953 166.325 131.708 166.162 130.634C165.999 129.543 165.755 128.624 165.43 127.875C165.12 127.11 164.73 126.492 164.258 126.02C163.786 125.531 163.249 125.181 162.646 124.97C162.044 124.742 161.369 124.628 160.62 124.628C159.709 124.628 158.895 124.807 158.179 125.165C157.463 125.507 156.86 126.06 156.372 126.825C155.884 127.59 155.509 128.599 155.249 129.853C155.005 131.09 154.883 132.595 154.883 134.369V141.889C154.883 143.321 154.964 144.582 155.127 145.673C155.29 146.763 155.534 147.699 155.859 148.48C156.185 149.245 156.576 149.88 157.031 150.385C157.503 150.873 158.04 151.231 158.643 151.459C159.261 151.687 159.937 151.801 160.669 151.801C161.597 151.801 162.419 151.622 163.135 151.264C163.851 150.906 164.453 150.336 164.941 149.555C165.43 148.757 165.796 147.724 166.04 146.454C166.284 145.185 166.406 143.663 166.406 141.889ZM213.281 136.518V141.815H188.916V136.518H213.281ZM203.955 126.557V152.436H198.267V126.557H203.955Z" fill="white"/>
<path d="M53.1816 179.203V192H51.4854V179.203H53.1816ZM58.543 184.96V186.349H52.8125V184.96H58.543ZM59.4131 179.203V180.592H52.8125V179.203H59.4131ZM66.4971 190.374V185.479C66.4971 185.104 66.4209 184.778 66.2686 184.503C66.1221 184.222 65.8994 184.005 65.6006 183.853C65.3018 183.7 64.9326 183.624 64.4932 183.624C64.083 183.624 63.7227 183.694 63.4121 183.835C63.1074 183.976 62.8672 184.16 62.6914 184.389C62.5215 184.617 62.4365 184.863 62.4365 185.127H60.8105C60.8105 184.787 60.8984 184.45 61.0742 184.116C61.25 183.782 61.502 183.48 61.8301 183.211C62.1641 182.936 62.5625 182.719 63.0254 182.561C63.4941 182.396 64.0156 182.314 64.5898 182.314C65.2812 182.314 65.8906 182.432 66.418 182.666C66.9512 182.9 67.3672 183.255 67.666 183.729C67.9707 184.198 68.123 184.787 68.123 185.496V189.926C68.123 190.242 68.1494 190.579 68.2021 190.937C68.2607 191.294 68.3457 191.602 68.457 191.859V192H66.7607C66.6787 191.812 66.6143 191.563 66.5674 191.253C66.5205 190.937 66.4971 190.644 66.4971 190.374ZM66.7783 186.234L66.7959 187.377H65.1523C64.6895 187.377 64.2764 187.415 63.9131 187.491C63.5498 187.562 63.2451 187.67 62.999 187.816C62.7529 187.963 62.5654 188.147 62.4365 188.37C62.3076 188.587 62.2432 188.842 62.2432 189.135C62.2432 189.434 62.3105 189.706 62.4453 189.952C62.5801 190.198 62.7822 190.395 63.0518 190.541C63.3271 190.682 63.6641 190.752 64.0625 190.752C64.5605 190.752 65 190.646 65.3809 190.436C65.7617 190.225 66.0635 189.967 66.2861 189.662C66.5146 189.357 66.6377 189.062 66.6553 188.774L67.3496 189.557C67.3086 189.803 67.1973 190.075 67.0156 190.374C66.834 190.673 66.5908 190.96 66.2861 191.235C65.9873 191.505 65.6299 191.73 65.2139 191.912C64.8037 192.088 64.3408 192.176 63.8252 192.176C63.1807 192.176 62.6152 192.05 62.1289 191.798C61.6484 191.546 61.2734 191.209 61.0039 190.787C60.7402 190.359 60.6084 189.882 60.6084 189.354C60.6084 188.845 60.708 188.396 60.9072 188.01C61.1064 187.617 61.3936 187.292 61.7686 187.034C62.1436 186.771 62.5947 186.571 63.1221 186.437C63.6494 186.302 64.2383 186.234 64.8887 186.234H66.7783ZM76.2178 189.478C76.2178 189.243 76.165 189.026 76.0596 188.827C75.96 188.622 75.752 188.438 75.4355 188.273C75.125 188.104 74.6562 187.957 74.0293 187.834C73.502 187.723 73.0244 187.591 72.5967 187.438C72.1748 187.286 71.8145 187.102 71.5156 186.885C71.2227 186.668 70.9971 186.413 70.8389 186.12C70.6807 185.827 70.6016 185.484 70.6016 185.092C70.6016 184.717 70.6836 184.362 70.8477 184.028C71.0176 183.694 71.2549 183.398 71.5596 183.141C71.8701 182.883 72.2422 182.681 72.6758 182.534C73.1094 182.388 73.5928 182.314 74.126 182.314C74.8877 182.314 75.5381 182.449 76.0771 182.719C76.6162 182.988 77.0293 183.349 77.3164 183.8C77.6035 184.245 77.7471 184.74 77.7471 185.285H76.1211C76.1211 185.021 76.042 184.767 75.8838 184.521C75.7314 184.269 75.5059 184.061 75.207 183.896C74.9141 183.732 74.5537 183.65 74.126 183.65C73.6748 183.65 73.3086 183.721 73.0273 183.861C72.752 183.996 72.5498 184.169 72.4209 184.38C72.2979 184.591 72.2363 184.813 72.2363 185.048C72.2363 185.224 72.2656 185.382 72.3242 185.522C72.3887 185.657 72.5 185.783 72.6582 185.9C72.8164 186.012 73.0391 186.117 73.3262 186.217C73.6133 186.316 73.9795 186.416 74.4248 186.516C75.2041 186.691 75.8457 186.902 76.3496 187.148C76.8535 187.395 77.2285 187.696 77.4746 188.054C77.7207 188.411 77.8438 188.845 77.8438 189.354C77.8438 189.771 77.7559 190.151 77.5801 190.497C77.4102 190.843 77.1611 191.142 76.833 191.394C76.5107 191.64 76.124 191.833 75.6729 191.974C75.2275 192.108 74.7266 192.176 74.1699 192.176C73.332 192.176 72.623 192.026 72.043 191.728C71.4629 191.429 71.0234 191.042 70.7246 190.567C70.4258 190.093 70.2764 189.592 70.2764 189.064H71.9111C71.9346 189.51 72.0635 189.864 72.2979 190.128C72.5322 190.386 72.8193 190.57 73.1592 190.682C73.499 190.787 73.8359 190.84 74.1699 190.84C74.6152 190.84 74.9873 190.781 75.2861 190.664C75.5908 190.547 75.8223 190.386 75.9805 190.181C76.1387 189.976 76.2178 189.741 76.2178 189.478ZM81.6055 178.5V192H79.9795V178.5H81.6055ZM81.2188 186.885L80.542 186.858C80.5479 186.208 80.6445 185.607 80.832 185.057C81.0195 184.5 81.2832 184.017 81.623 183.606C81.9629 183.196 82.3672 182.88 82.8359 182.657C83.3105 182.429 83.835 182.314 84.4092 182.314C84.8779 182.314 85.2998 182.379 85.6748 182.508C86.0498 182.631 86.3691 182.83 86.6328 183.105C86.9023 183.381 87.1074 183.738 87.248 184.178C87.3887 184.611 87.459 185.142 87.459 185.769V192H85.8242V185.751C85.8242 185.253 85.751 184.854 85.6045 184.556C85.458 184.251 85.2441 184.031 84.9629 183.896C84.6816 183.756 84.3359 183.686 83.9258 183.686C83.5215 183.686 83.1523 183.771 82.8184 183.94C82.4902 184.11 82.2061 184.345 81.9658 184.644C81.7314 184.942 81.5469 185.285 81.4121 185.672C81.2832 186.053 81.2188 186.457 81.2188 186.885ZM91.6602 182.49V192H90.0254V182.49H91.6602ZM89.9023 179.968C89.9023 179.704 89.9814 179.481 90.1396 179.3C90.3037 179.118 90.5439 179.027 90.8604 179.027C91.1709 179.027 91.4082 179.118 91.5723 179.3C91.7422 179.481 91.8271 179.704 91.8271 179.968C91.8271 180.22 91.7422 180.437 91.5723 180.618C91.4082 180.794 91.1709 180.882 90.8604 180.882C90.5439 180.882 90.3037 180.794 90.1396 180.618C89.9814 180.437 89.9023 180.22 89.9023 179.968ZM93.8398 187.351V187.148C93.8398 186.463 93.9395 185.827 94.1387 185.241C94.3379 184.649 94.625 184.137 95 183.703C95.375 183.264 95.8291 182.924 96.3623 182.684C96.8955 182.438 97.4932 182.314 98.1553 182.314C98.8232 182.314 99.4238 182.438 99.957 182.684C100.496 182.924 100.953 183.264 101.328 183.703C101.709 184.137 101.999 184.649 102.198 185.241C102.397 185.827 102.497 186.463 102.497 187.148V187.351C102.497 188.036 102.397 188.672 102.198 189.258C101.999 189.844 101.709 190.356 101.328 190.796C100.953 191.229 100.499 191.569 99.9658 191.815C99.4385 192.056 98.8408 192.176 98.1729 192.176C97.5049 192.176 96.9043 192.056 96.3711 191.815C95.8379 191.569 95.3809 191.229 95 190.796C94.625 190.356 94.3379 189.844 94.1387 189.258C93.9395 188.672 93.8398 188.036 93.8398 187.351ZM95.4658 187.148V187.351C95.4658 187.825 95.5215 188.273 95.6328 188.695C95.7441 189.111 95.9111 189.48 96.1338 189.803C96.3623 190.125 96.6465 190.38 96.9863 190.567C97.3262 190.749 97.7217 190.84 98.1729 190.84C98.6182 190.84 99.0078 190.749 99.3418 190.567C99.6816 190.38 99.9629 190.125 100.186 189.803C100.408 189.48 100.575 189.111 100.687 188.695C100.804 188.273 100.862 187.825 100.862 187.351V187.148C100.862 186.68 100.804 186.237 100.687 185.821C100.575 185.399 100.405 185.027 100.177 184.705C99.9541 184.377 99.6729 184.119 99.333 183.932C98.999 183.744 98.6064 183.65 98.1553 183.65C97.71 183.65 97.3174 183.744 96.9775 183.932C96.6436 184.119 96.3623 184.377 96.1338 184.705C95.9111 185.027 95.7441 185.399 95.6328 185.821C95.5215 186.237 95.4658 186.68 95.4658 187.148ZM106.162 184.521V192H104.536V182.49H106.074L106.162 184.521ZM105.775 186.885L105.099 186.858C105.104 186.208 105.201 185.607 105.389 185.057C105.576 184.5 105.84 184.017 106.18 183.606C106.52 183.196 106.924 182.88 107.393 182.657C107.867 182.429 108.392 182.314 108.966 182.314C109.435 182.314 109.856 182.379 110.231 182.508C110.606 182.631 110.926 182.83 111.189 183.105C111.459 183.381 111.664 183.738 111.805 184.178C111.945 184.611 112.016 185.142 112.016 185.769V192H110.381V185.751C110.381 185.253 110.308 184.854 110.161 184.556C110.015 184.251 109.801 184.031 109.52 183.896C109.238 183.756 108.893 183.686 108.482 183.686C108.078 183.686 107.709 183.771 107.375 183.94C107.047 184.11 106.763 184.345 106.522 184.644C106.288 184.942 106.104 185.285 105.969 185.672C105.84 186.053 105.775 186.457 105.775 186.885ZM123.916 186.981H120.497V185.602H123.916C124.578 185.602 125.114 185.496 125.524 185.285C125.935 185.074 126.233 184.781 126.421 184.406C126.614 184.031 126.711 183.604 126.711 183.123C126.711 182.684 126.614 182.271 126.421 181.884C126.233 181.497 125.935 181.187 125.524 180.952C125.114 180.712 124.578 180.592 123.916 180.592H120.893V192H119.196V179.203H123.916C124.883 179.203 125.7 179.37 126.368 179.704C127.036 180.038 127.543 180.501 127.889 181.093C128.234 181.679 128.407 182.35 128.407 183.105C128.407 183.926 128.234 184.626 127.889 185.206C127.543 185.786 127.036 186.229 126.368 186.533C125.7 186.832 124.883 186.981 123.916 186.981ZM131.932 183.984V192H130.306V182.49H131.888L131.932 183.984ZM134.902 182.438L134.894 183.949C134.759 183.92 134.63 183.902 134.507 183.896C134.39 183.885 134.255 183.879 134.103 183.879C133.728 183.879 133.396 183.938 133.109 184.055C132.822 184.172 132.579 184.336 132.38 184.547C132.181 184.758 132.022 185.01 131.905 185.303C131.794 185.59 131.721 185.906 131.686 186.252L131.229 186.516C131.229 185.941 131.284 185.402 131.396 184.898C131.513 184.395 131.691 183.949 131.932 183.562C132.172 183.17 132.477 182.865 132.846 182.648C133.221 182.426 133.666 182.314 134.182 182.314C134.299 182.314 134.434 182.329 134.586 182.358C134.738 182.382 134.844 182.408 134.902 182.438ZM135.799 187.351V187.148C135.799 186.463 135.898 185.827 136.098 185.241C136.297 184.649 136.584 184.137 136.959 183.703C137.334 183.264 137.788 182.924 138.321 182.684C138.854 182.438 139.452 182.314 140.114 182.314C140.782 182.314 141.383 182.438 141.916 182.684C142.455 182.924 142.912 183.264 143.287 183.703C143.668 184.137 143.958 184.649 144.157 185.241C144.356 185.827 144.456 186.463 144.456 187.148V187.351C144.456 188.036 144.356 188.672 144.157 189.258C143.958 189.844 143.668 190.356 143.287 190.796C142.912 191.229 142.458 191.569 141.925 191.815C141.397 192.056 140.8 192.176 140.132 192.176C139.464 192.176 138.863 192.056 138.33 191.815C137.797 191.569 137.34 191.229 136.959 190.796C136.584 190.356 136.297 189.844 136.098 189.258C135.898 188.672 135.799 188.036 135.799 187.351ZM137.425 187.148V187.351C137.425 187.825 137.48 188.273 137.592 188.695C137.703 189.111 137.87 189.48 138.093 189.803C138.321 190.125 138.605 190.38 138.945 190.567C139.285 190.749 139.681 190.84 140.132 190.84C140.577 190.84 140.967 190.749 141.301 190.567C141.641 190.38 141.922 190.125 142.145 189.803C142.367 189.48 142.534 189.111 142.646 188.695C142.763 188.273 142.821 187.825 142.821 187.351V187.148C142.821 186.68 142.763 186.237 142.646 185.821C142.534 185.399 142.364 185.027 142.136 184.705C141.913 184.377 141.632 184.119 141.292 183.932C140.958 183.744 140.565 183.65 140.114 183.65C139.669 183.65 139.276 183.744 138.937 183.932C138.603 184.119 138.321 184.377 138.093 184.705C137.87 185.027 137.703 185.399 137.592 185.821C137.48 186.237 137.425 186.68 137.425 187.148ZM152.489 190.154V178.5H154.124V192H152.63L152.489 190.154ZM146.091 187.351V187.166C146.091 186.439 146.179 185.78 146.354 185.188C146.536 184.591 146.791 184.078 147.119 183.65C147.453 183.223 147.849 182.895 148.306 182.666C148.769 182.432 149.284 182.314 149.853 182.314C150.45 182.314 150.972 182.42 151.417 182.631C151.868 182.836 152.249 183.138 152.56 183.536C152.876 183.929 153.125 184.403 153.307 184.96C153.488 185.517 153.614 186.146 153.685 186.85V187.658C153.62 188.355 153.494 188.982 153.307 189.539C153.125 190.096 152.876 190.57 152.56 190.963C152.249 191.355 151.868 191.657 151.417 191.868C150.966 192.073 150.438 192.176 149.835 192.176C149.278 192.176 148.769 192.056 148.306 191.815C147.849 191.575 147.453 191.238 147.119 190.805C146.791 190.371 146.536 189.861 146.354 189.275C146.179 188.684 146.091 188.042 146.091 187.351ZM147.726 187.166V187.351C147.726 187.825 147.772 188.271 147.866 188.687C147.966 189.103 148.118 189.469 148.323 189.785C148.528 190.102 148.789 190.351 149.105 190.532C149.422 190.708 149.8 190.796 150.239 190.796C150.778 190.796 151.221 190.682 151.566 190.453C151.918 190.225 152.199 189.923 152.41 189.548C152.621 189.173 152.785 188.766 152.902 188.326V186.208C152.832 185.886 152.729 185.575 152.595 185.276C152.466 184.972 152.296 184.702 152.085 184.468C151.88 184.228 151.625 184.037 151.32 183.896C151.021 183.756 150.667 183.686 150.257 183.686C149.812 183.686 149.428 183.779 149.105 183.967C148.789 184.148 148.528 184.4 148.323 184.723C148.118 185.039 147.966 185.408 147.866 185.83C147.772 186.246 147.726 186.691 147.726 187.166ZM162.474 189.803V182.49H164.108V192H162.553L162.474 189.803ZM162.781 187.799L163.458 187.781C163.458 188.414 163.391 189 163.256 189.539C163.127 190.072 162.916 190.535 162.623 190.928C162.33 191.32 161.946 191.628 161.472 191.851C160.997 192.067 160.42 192.176 159.74 192.176C159.277 192.176 158.853 192.108 158.466 191.974C158.085 191.839 157.757 191.631 157.481 191.35C157.206 191.068 156.992 190.702 156.84 190.251C156.693 189.8 156.62 189.258 156.62 188.625V182.49H158.246V188.643C158.246 189.07 158.293 189.425 158.387 189.706C158.486 189.981 158.618 190.201 158.782 190.365C158.952 190.523 159.14 190.635 159.345 190.699C159.556 190.764 159.772 190.796 159.995 190.796C160.687 190.796 161.234 190.664 161.639 190.4C162.043 190.131 162.333 189.771 162.509 189.319C162.69 188.862 162.781 188.355 162.781 187.799ZM170.393 190.84C170.779 190.84 171.137 190.761 171.465 190.603C171.793 190.444 172.062 190.228 172.273 189.952C172.484 189.671 172.604 189.352 172.634 188.994H174.181C174.151 189.557 173.961 190.081 173.609 190.567C173.264 191.048 172.81 191.438 172.247 191.736C171.685 192.029 171.066 192.176 170.393 192.176C169.678 192.176 169.054 192.05 168.521 191.798C167.993 191.546 167.554 191.2 167.202 190.761C166.856 190.321 166.596 189.817 166.42 189.249C166.25 188.675 166.165 188.068 166.165 187.43V187.061C166.165 186.422 166.25 185.818 166.42 185.25C166.596 184.676 166.856 184.169 167.202 183.729C167.554 183.29 167.993 182.944 168.521 182.692C169.054 182.44 169.678 182.314 170.393 182.314C171.137 182.314 171.787 182.467 172.344 182.771C172.9 183.07 173.337 183.48 173.653 184.002C173.976 184.518 174.151 185.104 174.181 185.76H172.634C172.604 185.367 172.493 185.013 172.3 184.696C172.112 184.38 171.854 184.128 171.526 183.94C171.204 183.747 170.826 183.65 170.393 183.65C169.895 183.65 169.476 183.75 169.136 183.949C168.802 184.143 168.535 184.406 168.336 184.74C168.143 185.068 168.002 185.435 167.914 185.839C167.832 186.237 167.791 186.645 167.791 187.061V187.43C167.791 187.846 167.832 188.256 167.914 188.66C167.996 189.064 168.134 189.431 168.327 189.759C168.526 190.087 168.793 190.351 169.127 190.55C169.467 190.743 169.889 190.84 170.393 190.84ZM179.99 182.49V183.738H174.849V182.49H179.99ZM176.589 180.179H178.215V189.645C178.215 189.967 178.265 190.21 178.364 190.374C178.464 190.538 178.593 190.646 178.751 190.699C178.909 190.752 179.079 190.778 179.261 190.778C179.396 190.778 179.536 190.767 179.683 190.743C179.835 190.714 179.949 190.69 180.025 190.673L180.034 192C179.905 192.041 179.735 192.079 179.524 192.114C179.319 192.155 179.07 192.176 178.777 192.176C178.379 192.176 178.013 192.097 177.679 191.938C177.345 191.78 177.078 191.517 176.879 191.147C176.686 190.772 176.589 190.269 176.589 189.636V180.179ZM187.435 189.478C187.435 189.243 187.382 189.026 187.276 188.827C187.177 188.622 186.969 188.438 186.652 188.273C186.342 188.104 185.873 187.957 185.246 187.834C184.719 187.723 184.241 187.591 183.813 187.438C183.392 187.286 183.031 187.102 182.732 186.885C182.439 186.668 182.214 186.413 182.056 186.12C181.897 185.827 181.818 185.484 181.818 185.092C181.818 184.717 181.9 184.362 182.064 184.028C182.234 183.694 182.472 183.398 182.776 183.141C183.087 182.883 183.459 182.681 183.893 182.534C184.326 182.388 184.81 182.314 185.343 182.314C186.104 182.314 186.755 182.449 187.294 182.719C187.833 182.988 188.246 183.349 188.533 183.8C188.82 184.245 188.964 184.74 188.964 185.285H187.338C187.338 185.021 187.259 184.767 187.101 184.521C186.948 184.269 186.723 184.061 186.424 183.896C186.131 183.732 185.771 183.65 185.343 183.65C184.892 183.65 184.525 183.721 184.244 183.861C183.969 183.996 183.767 184.169 183.638 184.38C183.515 184.591 183.453 184.813 183.453 185.048C183.453 185.224 183.482 185.382 183.541 185.522C183.605 185.657 183.717 185.783 183.875 185.9C184.033 186.012 184.256 186.117 184.543 186.217C184.83 186.316 185.196 186.416 185.642 186.516C186.421 186.691 187.062 186.902 187.566 187.148C188.07 187.395 188.445 187.696 188.691 188.054C188.938 188.411 189.061 188.845 189.061 189.354C189.061 189.771 188.973 190.151 188.797 190.497C188.627 190.843 188.378 191.142 188.05 191.394C187.728 191.64 187.341 191.833 186.89 191.974C186.444 192.108 185.943 192.176 185.387 192.176C184.549 192.176 183.84 192.026 183.26 191.728C182.68 191.429 182.24 191.042 181.941 190.567C181.643 190.093 181.493 189.592 181.493 189.064H183.128C183.151 189.51 183.28 189.864 183.515 190.128C183.749 190.386 184.036 190.57 184.376 190.682C184.716 190.787 185.053 190.84 185.387 190.84C185.832 190.84 186.204 190.781 186.503 190.664C186.808 190.547 187.039 190.386 187.197 190.181C187.355 189.976 187.435 189.741 187.435 189.478Z" fill="#81807E"/>
</svg>
