<svg width="401" height="219" viewBox="0 0 401 219" fill="none" xmlns="http://www.w3.org/2000/svg">
<mask id="path-1-outside-1_144_2431" maskUnits="userSpaceOnUse" x="0" y="0" width="401" height="219" fill="black">
<rect fill="white" width="401" height="219"/>
<path d="M0 0H399V219H0V0Z"/>
</mask>
<path d="M400 219V211.036H398V219H400ZM400 205.064V189.136H398V205.064H400ZM400 183.164V167.236H398V183.164H400ZM400 161.264V145.336H398V161.264H400ZM400 139.364V123.436H398V139.364H400ZM400 117.464V101.536H398V117.464H400ZM400 95.5637V79.6364H398V95.5637H400ZM400 73.6636V57.7364H398V73.6636H400ZM400 51.7636V35.8364H398V51.7636H400ZM400 29.8636V13.9363H398V29.8636H400ZM400 7.96363V0H398V7.96363H400ZM401 219V211.036H397V219H401ZM401 205.064V189.136H397V205.064H401ZM401 183.164V167.236H397V183.164H401ZM401 161.264V145.336H397V161.264H401ZM401 139.364V123.436H397V139.364H401ZM401 117.464V101.536H397V117.464H401ZM401 95.5637V79.6364H397V95.5637H401ZM401 73.6636V57.7364H397V73.6636H401ZM401 51.7636V35.8364H397V51.7636H401ZM401 29.8636V13.9363H397V29.8636H401ZM401 7.96363V0H397V7.96363H401Z" fill="#262626" mask="url(#path-1-outside-1_144_2431)"/>
<path d="M59.5947 85.5654H63.1104C64.4775 85.5654 65.6087 85.3294 66.5039 84.8574C67.4154 84.3854 68.0908 83.7344 68.5303 82.9043C68.9697 82.0742 69.1895 81.1221 69.1895 80.0479C69.1895 78.9248 68.986 77.9645 68.5791 77.167C68.1885 76.3532 67.5863 75.7266 66.7725 75.2871C65.9749 74.8477 64.9577 74.6279 63.7207 74.6279C62.679 74.6279 61.735 74.8395 60.8887 75.2627C60.0586 75.6696 59.3994 76.2555 58.9111 77.0205C58.4229 77.7692 58.1787 78.6644 58.1787 79.7061H52.2705C52.2705 77.818 52.7669 76.1416 53.7598 74.6768C54.7526 73.2119 56.1035 72.0645 57.8125 71.2344C59.5378 70.388 61.4746 69.9648 63.623 69.9648C65.918 69.9648 67.9199 70.3473 69.6289 71.1123C71.3542 71.861 72.6969 72.984 73.6572 74.4814C74.6175 75.9788 75.0977 77.8343 75.0977 80.0479C75.0977 81.057 74.8617 82.0824 74.3896 83.124C73.9176 84.1657 73.2178 85.1178 72.29 85.9805C71.3623 86.8268 70.2067 87.5186 68.8232 88.0557C67.4398 88.5765 65.8366 88.8369 64.0137 88.8369H59.5947V85.5654ZM59.5947 90.1553V86.9326H64.0137C66.097 86.9326 67.8711 87.1768 69.3359 87.665C70.8171 88.1533 72.0215 88.8288 72.9492 89.6914C73.877 90.5378 74.5524 91.5062 74.9756 92.5967C75.415 93.6872 75.6348 94.8428 75.6348 96.0635C75.6348 97.7236 75.3337 99.2048 74.7314 100.507C74.1455 101.793 73.3073 102.883 72.2168 103.778C71.1263 104.674 69.8486 105.349 68.3838 105.805C66.9352 106.26 65.3564 106.488 63.6475 106.488C62.1175 106.488 60.6527 106.277 59.2529 105.854C57.8532 105.43 56.5999 104.804 55.4932 103.974C54.3864 103.127 53.5075 102.077 52.8564 100.824C52.2217 99.5547 51.9043 98.0898 51.9043 96.4297H57.7881C57.7881 97.4876 58.0322 98.4235 58.5205 99.2373C59.0251 100.035 59.7249 100.661 60.6201 101.117C61.5316 101.573 62.5732 101.801 63.7451 101.801C64.9821 101.801 66.0482 101.581 66.9434 101.142C67.8385 100.702 68.5221 100.051 68.9941 99.1885C69.4824 98.3258 69.7266 97.2842 69.7266 96.0635C69.7266 94.68 69.458 93.557 68.9209 92.6943C68.3838 91.8317 67.6188 91.1969 66.626 90.79C65.6331 90.3669 64.4613 90.1553 63.1104 90.1553H59.5947ZM104.272 85.248V91.0586C104.272 93.8418 103.996 96.2181 103.442 98.1875C102.905 100.141 102.124 101.728 101.099 102.948C100.073 104.169 98.8444 105.064 97.4121 105.634C95.9961 106.203 94.4092 106.488 92.6514 106.488C91.2516 106.488 89.9495 106.309 88.7451 105.951C87.557 105.593 86.4827 105.032 85.5225 104.267C84.5622 103.502 83.7402 102.517 83.0566 101.312C82.3893 100.092 81.8685 98.6351 81.4941 96.9424C81.1361 95.2497 80.957 93.2884 80.957 91.0586V85.248C80.957 82.4486 81.2337 80.0885 81.7871 78.168C82.3405 76.2311 83.1299 74.6605 84.1553 73.4561C85.1807 72.2354 86.4014 71.3483 87.8174 70.7949C89.2497 70.2415 90.8447 69.9648 92.6025 69.9648C94.0186 69.9648 95.3206 70.1439 96.5088 70.502C97.7132 70.8438 98.7874 71.389 99.7314 72.1377C100.692 72.8864 101.506 73.863 102.173 75.0674C102.856 76.2555 103.377 77.696 103.735 79.3887C104.093 81.0651 104.272 83.0182 104.272 85.248ZM98.3887 91.8887V84.3691C98.3887 82.9531 98.3073 81.708 98.1445 80.6338C97.9818 79.5433 97.7376 78.6237 97.4121 77.875C97.1029 77.11 96.7122 76.4915 96.2402 76.0195C95.7682 75.5312 95.2311 75.1813 94.6289 74.9697C94.0267 74.7419 93.3512 74.6279 92.6025 74.6279C91.6911 74.6279 90.8773 74.807 90.1611 75.165C89.445 75.5068 88.8428 76.0602 88.3545 76.8252C87.8662 77.5902 87.4919 78.5993 87.2314 79.8525C86.9873 81.0895 86.8652 82.5951 86.8652 84.3691V91.8887C86.8652 93.321 86.9466 94.5824 87.1094 95.6729C87.2721 96.7633 87.5163 97.6992 87.8418 98.4805C88.1673 99.2454 88.5579 99.8802 89.0137 100.385C89.4857 100.873 90.0228 101.231 90.625 101.459C91.2435 101.687 91.9189 101.801 92.6514 101.801C93.5791 101.801 94.401 101.622 95.1172 101.264C95.8333 100.906 96.4355 100.336 96.9238 99.5547C97.4121 98.7572 97.7783 97.7236 98.0225 96.4541C98.2666 95.1846 98.3887 93.6628 98.3887 91.8887ZM109.277 79.1689V77.2891C109.277 75.9382 109.57 74.7093 110.156 73.6025C110.742 72.4958 111.597 71.6087 112.72 70.9414C113.843 70.2741 115.194 69.9404 116.772 69.9404C118.4 69.9404 119.767 70.2741 120.874 70.9414C121.997 71.6087 122.852 72.4958 123.438 73.6025C124.023 74.7093 124.316 75.9382 124.316 77.2891V79.1689C124.316 80.4873 124.023 81.6999 123.438 82.8066C122.868 83.9134 122.021 84.8005 120.898 85.4678C119.792 86.1351 118.433 86.4688 116.821 86.4688C115.226 86.4688 113.859 86.1351 112.72 85.4678C111.597 84.8005 110.742 83.9134 110.156 82.8066C109.57 81.6999 109.277 80.4873 109.277 79.1689ZM113.354 77.2891V79.1689C113.354 79.82 113.477 80.4385 113.721 81.0244C113.981 81.6104 114.372 82.0824 114.893 82.4404C115.413 82.7985 116.056 82.9775 116.821 82.9775C117.603 82.9775 118.237 82.7985 118.726 82.4404C119.23 82.0824 119.604 81.6104 119.849 81.0244C120.093 80.4385 120.215 79.82 120.215 79.1689V77.2891C120.215 76.6217 120.085 75.9951 119.824 75.4092C119.58 74.807 119.206 74.3268 118.701 73.9688C118.197 73.6107 117.554 73.4316 116.772 73.4316C116.024 73.4316 115.389 73.6107 114.868 73.9688C114.364 74.3268 113.981 74.807 113.721 75.4092C113.477 75.9951 113.354 76.6217 113.354 77.2891ZM126.416 99.1885V97.2842C126.416 95.9495 126.709 94.7288 127.295 93.6221C127.897 92.5153 128.76 91.6283 129.883 90.9609C131.006 90.2936 132.357 89.96 133.936 89.96C135.563 89.96 136.93 90.2936 138.037 90.9609C139.16 91.6283 140.007 92.5153 140.576 93.6221C141.162 94.7288 141.455 95.9495 141.455 97.2842V99.1885C141.455 100.523 141.162 101.744 140.576 102.851C140.007 103.957 139.168 104.844 138.062 105.512C136.955 106.179 135.604 106.513 134.009 106.513C132.397 106.513 131.022 106.179 129.883 105.512C128.76 104.844 127.897 103.957 127.295 102.851C126.709 101.744 126.416 100.523 126.416 99.1885ZM130.518 97.2842V99.1885C130.518 99.8395 130.648 100.458 130.908 101.044C131.185 101.63 131.584 102.11 132.104 102.484C132.625 102.842 133.252 103.021 133.984 103.021C134.814 103.021 135.482 102.842 135.986 102.484C136.491 102.11 136.849 101.638 137.061 101.068C137.288 100.482 137.402 99.8558 137.402 99.1885V97.2842C137.402 96.6169 137.272 95.9902 137.012 95.4043C136.768 94.8184 136.385 94.3464 135.864 93.9883C135.36 93.6302 134.717 93.4512 133.936 93.4512C133.171 93.4512 132.536 93.6302 132.031 93.9883C131.527 94.3464 131.144 94.8184 130.884 95.4043C130.64 95.9902 130.518 96.6169 130.518 97.2842ZM135.4 75.5312L118.042 103.314L115.039 101.581L132.397 73.7979L135.4 75.5312Z" fill="white"/>
<path d="M61.3379 135.197V136.006C61.3379 136.967 61.2178 137.828 60.9775 138.59C60.7373 139.352 60.3916 139.999 59.9404 140.532C59.4893 141.065 58.9473 141.473 58.3145 141.754C57.6875 142.035 56.9844 142.176 56.2051 142.176C55.4492 142.176 54.7549 142.035 54.1221 141.754C53.4951 141.473 52.9502 141.065 52.4873 140.532C52.0303 139.999 51.6758 139.352 51.4238 138.59C51.1719 137.828 51.0459 136.967 51.0459 136.006V135.197C51.0459 134.236 51.1689 133.378 51.415 132.622C51.667 131.86 52.0215 131.213 52.4785 130.68C52.9355 130.141 53.4775 129.73 54.1045 129.449C54.7373 129.168 55.4316 129.027 56.1875 129.027C56.9668 129.027 57.6699 129.168 58.2969 129.449C58.9297 129.73 59.4717 130.141 59.9229 130.68C60.3799 131.213 60.7285 131.86 60.9688 132.622C61.2148 133.378 61.3379 134.236 61.3379 135.197ZM59.6592 136.006V135.18C59.6592 134.418 59.5801 133.744 59.4219 133.158C59.2695 132.572 59.0439 132.08 58.7451 131.682C58.4463 131.283 58.0801 130.981 57.6465 130.776C57.2188 130.571 56.7324 130.469 56.1875 130.469C55.6602 130.469 55.1826 130.571 54.7549 130.776C54.333 130.981 53.9697 131.283 53.665 131.682C53.3662 132.08 53.1348 132.572 52.9707 133.158C52.8066 133.744 52.7246 134.418 52.7246 135.18V136.006C52.7246 136.773 52.8066 137.453 52.9707 138.045C53.1348 138.631 53.3691 139.126 53.6738 139.53C53.9844 139.929 54.3506 140.23 54.7725 140.436C55.2002 140.641 55.6777 140.743 56.2051 140.743C56.7559 140.743 57.2451 140.641 57.6729 140.436C58.1006 140.23 58.4609 139.929 58.7539 139.53C59.0527 139.126 59.2783 138.631 59.4307 138.045C59.583 137.453 59.6592 136.773 59.6592 136.006ZM65.5742 129.203V142H63.8779V129.203H65.5742ZM70.9355 134.96V136.349H65.2051V134.96H70.9355ZM71.8057 129.203V130.592H65.2051V129.203H71.8057ZM75.5234 129.203V142H73.8271V129.203H75.5234ZM80.8848 134.96V136.349H75.1543V134.96H80.8848ZM81.7549 129.203V130.592H75.1543V129.203H81.7549ZM87.5645 137.351V137.148C87.5645 136.463 87.6641 135.827 87.8633 135.241C88.0625 134.649 88.3496 134.137 88.7246 133.703C89.0996 133.264 89.5537 132.924 90.0869 132.684C90.6201 132.438 91.2178 132.314 91.8799 132.314C92.5479 132.314 93.1484 132.438 93.6816 132.684C94.2207 132.924 94.6777 133.264 95.0527 133.703C95.4336 134.137 95.7236 134.649 95.9229 135.241C96.1221 135.827 96.2217 136.463 96.2217 137.148V137.351C96.2217 138.036 96.1221 138.672 95.9229 139.258C95.7236 139.844 95.4336 140.356 95.0527 140.796C94.6777 141.229 94.2236 141.569 93.6904 141.815C93.1631 142.056 92.5654 142.176 91.8975 142.176C91.2295 142.176 90.6289 142.056 90.0957 141.815C89.5625 141.569 89.1055 141.229 88.7246 140.796C88.3496 140.356 88.0625 139.844 87.8633 139.258C87.6641 138.672 87.5645 138.036 87.5645 137.351ZM89.1904 137.148V137.351C89.1904 137.825 89.2461 138.273 89.3574 138.695C89.4688 139.111 89.6357 139.48 89.8584 139.803C90.0869 140.125 90.3711 140.38 90.7109 140.567C91.0508 140.749 91.4463 140.84 91.8975 140.84C92.3428 140.84 92.7324 140.749 93.0664 140.567C93.4062 140.38 93.6875 140.125 93.9102 139.803C94.1328 139.48 94.2998 139.111 94.4111 138.695C94.5283 138.273 94.5869 137.825 94.5869 137.351V137.148C94.5869 136.68 94.5283 136.237 94.4111 135.821C94.2998 135.399 94.1299 135.027 93.9014 134.705C93.6787 134.377 93.3975 134.119 93.0576 133.932C92.7236 133.744 92.3311 133.65 91.8799 133.65C91.4346 133.65 91.042 133.744 90.7021 133.932C90.3682 134.119 90.0869 134.377 89.8584 134.705C89.6357 135.027 89.4688 135.399 89.3574 135.821C89.2461 136.237 89.1904 136.68 89.1904 137.148ZM99.8867 134.521V142H98.2607V132.49H99.7988L99.8867 134.521ZM99.5 136.885L98.8232 136.858C98.8291 136.208 98.9258 135.607 99.1133 135.057C99.3008 134.5 99.5645 134.017 99.9043 133.606C100.244 133.196 100.648 132.88 101.117 132.657C101.592 132.429 102.116 132.314 102.69 132.314C103.159 132.314 103.581 132.379 103.956 132.508C104.331 132.631 104.65 132.83 104.914 133.105C105.184 133.381 105.389 133.738 105.529 134.178C105.67 134.611 105.74 135.142 105.74 135.769V142H104.105V135.751C104.105 135.253 104.032 134.854 103.886 134.556C103.739 134.251 103.525 134.031 103.244 133.896C102.963 133.756 102.617 133.686 102.207 133.686C101.803 133.686 101.434 133.771 101.1 133.94C100.771 134.11 100.487 134.345 100.247 134.644C100.013 134.942 99.8281 135.285 99.6934 135.672C99.5645 136.053 99.5 136.457 99.5 136.885ZM118.212 139.478C118.212 139.243 118.159 139.026 118.054 138.827C117.954 138.622 117.746 138.438 117.43 138.273C117.119 138.104 116.65 137.957 116.023 137.834C115.496 137.723 115.019 137.591 114.591 137.438C114.169 137.286 113.809 137.102 113.51 136.885C113.217 136.668 112.991 136.413 112.833 136.12C112.675 135.827 112.596 135.484 112.596 135.092C112.596 134.717 112.678 134.362 112.842 134.028C113.012 133.694 113.249 133.398 113.554 133.141C113.864 132.883 114.236 132.681 114.67 132.534C115.104 132.388 115.587 132.314 116.12 132.314C116.882 132.314 117.532 132.449 118.071 132.719C118.61 132.988 119.023 133.349 119.311 133.8C119.598 134.245 119.741 134.74 119.741 135.285H118.115C118.115 135.021 118.036 134.767 117.878 134.521C117.726 134.269 117.5 134.061 117.201 133.896C116.908 133.732 116.548 133.65 116.12 133.65C115.669 133.65 115.303 133.721 115.021 133.861C114.746 133.996 114.544 134.169 114.415 134.38C114.292 134.591 114.23 134.813 114.23 135.048C114.23 135.224 114.26 135.382 114.318 135.522C114.383 135.657 114.494 135.783 114.652 135.9C114.811 136.012 115.033 136.117 115.32 136.217C115.607 136.316 115.974 136.416 116.419 136.516C117.198 136.691 117.84 136.902 118.344 137.148C118.848 137.395 119.223 137.696 119.469 138.054C119.715 138.411 119.838 138.845 119.838 139.354C119.838 139.771 119.75 140.151 119.574 140.497C119.404 140.843 119.155 141.142 118.827 141.394C118.505 141.64 118.118 141.833 117.667 141.974C117.222 142.108 116.721 142.176 116.164 142.176C115.326 142.176 114.617 142.026 114.037 141.728C113.457 141.429 113.018 141.042 112.719 140.567C112.42 140.093 112.271 139.592 112.271 139.064H113.905C113.929 139.51 114.058 139.864 114.292 140.128C114.526 140.386 114.813 140.57 115.153 140.682C115.493 140.787 115.83 140.84 116.164 140.84C116.609 140.84 116.981 140.781 117.28 140.664C117.585 140.547 117.816 140.386 117.975 140.181C118.133 139.976 118.212 139.741 118.212 139.478ZM125.92 142.176C125.258 142.176 124.657 142.064 124.118 141.842C123.585 141.613 123.125 141.294 122.738 140.884C122.357 140.474 122.064 139.987 121.859 139.425C121.654 138.862 121.552 138.247 121.552 137.579V137.21C121.552 136.437 121.666 135.748 121.895 135.145C122.123 134.535 122.434 134.02 122.826 133.598C123.219 133.176 123.664 132.856 124.162 132.64C124.66 132.423 125.176 132.314 125.709 132.314C126.389 132.314 126.975 132.432 127.467 132.666C127.965 132.9 128.372 133.229 128.688 133.65C129.005 134.066 129.239 134.559 129.392 135.127C129.544 135.689 129.62 136.305 129.62 136.973V137.702H122.519V136.375H127.994V136.252C127.971 135.83 127.883 135.42 127.73 135.021C127.584 134.623 127.35 134.295 127.027 134.037C126.705 133.779 126.266 133.65 125.709 133.65C125.34 133.65 125 133.729 124.689 133.888C124.379 134.04 124.112 134.269 123.89 134.573C123.667 134.878 123.494 135.25 123.371 135.689C123.248 136.129 123.187 136.636 123.187 137.21V137.579C123.187 138.03 123.248 138.455 123.371 138.854C123.5 139.246 123.685 139.592 123.925 139.891C124.171 140.189 124.467 140.424 124.812 140.594C125.164 140.764 125.562 140.849 126.008 140.849C126.582 140.849 127.068 140.731 127.467 140.497C127.865 140.263 128.214 139.949 128.513 139.557L129.497 140.339C129.292 140.649 129.031 140.945 128.715 141.227C128.398 141.508 128.009 141.736 127.546 141.912C127.089 142.088 126.547 142.176 125.92 142.176ZM133.285 128.5V142H131.65V128.5H133.285ZM139.842 142.176C139.18 142.176 138.579 142.064 138.04 141.842C137.507 141.613 137.047 141.294 136.66 140.884C136.279 140.474 135.986 139.987 135.781 139.425C135.576 138.862 135.474 138.247 135.474 137.579V137.21C135.474 136.437 135.588 135.748 135.816 135.145C136.045 134.535 136.355 134.02 136.748 133.598C137.141 133.176 137.586 132.856 138.084 132.64C138.582 132.423 139.098 132.314 139.631 132.314C140.311 132.314 140.896 132.432 141.389 132.666C141.887 132.9 142.294 133.229 142.61 133.65C142.927 134.066 143.161 134.559 143.313 135.127C143.466 135.689 143.542 136.305 143.542 136.973V137.702H136.44V136.375H141.916V136.252C141.893 135.83 141.805 135.42 141.652 135.021C141.506 134.623 141.271 134.295 140.949 134.037C140.627 133.779 140.188 133.65 139.631 133.65C139.262 133.65 138.922 133.729 138.611 133.888C138.301 134.04 138.034 134.269 137.812 134.573C137.589 134.878 137.416 135.25 137.293 135.689C137.17 136.129 137.108 136.636 137.108 137.21V137.579C137.108 138.03 137.17 138.455 137.293 138.854C137.422 139.246 137.606 139.592 137.847 139.891C138.093 140.189 138.389 140.424 138.734 140.594C139.086 140.764 139.484 140.849 139.93 140.849C140.504 140.849 140.99 140.731 141.389 140.497C141.787 140.263 142.136 139.949 142.435 139.557L143.419 140.339C143.214 140.649 142.953 140.945 142.637 141.227C142.32 141.508 141.931 141.736 141.468 141.912C141.011 142.088 140.469 142.176 139.842 142.176ZM149.246 140.84C149.633 140.84 149.99 140.761 150.318 140.603C150.646 140.444 150.916 140.228 151.127 139.952C151.338 139.671 151.458 139.352 151.487 138.994H153.034C153.005 139.557 152.814 140.081 152.463 140.567C152.117 141.048 151.663 141.438 151.101 141.736C150.538 142.029 149.92 142.176 149.246 142.176C148.531 142.176 147.907 142.05 147.374 141.798C146.847 141.546 146.407 141.2 146.056 140.761C145.71 140.321 145.449 139.817 145.273 139.249C145.104 138.675 145.019 138.068 145.019 137.43V137.061C145.019 136.422 145.104 135.818 145.273 135.25C145.449 134.676 145.71 134.169 146.056 133.729C146.407 133.29 146.847 132.944 147.374 132.692C147.907 132.44 148.531 132.314 149.246 132.314C149.99 132.314 150.641 132.467 151.197 132.771C151.754 133.07 152.19 133.48 152.507 134.002C152.829 134.518 153.005 135.104 153.034 135.76H151.487C151.458 135.367 151.347 135.013 151.153 134.696C150.966 134.38 150.708 134.128 150.38 133.94C150.058 133.747 149.68 133.65 149.246 133.65C148.748 133.65 148.329 133.75 147.989 133.949C147.655 134.143 147.389 134.406 147.189 134.74C146.996 135.068 146.855 135.435 146.768 135.839C146.686 136.237 146.645 136.645 146.645 137.061V137.43C146.645 137.846 146.686 138.256 146.768 138.66C146.85 139.064 146.987 139.431 147.181 139.759C147.38 140.087 147.646 140.351 147.98 140.55C148.32 140.743 148.742 140.84 149.246 140.84ZM158.844 132.49V133.738H153.702V132.49H158.844ZM155.442 130.179H157.068V139.645C157.068 139.967 157.118 140.21 157.218 140.374C157.317 140.538 157.446 140.646 157.604 140.699C157.763 140.752 157.933 140.778 158.114 140.778C158.249 140.778 158.39 140.767 158.536 140.743C158.688 140.714 158.803 140.69 158.879 140.673L158.888 142C158.759 142.041 158.589 142.079 158.378 142.114C158.173 142.155 157.924 142.176 157.631 142.176C157.232 142.176 156.866 142.097 156.532 141.938C156.198 141.78 155.932 141.517 155.732 141.147C155.539 140.772 155.442 140.269 155.442 139.636V130.179ZM166.982 132.49V142H165.348V132.49H166.982ZM165.225 129.968C165.225 129.704 165.304 129.481 165.462 129.3C165.626 129.118 165.866 129.027 166.183 129.027C166.493 129.027 166.73 129.118 166.895 129.3C167.064 129.481 167.149 129.704 167.149 129.968C167.149 130.22 167.064 130.437 166.895 130.618C166.73 130.794 166.493 130.882 166.183 130.882C165.866 130.882 165.626 130.794 165.462 130.618C165.304 130.437 165.225 130.22 165.225 129.968ZM173.574 132.49V133.738H168.433V132.49H173.574ZM170.173 130.179H171.799V139.645C171.799 139.967 171.849 140.21 171.948 140.374C172.048 140.538 172.177 140.646 172.335 140.699C172.493 140.752 172.663 140.778 172.845 140.778C172.979 140.778 173.12 140.767 173.267 140.743C173.419 140.714 173.533 140.69 173.609 140.673L173.618 142C173.489 142.041 173.319 142.079 173.108 142.114C172.903 142.155 172.654 142.176 172.361 142.176C171.963 142.176 171.597 142.097 171.263 141.938C170.929 141.78 170.662 141.517 170.463 141.147C170.27 140.772 170.173 140.269 170.173 139.636V130.179ZM179.428 142.176C178.766 142.176 178.165 142.064 177.626 141.842C177.093 141.613 176.633 141.294 176.246 140.884C175.865 140.474 175.572 139.987 175.367 139.425C175.162 138.862 175.06 138.247 175.06 137.579V137.21C175.06 136.437 175.174 135.748 175.402 135.145C175.631 134.535 175.941 134.02 176.334 133.598C176.727 133.176 177.172 132.856 177.67 132.64C178.168 132.423 178.684 132.314 179.217 132.314C179.896 132.314 180.482 132.432 180.975 132.666C181.473 132.9 181.88 133.229 182.196 133.65C182.513 134.066 182.747 134.559 182.899 135.127C183.052 135.689 183.128 136.305 183.128 136.973V137.702H176.026V136.375H181.502V136.252C181.479 135.83 181.391 135.42 181.238 135.021C181.092 134.623 180.857 134.295 180.535 134.037C180.213 133.779 179.773 133.65 179.217 133.65C178.848 133.65 178.508 133.729 178.197 133.888C177.887 134.04 177.62 134.269 177.397 134.573C177.175 134.878 177.002 135.25 176.879 135.689C176.756 136.129 176.694 136.636 176.694 137.21V137.579C176.694 138.03 176.756 138.455 176.879 138.854C177.008 139.246 177.192 139.592 177.433 139.891C177.679 140.189 177.975 140.424 178.32 140.594C178.672 140.764 179.07 140.849 179.516 140.849C180.09 140.849 180.576 140.731 180.975 140.497C181.373 140.263 181.722 139.949 182.021 139.557L183.005 140.339C182.8 140.649 182.539 140.945 182.223 141.227C181.906 141.508 181.517 141.736 181.054 141.912C180.597 142.088 180.055 142.176 179.428 142.176ZM186.644 134.38V142H185.009V132.49H186.556L186.644 134.38ZM186.31 136.885L185.554 136.858C185.56 136.208 185.645 135.607 185.809 135.057C185.973 134.5 186.216 134.017 186.538 133.606C186.86 133.196 187.262 132.88 187.742 132.657C188.223 132.429 188.779 132.314 189.412 132.314C189.857 132.314 190.268 132.379 190.643 132.508C191.018 132.631 191.343 132.827 191.618 133.097C191.894 133.366 192.107 133.712 192.26 134.134C192.412 134.556 192.488 135.065 192.488 135.663V142H190.862V135.742C190.862 135.244 190.777 134.846 190.607 134.547C190.443 134.248 190.209 134.031 189.904 133.896C189.6 133.756 189.242 133.686 188.832 133.686C188.352 133.686 187.95 133.771 187.628 133.94C187.306 134.11 187.048 134.345 186.854 134.644C186.661 134.942 186.521 135.285 186.433 135.672C186.351 136.053 186.31 136.457 186.31 136.885ZM192.471 135.988L191.381 136.322C191.387 135.801 191.472 135.3 191.636 134.819C191.806 134.339 192.049 133.911 192.365 133.536C192.688 133.161 193.083 132.865 193.552 132.648C194.021 132.426 194.557 132.314 195.16 132.314C195.67 132.314 196.121 132.382 196.514 132.517C196.912 132.651 197.246 132.859 197.516 133.141C197.791 133.416 197.999 133.771 198.14 134.204C198.28 134.638 198.351 135.153 198.351 135.751V142H196.716V135.733C196.716 135.2 196.631 134.787 196.461 134.494C196.297 134.195 196.062 133.987 195.758 133.87C195.459 133.747 195.102 133.686 194.686 133.686C194.328 133.686 194.012 133.747 193.736 133.87C193.461 133.993 193.229 134.163 193.042 134.38C192.854 134.591 192.711 134.834 192.611 135.109C192.518 135.385 192.471 135.678 192.471 135.988ZM206.349 139.478C206.349 139.243 206.296 139.026 206.19 138.827C206.091 138.622 205.883 138.438 205.566 138.273C205.256 138.104 204.787 137.957 204.16 137.834C203.633 137.723 203.155 137.591 202.728 137.438C202.306 137.286 201.945 137.102 201.646 136.885C201.354 136.668 201.128 136.413 200.97 136.12C200.812 135.827 200.732 135.484 200.732 135.092C200.732 134.717 200.814 134.362 200.979 134.028C201.148 133.694 201.386 133.398 201.69 133.141C202.001 132.883 202.373 132.681 202.807 132.534C203.24 132.388 203.724 132.314 204.257 132.314C205.019 132.314 205.669 132.449 206.208 132.719C206.747 132.988 207.16 133.349 207.447 133.8C207.734 134.245 207.878 134.74 207.878 135.285H206.252C206.252 135.021 206.173 134.767 206.015 134.521C205.862 134.269 205.637 134.061 205.338 133.896C205.045 133.732 204.685 133.65 204.257 133.65C203.806 133.65 203.439 133.721 203.158 133.861C202.883 133.996 202.681 134.169 202.552 134.38C202.429 134.591 202.367 134.813 202.367 135.048C202.367 135.224 202.396 135.382 202.455 135.522C202.52 135.657 202.631 135.783 202.789 135.9C202.947 136.012 203.17 136.117 203.457 136.217C203.744 136.316 204.11 136.416 204.556 136.516C205.335 136.691 205.977 136.902 206.48 137.148C206.984 137.395 207.359 137.696 207.605 138.054C207.852 138.411 207.975 138.845 207.975 139.354C207.975 139.771 207.887 140.151 207.711 140.497C207.541 140.843 207.292 141.142 206.964 141.394C206.642 141.64 206.255 141.833 205.804 141.974C205.358 142.108 204.857 142.176 204.301 142.176C203.463 142.176 202.754 142.026 202.174 141.728C201.594 141.429 201.154 141.042 200.855 140.567C200.557 140.093 200.407 139.592 200.407 139.064H202.042C202.065 139.51 202.194 139.864 202.429 140.128C202.663 140.386 202.95 140.57 203.29 140.682C203.63 140.787 203.967 140.84 204.301 140.84C204.746 140.84 205.118 140.781 205.417 140.664C205.722 140.547 205.953 140.386 206.111 140.181C206.27 139.976 206.349 139.741 206.349 139.478ZM210.137 141.139C210.137 140.863 210.222 140.632 210.392 140.444C210.567 140.251 210.819 140.154 211.147 140.154C211.476 140.154 211.725 140.251 211.895 140.444C212.07 140.632 212.158 140.863 212.158 141.139C212.158 141.408 212.07 141.637 211.895 141.824C211.725 142.012 211.476 142.105 211.147 142.105C210.819 142.105 210.567 142.012 210.392 141.824C210.222 141.637 210.137 141.408 210.137 141.139Z" fill="#81807E"/>
</svg>
