<svg width="399" height="249" viewBox="0 0 399 249" fill="none" xmlns="http://www.w3.org/2000/svg">
<path d="M58.8623 139.472L54.1748 138.324L56.1035 120.453H75.2686V125.434H60.9863L60.0098 134.149C60.5632 133.824 61.3281 133.507 62.3047 133.197C63.2812 132.872 64.3962 132.709 65.6494 132.709C67.3258 132.709 68.8232 132.986 70.1416 133.539C71.4762 134.076 72.6074 134.866 73.5352 135.907C74.4629 136.933 75.1709 138.186 75.6592 139.667C76.1475 141.132 76.3916 142.784 76.3916 144.623C76.3916 146.267 76.1475 147.805 75.6592 149.237C75.1872 150.67 74.471 151.931 73.5107 153.021C72.5505 154.112 71.3379 154.966 69.873 155.585C68.4245 156.187 66.7074 156.488 64.7217 156.488C63.2406 156.488 61.8164 156.277 60.4492 155.854C59.0983 155.414 57.8857 154.771 56.8115 153.925C55.7373 153.062 54.8747 152.004 54.2236 150.751C53.5726 149.481 53.1982 148.025 53.1006 146.381H58.8623C59.0088 147.536 59.3262 148.521 59.8145 149.335C60.319 150.132 60.9863 150.743 61.8164 151.166C62.6465 151.589 63.6068 151.801 64.6973 151.801C65.6901 151.801 66.5446 151.63 67.2607 151.288C67.9769 150.93 68.571 150.425 69.043 149.774C69.5312 149.107 69.8893 148.326 70.1172 147.431C70.3613 146.535 70.4834 145.543 70.4834 144.452C70.4834 143.41 70.3451 142.458 70.0684 141.596C69.8079 140.733 69.4092 139.984 68.8721 139.35C68.3512 138.715 67.6921 138.227 66.8945 137.885C66.097 137.527 65.1774 137.348 64.1357 137.348C62.736 137.348 61.6618 137.551 60.9131 137.958C60.1807 138.365 59.4971 138.869 58.8623 139.472ZM104.272 135.248V141.059C104.272 143.842 103.996 146.218 103.442 148.188C102.905 150.141 102.124 151.728 101.099 152.948C100.073 154.169 98.8444 155.064 97.4121 155.634C95.9961 156.203 94.4092 156.488 92.6514 156.488C91.2516 156.488 89.9495 156.309 88.7451 155.951C87.557 155.593 86.4827 155.032 85.5225 154.267C84.5622 153.502 83.7402 152.517 83.0566 151.312C82.3893 150.092 81.8685 148.635 81.4941 146.942C81.1361 145.25 80.957 143.288 80.957 141.059V135.248C80.957 132.449 81.2337 130.089 81.7871 128.168C82.3405 126.231 83.1299 124.66 84.1553 123.456C85.1807 122.235 86.4014 121.348 87.8174 120.795C89.2497 120.242 90.8447 119.965 92.6025 119.965C94.0186 119.965 95.3206 120.144 96.5088 120.502C97.7132 120.844 98.7874 121.389 99.7314 122.138C100.692 122.886 101.506 123.863 102.173 125.067C102.856 126.256 103.377 127.696 103.735 129.389C104.093 131.065 104.272 133.018 104.272 135.248ZM98.3887 141.889V134.369C98.3887 132.953 98.3073 131.708 98.1445 130.634C97.9818 129.543 97.7376 128.624 97.4121 127.875C97.1029 127.11 96.7122 126.492 96.2402 126.02C95.7682 125.531 95.2311 125.181 94.6289 124.97C94.0267 124.742 93.3512 124.628 92.6025 124.628C91.6911 124.628 90.8773 124.807 90.1611 125.165C89.445 125.507 88.8428 126.06 88.3545 126.825C87.8662 127.59 87.4919 128.599 87.2314 129.853C86.9873 131.09 86.8652 132.595 86.8652 134.369V141.889C86.8652 143.321 86.9466 144.582 87.1094 145.673C87.2721 146.763 87.5163 147.699 87.8418 148.48C88.1673 149.245 88.5579 149.88 89.0137 150.385C89.4857 150.873 90.0228 151.231 90.625 151.459C91.2435 151.687 91.9189 151.801 92.6514 151.801C93.5791 151.801 94.401 151.622 95.1172 151.264C95.8333 150.906 96.4355 150.336 96.9238 149.555C97.4121 148.757 97.7783 147.724 98.0225 146.454C98.2666 145.185 98.3887 143.663 98.3887 141.889ZM145.264 136.518V141.815H120.898V136.518H145.264ZM135.938 126.557V152.436H130.249V126.557H135.938Z" fill="white"/>
<path d="M61.3291 179.203V192H59.624L53.1816 182.13V192H51.4854V179.203H53.1816L59.6504 189.1V179.203H61.3291ZM68.0352 192.176C67.373 192.176 66.7725 192.064 66.2334 191.842C65.7002 191.613 65.2402 191.294 64.8535 190.884C64.4727 190.474 64.1797 189.987 63.9746 189.425C63.7695 188.862 63.667 188.247 63.667 187.579V187.21C63.667 186.437 63.7812 185.748 64.0098 185.145C64.2383 184.535 64.5488 184.02 64.9414 183.598C65.334 183.176 65.7793 182.856 66.2773 182.64C66.7754 182.423 67.291 182.314 67.8242 182.314C68.5039 182.314 69.0898 182.432 69.582 182.666C70.0801 182.9 70.4873 183.229 70.8037 183.65C71.1201 184.066 71.3545 184.559 71.5068 185.127C71.6592 185.689 71.7354 186.305 71.7354 186.973V187.702H64.6338V186.375H70.1094V186.252C70.0859 185.83 69.998 185.42 69.8457 185.021C69.6992 184.623 69.4648 184.295 69.1426 184.037C68.8203 183.779 68.3809 183.65 67.8242 183.65C67.4551 183.65 67.1152 183.729 66.8047 183.888C66.4941 184.04 66.2275 184.269 66.0049 184.573C65.7822 184.878 65.6094 185.25 65.4863 185.689C65.3633 186.129 65.3018 186.636 65.3018 187.21V187.579C65.3018 188.03 65.3633 188.455 65.4863 188.854C65.6152 189.246 65.7998 189.592 66.04 189.891C66.2861 190.189 66.582 190.424 66.9277 190.594C67.2793 190.764 67.6777 190.849 68.123 190.849C68.6973 190.849 69.1836 190.731 69.582 190.497C69.9805 190.263 70.3291 189.949 70.6279 189.557L71.6123 190.339C71.4072 190.649 71.1465 190.945 70.8301 191.227C70.5137 191.508 70.124 191.736 69.6611 191.912C69.2041 192.088 68.6621 192.176 68.0352 192.176ZM76.042 190.312L78.4854 182.49H79.5576L79.3467 184.046L76.8594 192H75.8135L76.042 190.312ZM74.3984 182.49L76.4814 190.4L76.6309 192H75.5322L72.7725 182.49H74.3984ZM81.8955 190.339L83.8818 182.49H85.499L82.7393 192H81.6494L81.8955 190.339ZM79.7949 182.49L82.1855 190.181L82.458 192H81.4209L78.8633 184.028L78.6523 182.49H79.7949ZM97.2412 190.374V185.479C97.2412 185.104 97.165 184.778 97.0127 184.503C96.8662 184.222 96.6436 184.005 96.3447 183.853C96.0459 183.7 95.6768 183.624 95.2373 183.624C94.8271 183.624 94.4668 183.694 94.1562 183.835C93.8516 183.976 93.6113 184.16 93.4355 184.389C93.2656 184.617 93.1807 184.863 93.1807 185.127H91.5547C91.5547 184.787 91.6426 184.45 91.8184 184.116C91.9941 183.782 92.2461 183.48 92.5742 183.211C92.9082 182.936 93.3066 182.719 93.7695 182.561C94.2383 182.396 94.7598 182.314 95.334 182.314C96.0254 182.314 96.6348 182.432 97.1621 182.666C97.6953 182.9 98.1113 183.255 98.4102 183.729C98.7148 184.198 98.8672 184.787 98.8672 185.496V189.926C98.8672 190.242 98.8936 190.579 98.9463 190.937C99.0049 191.294 99.0898 191.602 99.2012 191.859V192H97.5049C97.4229 191.812 97.3584 191.563 97.3115 191.253C97.2646 190.937 97.2412 190.644 97.2412 190.374ZM97.5225 186.234L97.54 187.377H95.8965C95.4336 187.377 95.0205 187.415 94.6572 187.491C94.2939 187.562 93.9893 187.67 93.7432 187.816C93.4971 187.963 93.3096 188.147 93.1807 188.37C93.0518 188.587 92.9873 188.842 92.9873 189.135C92.9873 189.434 93.0547 189.706 93.1895 189.952C93.3242 190.198 93.5264 190.395 93.7959 190.541C94.0713 190.682 94.4082 190.752 94.8066 190.752C95.3047 190.752 95.7441 190.646 96.125 190.436C96.5059 190.225 96.8076 189.967 97.0303 189.662C97.2588 189.357 97.3818 189.062 97.3994 188.774L98.0938 189.557C98.0527 189.803 97.9414 190.075 97.7598 190.374C97.5781 190.673 97.335 190.96 97.0303 191.235C96.7314 191.505 96.374 191.73 95.958 191.912C95.5479 192.088 95.085 192.176 94.5693 192.176C93.9248 192.176 93.3594 192.05 92.873 191.798C92.3926 191.546 92.0176 191.209 91.748 190.787C91.4844 190.359 91.3525 189.882 91.3525 189.354C91.3525 188.845 91.4521 188.396 91.6514 188.01C91.8506 187.617 92.1377 187.292 92.5127 187.034C92.8877 186.771 93.3389 186.571 93.8662 186.437C94.3936 186.302 94.9824 186.234 95.6328 186.234H97.5225ZM103.051 183.984V192H101.425V182.49H103.007L103.051 183.984ZM106.021 182.438L106.013 183.949C105.878 183.92 105.749 183.902 105.626 183.896C105.509 183.885 105.374 183.879 105.222 183.879C104.847 183.879 104.516 183.938 104.229 184.055C103.941 184.172 103.698 184.336 103.499 184.547C103.3 184.758 103.142 185.01 103.024 185.303C102.913 185.59 102.84 185.906 102.805 186.252L102.348 186.516C102.348 185.941 102.403 185.402 102.515 184.898C102.632 184.395 102.811 183.949 103.051 183.562C103.291 183.17 103.596 182.865 103.965 182.648C104.34 182.426 104.785 182.314 105.301 182.314C105.418 182.314 105.553 182.329 105.705 182.358C105.857 182.382 105.963 182.408 106.021 182.438ZM109.15 183.984V192H107.524V182.49H109.106L109.15 183.984ZM112.121 182.438L112.112 183.949C111.978 183.92 111.849 183.902 111.726 183.896C111.608 183.885 111.474 183.879 111.321 183.879C110.946 183.879 110.615 183.938 110.328 184.055C110.041 184.172 109.798 184.336 109.599 184.547C109.399 184.758 109.241 185.01 109.124 185.303C109.013 185.59 108.939 185.906 108.904 186.252L108.447 186.516C108.447 185.941 108.503 185.402 108.614 184.898C108.731 184.395 108.91 183.949 109.15 183.562C109.391 183.17 109.695 182.865 110.064 182.648C110.439 182.426 110.885 182.314 111.4 182.314C111.518 182.314 111.652 182.329 111.805 182.358C111.957 182.382 112.062 182.408 112.121 182.438ZM115.391 182.49V192H113.756V182.49H115.391ZM113.633 179.968C113.633 179.704 113.712 179.481 113.87 179.3C114.034 179.118 114.274 179.027 114.591 179.027C114.901 179.027 115.139 179.118 115.303 179.3C115.473 179.481 115.558 179.704 115.558 179.968C115.558 180.22 115.473 180.437 115.303 180.618C115.139 180.794 114.901 180.882 114.591 180.882C114.274 180.882 114.034 180.794 113.87 180.618C113.712 180.437 113.633 180.22 113.633 179.968ZM120.893 190.532L123.494 182.49H125.155L121.736 192H120.646L120.893 190.532ZM118.722 182.49L121.402 190.576L121.587 192H120.497L117.052 182.49H118.722ZM132.187 190.374V185.479C132.187 185.104 132.11 184.778 131.958 184.503C131.812 184.222 131.589 184.005 131.29 183.853C130.991 183.7 130.622 183.624 130.183 183.624C129.772 183.624 129.412 183.694 129.102 183.835C128.797 183.976 128.557 184.16 128.381 184.389C128.211 184.617 128.126 184.863 128.126 185.127H126.5C126.5 184.787 126.588 184.45 126.764 184.116C126.939 183.782 127.191 183.48 127.52 183.211C127.854 182.936 128.252 182.719 128.715 182.561C129.184 182.396 129.705 182.314 130.279 182.314C130.971 182.314 131.58 182.432 132.107 182.666C132.641 182.9 133.057 183.255 133.355 183.729C133.66 184.198 133.812 184.787 133.812 185.496V189.926C133.812 190.242 133.839 190.579 133.892 190.937C133.95 191.294 134.035 191.602 134.146 191.859V192H132.45C132.368 191.812 132.304 191.563 132.257 191.253C132.21 190.937 132.187 190.644 132.187 190.374ZM132.468 186.234L132.485 187.377H130.842C130.379 187.377 129.966 187.415 129.603 187.491C129.239 187.562 128.935 187.67 128.688 187.816C128.442 187.963 128.255 188.147 128.126 188.37C127.997 188.587 127.933 188.842 127.933 189.135C127.933 189.434 128 189.706 128.135 189.952C128.27 190.198 128.472 190.395 128.741 190.541C129.017 190.682 129.354 190.752 129.752 190.752C130.25 190.752 130.689 190.646 131.07 190.436C131.451 190.225 131.753 189.967 131.976 189.662C132.204 189.357 132.327 189.062 132.345 188.774L133.039 189.557C132.998 189.803 132.887 190.075 132.705 190.374C132.523 190.673 132.28 190.96 131.976 191.235C131.677 191.505 131.319 191.73 130.903 191.912C130.493 192.088 130.03 192.176 129.515 192.176C128.87 192.176 128.305 192.05 127.818 191.798C127.338 191.546 126.963 191.209 126.693 190.787C126.43 190.359 126.298 189.882 126.298 189.354C126.298 188.845 126.397 188.396 126.597 188.01C126.796 187.617 127.083 187.292 127.458 187.034C127.833 186.771 128.284 186.571 128.812 186.437C129.339 186.302 129.928 186.234 130.578 186.234H132.468ZM138.137 178.5V192H136.502V178.5H138.137ZM146.284 189.478C146.284 189.243 146.231 189.026 146.126 188.827C146.026 188.622 145.818 188.438 145.502 188.273C145.191 188.104 144.723 187.957 144.096 187.834C143.568 187.723 143.091 187.591 142.663 187.438C142.241 187.286 141.881 187.102 141.582 186.885C141.289 186.668 141.063 186.413 140.905 186.12C140.747 185.827 140.668 185.484 140.668 185.092C140.668 184.717 140.75 184.362 140.914 184.028C141.084 183.694 141.321 183.398 141.626 183.141C141.937 182.883 142.309 182.681 142.742 182.534C143.176 182.388 143.659 182.314 144.192 182.314C144.954 182.314 145.604 182.449 146.144 182.719C146.683 182.988 147.096 183.349 147.383 183.8C147.67 184.245 147.813 184.74 147.813 185.285H146.188C146.188 185.021 146.108 184.767 145.95 184.521C145.798 184.269 145.572 184.061 145.273 183.896C144.98 183.732 144.62 183.65 144.192 183.65C143.741 183.65 143.375 183.721 143.094 183.861C142.818 183.996 142.616 184.169 142.487 184.38C142.364 184.591 142.303 184.813 142.303 185.048C142.303 185.224 142.332 185.382 142.391 185.522C142.455 185.657 142.566 185.783 142.725 185.9C142.883 186.012 143.105 186.117 143.393 186.217C143.68 186.316 144.046 186.416 144.491 186.516C145.271 186.691 145.912 186.902 146.416 187.148C146.92 187.395 147.295 187.696 147.541 188.054C147.787 188.411 147.91 188.845 147.91 189.354C147.91 189.771 147.822 190.151 147.646 190.497C147.477 190.843 147.228 191.142 146.899 191.394C146.577 191.64 146.19 191.833 145.739 191.974C145.294 192.108 144.793 192.176 144.236 192.176C143.398 192.176 142.689 192.026 142.109 191.728C141.529 191.429 141.09 191.042 140.791 190.567C140.492 190.093 140.343 189.592 140.343 189.064H141.978C142.001 189.51 142.13 189.864 142.364 190.128C142.599 190.386 142.886 190.57 143.226 190.682C143.565 190.787 143.902 190.84 144.236 190.84C144.682 190.84 145.054 190.781 145.353 190.664C145.657 190.547 145.889 190.386 146.047 190.181C146.205 189.976 146.284 189.741 146.284 189.478ZM158.457 192.176C157.795 192.176 157.194 192.064 156.655 191.842C156.122 191.613 155.662 191.294 155.275 190.884C154.895 190.474 154.602 189.987 154.396 189.425C154.191 188.862 154.089 188.247 154.089 187.579V187.21C154.089 186.437 154.203 185.748 154.432 185.145C154.66 184.535 154.971 184.02 155.363 183.598C155.756 183.176 156.201 182.856 156.699 182.64C157.197 182.423 157.713 182.314 158.246 182.314C158.926 182.314 159.512 182.432 160.004 182.666C160.502 182.9 160.909 183.229 161.226 183.65C161.542 184.066 161.776 184.559 161.929 185.127C162.081 185.689 162.157 186.305 162.157 186.973V187.702H155.056V186.375H160.531V186.252C160.508 185.83 160.42 185.42 160.268 185.021C160.121 184.623 159.887 184.295 159.564 184.037C159.242 183.779 158.803 183.65 158.246 183.65C157.877 183.65 157.537 183.729 157.227 183.888C156.916 184.04 156.649 184.269 156.427 184.573C156.204 184.878 156.031 185.25 155.908 185.689C155.785 186.129 155.724 186.636 155.724 187.21V187.579C155.724 188.03 155.785 188.455 155.908 188.854C156.037 189.246 156.222 189.592 156.462 189.891C156.708 190.189 157.004 190.424 157.35 190.594C157.701 190.764 158.1 190.849 158.545 190.849C159.119 190.849 159.605 190.731 160.004 190.497C160.402 190.263 160.751 189.949 161.05 189.557L162.034 190.339C161.829 190.649 161.568 190.945 161.252 191.227C160.936 191.508 160.546 191.736 160.083 191.912C159.626 192.088 159.084 192.176 158.457 192.176ZM166.824 190.532L169.426 182.49H171.087L167.668 192H166.578L166.824 190.532ZM164.653 182.49L167.334 190.576L167.519 192H166.429L162.983 182.49H164.653ZM176.475 192.176C175.812 192.176 175.212 192.064 174.673 191.842C174.14 191.613 173.68 191.294 173.293 190.884C172.912 190.474 172.619 189.987 172.414 189.425C172.209 188.862 172.106 188.247 172.106 187.579V187.21C172.106 186.437 172.221 185.748 172.449 185.145C172.678 184.535 172.988 184.02 173.381 183.598C173.773 183.176 174.219 182.856 174.717 182.64C175.215 182.423 175.73 182.314 176.264 182.314C176.943 182.314 177.529 182.432 178.021 182.666C178.52 182.9 178.927 183.229 179.243 183.65C179.56 184.066 179.794 184.559 179.946 185.127C180.099 185.689 180.175 186.305 180.175 186.973V187.702H173.073V186.375H178.549V186.252C178.525 185.83 178.438 185.42 178.285 185.021C178.139 184.623 177.904 184.295 177.582 184.037C177.26 183.779 176.82 183.65 176.264 183.65C175.895 183.65 175.555 183.729 175.244 183.888C174.934 184.04 174.667 184.269 174.444 184.573C174.222 184.878 174.049 185.25 173.926 185.689C173.803 186.129 173.741 186.636 173.741 187.21V187.579C173.741 188.03 173.803 188.455 173.926 188.854C174.055 189.246 174.239 189.592 174.479 189.891C174.726 190.189 175.021 190.424 175.367 190.594C175.719 190.764 176.117 190.849 176.562 190.849C177.137 190.849 177.623 190.731 178.021 190.497C178.42 190.263 178.769 189.949 179.067 189.557L180.052 190.339C179.847 190.649 179.586 190.945 179.27 191.227C178.953 191.508 178.563 191.736 178.101 191.912C177.644 192.088 177.102 192.176 176.475 192.176ZM183.699 183.984V192H182.073V182.49H183.655L183.699 183.984ZM186.67 182.438L186.661 183.949C186.526 183.92 186.397 183.902 186.274 183.896C186.157 183.885 186.022 183.879 185.87 183.879C185.495 183.879 185.164 183.938 184.877 184.055C184.59 184.172 184.347 184.336 184.147 184.547C183.948 184.758 183.79 185.01 183.673 185.303C183.562 185.59 183.488 185.906 183.453 186.252L182.996 186.516C182.996 185.941 183.052 185.402 183.163 184.898C183.28 184.395 183.459 183.949 183.699 183.562C183.939 183.17 184.244 182.865 184.613 182.648C184.988 182.426 185.434 182.314 185.949 182.314C186.066 182.314 186.201 182.329 186.354 182.358C186.506 182.382 186.611 182.408 186.67 182.438ZM191.003 191.016L193.648 182.49H195.389L191.574 193.468C191.486 193.702 191.369 193.954 191.223 194.224C191.082 194.499 190.9 194.76 190.678 195.006C190.455 195.252 190.186 195.451 189.869 195.604C189.559 195.762 189.187 195.841 188.753 195.841C188.624 195.841 188.46 195.823 188.261 195.788C188.062 195.753 187.921 195.724 187.839 195.7L187.83 194.382C187.877 194.388 187.95 194.394 188.05 194.399C188.155 194.411 188.229 194.417 188.27 194.417C188.639 194.417 188.952 194.367 189.21 194.268C189.468 194.174 189.685 194.013 189.86 193.784C190.042 193.562 190.197 193.254 190.326 192.861L191.003 191.016ZM189.061 182.49L191.53 189.873L191.952 191.587L190.783 192.185L187.285 182.49H189.061ZM202.938 184.38V192H201.304V182.49H202.851L202.938 184.38ZM202.604 186.885L201.849 186.858C201.854 186.208 201.939 185.607 202.104 185.057C202.268 184.5 202.511 184.017 202.833 183.606C203.155 183.196 203.557 182.88 204.037 182.657C204.518 182.429 205.074 182.314 205.707 182.314C206.152 182.314 206.562 182.379 206.938 182.508C207.312 182.631 207.638 182.827 207.913 183.097C208.188 183.366 208.402 183.712 208.555 184.134C208.707 184.556 208.783 185.065 208.783 185.663V192H207.157V185.742C207.157 185.244 207.072 184.846 206.902 184.547C206.738 184.248 206.504 184.031 206.199 183.896C205.895 183.756 205.537 183.686 205.127 183.686C204.646 183.686 204.245 183.771 203.923 183.94C203.601 184.11 203.343 184.345 203.149 184.644C202.956 184.942 202.815 185.285 202.728 185.672C202.646 186.053 202.604 186.457 202.604 186.885ZM208.766 185.988L207.676 186.322C207.682 185.801 207.767 185.3 207.931 184.819C208.101 184.339 208.344 183.911 208.66 183.536C208.982 183.161 209.378 182.865 209.847 182.648C210.315 182.426 210.852 182.314 211.455 182.314C211.965 182.314 212.416 182.382 212.809 182.517C213.207 182.651 213.541 182.859 213.811 183.141C214.086 183.416 214.294 183.771 214.435 184.204C214.575 184.638 214.646 185.153 214.646 185.751V192H213.011V185.733C213.011 185.2 212.926 184.787 212.756 184.494C212.592 184.195 212.357 183.987 212.053 183.87C211.754 183.747 211.396 183.686 210.98 183.686C210.623 183.686 210.307 183.747 210.031 183.87C209.756 183.993 209.524 184.163 209.337 184.38C209.149 184.591 209.006 184.834 208.906 185.109C208.812 185.385 208.766 185.678 208.766 185.988ZM216.676 187.351V187.148C216.676 186.463 216.775 185.827 216.975 185.241C217.174 184.649 217.461 184.137 217.836 183.703C218.211 183.264 218.665 182.924 219.198 182.684C219.731 182.438 220.329 182.314 220.991 182.314C221.659 182.314 222.26 182.438 222.793 182.684C223.332 182.924 223.789 183.264 224.164 183.703C224.545 184.137 224.835 184.649 225.034 185.241C225.233 185.827 225.333 186.463 225.333 187.148V187.351C225.333 188.036 225.233 188.672 225.034 189.258C224.835 189.844 224.545 190.356 224.164 190.796C223.789 191.229 223.335 191.569 222.802 191.815C222.274 192.056 221.677 192.176 221.009 192.176C220.341 192.176 219.74 192.056 219.207 191.815C218.674 191.569 218.217 191.229 217.836 190.796C217.461 190.356 217.174 189.844 216.975 189.258C216.775 188.672 216.676 188.036 216.676 187.351ZM218.302 187.148V187.351C218.302 187.825 218.357 188.273 218.469 188.695C218.58 189.111 218.747 189.48 218.97 189.803C219.198 190.125 219.482 190.38 219.822 190.567C220.162 190.749 220.558 190.84 221.009 190.84C221.454 190.84 221.844 190.749 222.178 190.567C222.518 190.38 222.799 190.125 223.021 189.803C223.244 189.48 223.411 189.111 223.522 188.695C223.64 188.273 223.698 187.825 223.698 187.351V187.148C223.698 186.68 223.64 186.237 223.522 185.821C223.411 185.399 223.241 185.027 223.013 184.705C222.79 184.377 222.509 184.119 222.169 183.932C221.835 183.744 221.442 183.65 220.991 183.65C220.546 183.65 220.153 183.744 219.813 183.932C219.479 184.119 219.198 184.377 218.97 184.705C218.747 185.027 218.58 185.399 218.469 185.821C218.357 186.237 218.302 186.68 218.302 187.148ZM228.998 184.521V192H227.372V182.49H228.91L228.998 184.521ZM228.611 186.885L227.935 186.858C227.94 186.208 228.037 185.607 228.225 185.057C228.412 184.5 228.676 184.017 229.016 183.606C229.355 183.196 229.76 182.88 230.229 182.657C230.703 182.429 231.228 182.314 231.802 182.314C232.271 182.314 232.692 182.379 233.067 182.508C233.442 182.631 233.762 182.83 234.025 183.105C234.295 183.381 234.5 183.738 234.641 184.178C234.781 184.611 234.852 185.142 234.852 185.769V192H233.217V185.751C233.217 185.253 233.144 184.854 232.997 184.556C232.851 184.251 232.637 184.031 232.355 183.896C232.074 183.756 231.729 183.686 231.318 183.686C230.914 183.686 230.545 183.771 230.211 183.94C229.883 184.11 229.599 184.345 229.358 184.644C229.124 184.942 228.939 185.285 228.805 185.672C228.676 186.053 228.611 186.457 228.611 186.885ZM241.303 182.49V183.738H236.161V182.49H241.303ZM237.901 180.179H239.527V189.645C239.527 189.967 239.577 190.21 239.677 190.374C239.776 190.538 239.905 190.646 240.063 190.699C240.222 190.752 240.392 190.778 240.573 190.778C240.708 190.778 240.849 190.767 240.995 190.743C241.147 190.714 241.262 190.69 241.338 190.673L241.347 192C241.218 192.041 241.048 192.079 240.837 192.114C240.632 192.155 240.383 192.176 240.09 192.176C239.691 192.176 239.325 192.097 238.991 191.938C238.657 191.78 238.391 191.517 238.191 191.147C237.998 190.772 237.901 190.269 237.901 189.636V180.179ZM244.836 178.5V192H243.21V178.5H244.836ZM244.449 186.885L243.772 186.858C243.778 186.208 243.875 185.607 244.062 185.057C244.25 184.5 244.514 184.017 244.854 183.606C245.193 183.196 245.598 182.88 246.066 182.657C246.541 182.429 247.065 182.314 247.64 182.314C248.108 182.314 248.53 182.379 248.905 182.508C249.28 182.631 249.6 182.83 249.863 183.105C250.133 183.381 250.338 183.738 250.479 184.178C250.619 184.611 250.689 185.142 250.689 185.769V192H249.055V185.751C249.055 185.253 248.981 184.854 248.835 184.556C248.688 184.251 248.475 184.031 248.193 183.896C247.912 183.756 247.566 183.686 247.156 183.686C246.752 183.686 246.383 183.771 246.049 183.94C245.721 184.11 245.437 184.345 245.196 184.644C244.962 184.942 244.777 185.285 244.643 185.672C244.514 186.053 244.449 186.457 244.449 186.885ZM253.15 191.139C253.15 190.863 253.235 190.632 253.405 190.444C253.581 190.251 253.833 190.154 254.161 190.154C254.489 190.154 254.738 190.251 254.908 190.444C255.084 190.632 255.172 190.863 255.172 191.139C255.172 191.408 255.084 191.637 254.908 191.824C254.738 192.012 254.489 192.105 254.161 192.105C253.833 192.105 253.581 192.012 253.405 191.824C253.235 191.637 253.15 191.408 253.15 191.139Z" fill="#81807E"/>
</svg>
