<svg width="399" height="219" viewBox="0 0 399 219" fill="none" xmlns="http://www.w3.org/2000/svg">
<path d="M57.4219 101.361H57.9102C60.1562 101.361 62.028 101.068 63.5254 100.482C65.0391 99.8802 66.2435 99.0501 67.1387 97.9922C68.0339 96.9342 68.6768 95.6891 69.0674 94.2568C69.458 92.8245 69.6533 91.2702 69.6533 89.5938V83.4658C69.6533 82.0173 69.4987 80.7477 69.1895 79.6572C68.8965 78.5505 68.4733 77.6309 67.9199 76.8984C67.3828 76.1497 66.7562 75.5882 66.04 75.2139C65.3402 74.8395 64.5833 74.6523 63.7695 74.6523C62.8743 74.6523 62.0687 74.8558 61.3525 75.2627C60.6527 75.6533 60.0586 76.1986 59.5703 76.8984C59.0983 77.582 58.7321 78.3877 58.4717 79.3154C58.2275 80.2269 58.1055 81.2035 58.1055 82.2451C58.1055 83.2217 58.2194 84.1657 58.4473 85.0771C58.6914 85.9723 59.0495 86.7699 59.5215 87.4697C59.9935 88.1696 60.5876 88.723 61.3037 89.1299C62.0199 89.5368 62.8581 89.7402 63.8184 89.7402C64.7298 89.7402 65.568 89.5693 66.333 89.2275C67.098 88.8695 67.7653 88.3893 68.335 87.7871C68.9046 87.1849 69.3522 86.5094 69.6777 85.7607C70.0033 85.012 70.1823 84.2471 70.2148 83.4658L72.4609 84.1494C72.4609 85.3864 72.2005 86.6071 71.6797 87.8115C71.1751 88.9997 70.4671 90.0902 69.5557 91.083C68.6605 92.0596 67.6107 92.8408 66.4062 93.4268C65.2181 94.0127 63.9242 94.3057 62.5244 94.3057C60.8317 94.3057 59.3343 93.9883 58.0322 93.3535C56.7464 92.7025 55.6722 91.8236 54.8096 90.7168C53.9632 89.61 53.3285 88.3405 52.9053 86.9082C52.4821 85.4759 52.2705 83.9704 52.2705 82.3916C52.2705 80.6826 52.5309 79.0794 53.0518 77.582C53.5726 76.0846 54.3294 74.7663 55.3223 73.627C56.3151 72.4714 57.5195 71.5762 58.9355 70.9414C60.3678 70.2904 61.9873 69.9648 63.7939 69.9648C65.7145 69.9648 67.3991 70.3392 68.8477 71.0879C70.2962 71.8366 71.5169 72.8701 72.5098 74.1885C73.5026 75.5068 74.2513 77.0368 74.7559 78.7783C75.2604 80.5199 75.5127 82.3916 75.5127 84.3936V86.4688C75.5127 88.5684 75.3255 90.5947 74.9512 92.5479C74.5768 94.4847 73.9665 96.2832 73.1201 97.9434C72.29 99.5872 71.1914 101.036 69.8242 102.289C68.4733 103.526 66.8132 104.494 64.8438 105.194C62.8906 105.878 60.5957 106.22 57.959 106.22H57.4219V101.361ZM87.2803 89.4717L82.5928 88.3242L84.5215 70.4531H103.687V75.4336H89.4043L88.4277 84.1494C88.9811 83.8239 89.7461 83.5065 90.7227 83.1973C91.6992 82.8717 92.8141 82.709 94.0674 82.709C95.7438 82.709 97.2412 82.9857 98.5596 83.5391C99.8942 84.0762 101.025 84.8656 101.953 85.9072C102.881 86.9326 103.589 88.1859 104.077 89.667C104.565 91.1318 104.81 92.7839 104.81 94.623C104.81 96.2669 104.565 97.805 104.077 99.2373C103.605 100.67 102.889 101.931 101.929 103.021C100.968 104.112 99.7559 104.966 98.291 105.585C96.8424 106.187 95.1253 106.488 93.1396 106.488C91.6585 106.488 90.2344 106.277 88.8672 105.854C87.5163 105.414 86.3037 104.771 85.2295 103.925C84.1553 103.062 83.2926 102.004 82.6416 100.751C81.9906 99.4814 81.6162 98.0247 81.5186 96.3809H87.2803C87.4268 97.5365 87.7441 98.5212 88.2324 99.335C88.737 100.132 89.4043 100.743 90.2344 101.166C91.0645 101.589 92.0247 101.801 93.1152 101.801C94.1081 101.801 94.9626 101.63 95.6787 101.288C96.3949 100.93 96.9889 100.425 97.4609 99.7744C97.9492 99.1071 98.3073 98.3258 98.5352 97.4307C98.7793 96.5355 98.9014 95.5426 98.9014 94.4521C98.9014 93.4105 98.763 92.4583 98.4863 91.5957C98.2259 90.7331 97.8271 89.9844 97.29 89.3496C96.7692 88.7148 96.11 88.2266 95.3125 87.8848C94.515 87.5267 93.5954 87.3477 92.5537 87.3477C91.154 87.3477 90.0798 87.5511 89.3311 87.958C88.5986 88.3649 87.915 88.8695 87.2803 89.4717ZM109.277 79.1689V77.2891C109.277 75.9382 109.57 74.7093 110.156 73.6025C110.742 72.4958 111.597 71.6087 112.72 70.9414C113.843 70.2741 115.194 69.9404 116.772 69.9404C118.4 69.9404 119.767 70.2741 120.874 70.9414C121.997 71.6087 122.852 72.4958 123.438 73.6025C124.023 74.7093 124.316 75.9382 124.316 77.2891V79.1689C124.316 80.4873 124.023 81.6999 123.438 82.8066C122.868 83.9134 122.021 84.8005 120.898 85.4678C119.792 86.1351 118.433 86.4688 116.821 86.4688C115.226 86.4688 113.859 86.1351 112.72 85.4678C111.597 84.8005 110.742 83.9134 110.156 82.8066C109.57 81.6999 109.277 80.4873 109.277 79.1689ZM113.354 77.2891V79.1689C113.354 79.82 113.477 80.4385 113.721 81.0244C113.981 81.6104 114.372 82.0824 114.893 82.4404C115.413 82.7985 116.056 82.9775 116.821 82.9775C117.603 82.9775 118.237 82.7985 118.726 82.4404C119.23 82.0824 119.604 81.6104 119.849 81.0244C120.093 80.4385 120.215 79.82 120.215 79.1689V77.2891C120.215 76.6217 120.085 75.9951 119.824 75.4092C119.58 74.807 119.206 74.3268 118.701 73.9688C118.197 73.6107 117.554 73.4316 116.772 73.4316C116.024 73.4316 115.389 73.6107 114.868 73.9688C114.364 74.3268 113.981 74.807 113.721 75.4092C113.477 75.9951 113.354 76.6217 113.354 77.2891ZM126.416 99.1885V97.2842C126.416 95.9495 126.709 94.7288 127.295 93.6221C127.897 92.5153 128.76 91.6283 129.883 90.9609C131.006 90.2936 132.357 89.96 133.936 89.96C135.563 89.96 136.93 90.2936 138.037 90.9609C139.16 91.6283 140.007 92.5153 140.576 93.6221C141.162 94.7288 141.455 95.9495 141.455 97.2842V99.1885C141.455 100.523 141.162 101.744 140.576 102.851C140.007 103.957 139.168 104.844 138.062 105.512C136.955 106.179 135.604 106.513 134.009 106.513C132.397 106.513 131.022 106.179 129.883 105.512C128.76 104.844 127.897 103.957 127.295 102.851C126.709 101.744 126.416 100.523 126.416 99.1885ZM130.518 97.2842V99.1885C130.518 99.8395 130.648 100.458 130.908 101.044C131.185 101.63 131.584 102.11 132.104 102.484C132.625 102.842 133.252 103.021 133.984 103.021C134.814 103.021 135.482 102.842 135.986 102.484C136.491 102.11 136.849 101.638 137.061 101.068C137.288 100.482 137.402 99.8558 137.402 99.1885V97.2842C137.402 96.6169 137.272 95.9902 137.012 95.4043C136.768 94.8184 136.385 94.3464 135.864 93.9883C135.36 93.6302 134.717 93.4512 133.936 93.4512C133.171 93.4512 132.536 93.6302 132.031 93.9883C131.527 94.3464 131.144 94.8184 130.884 95.4043C130.64 95.9902 130.518 96.6169 130.518 97.2842ZM135.4 75.5312L118.042 103.314L115.039 101.581L132.397 73.7979L135.4 75.5312Z" fill="white"/>
<path d="M59.2109 137.931H60.8984C60.8105 138.739 60.5791 139.463 60.2041 140.102C59.8291 140.74 59.2988 141.247 58.6133 141.622C57.9277 141.991 57.0723 142.176 56.0469 142.176C55.2969 142.176 54.6143 142.035 53.999 141.754C53.3896 141.473 52.8652 141.074 52.4258 140.559C51.9863 140.037 51.6465 139.413 51.4062 138.687C51.1719 137.954 51.0547 137.14 51.0547 136.243V134.969C51.0547 134.072 51.1719 133.261 51.4062 132.534C51.6465 131.802 51.9893 131.175 52.4346 130.653C52.8857 130.132 53.4277 129.73 54.0605 129.449C54.6934 129.168 55.4053 129.027 56.1963 129.027C57.1631 129.027 57.9805 129.209 58.6484 129.572C59.3164 129.936 59.835 130.439 60.2041 131.084C60.5791 131.723 60.8105 132.464 60.8984 133.308H59.2109C59.1289 132.71 58.9766 132.197 58.7539 131.77C58.5312 131.336 58.2148 131.002 57.8047 130.768C57.3945 130.533 56.8584 130.416 56.1963 130.416C55.6279 130.416 55.127 130.524 54.6934 130.741C54.2656 130.958 53.9053 131.266 53.6123 131.664C53.3252 132.062 53.1084 132.54 52.9619 133.097C52.8154 133.653 52.7422 134.271 52.7422 134.951V136.243C52.7422 136.87 52.8066 137.459 52.9355 138.01C53.0703 138.561 53.2725 139.044 53.542 139.46C53.8115 139.876 54.1543 140.204 54.5703 140.444C54.9863 140.679 55.4785 140.796 56.0469 140.796C56.7676 140.796 57.3418 140.682 57.7695 140.453C58.1973 140.225 58.5195 139.896 58.7363 139.469C58.959 139.041 59.1172 138.528 59.2109 137.931ZM68.7822 139.803V132.49H70.417V142H68.8613L68.7822 139.803ZM69.0898 137.799L69.7666 137.781C69.7666 138.414 69.6992 139 69.5645 139.539C69.4355 140.072 69.2246 140.535 68.9316 140.928C68.6387 141.32 68.2549 141.628 67.7803 141.851C67.3057 142.067 66.7285 142.176 66.0488 142.176C65.5859 142.176 65.1611 142.108 64.7744 141.974C64.3936 141.839 64.0654 141.631 63.79 141.35C63.5146 141.068 63.3008 140.702 63.1484 140.251C63.002 139.8 62.9287 139.258 62.9287 138.625V132.49H64.5547V138.643C64.5547 139.07 64.6016 139.425 64.6953 139.706C64.7949 139.981 64.9268 140.201 65.0908 140.365C65.2607 140.523 65.4482 140.635 65.6533 140.699C65.8643 140.764 66.0811 140.796 66.3037 140.796C66.9951 140.796 67.543 140.664 67.9473 140.4C68.3516 140.131 68.6416 139.771 68.8174 139.319C68.999 138.862 69.0898 138.355 69.0898 137.799ZM78.4326 139.478C78.4326 139.243 78.3799 139.026 78.2744 138.827C78.1748 138.622 77.9668 138.438 77.6504 138.273C77.3398 138.104 76.8711 137.957 76.2441 137.834C75.7168 137.723 75.2393 137.591 74.8115 137.438C74.3896 137.286 74.0293 137.102 73.7305 136.885C73.4375 136.668 73.2119 136.413 73.0537 136.12C72.8955 135.827 72.8164 135.484 72.8164 135.092C72.8164 134.717 72.8984 134.362 73.0625 134.028C73.2324 133.694 73.4697 133.398 73.7744 133.141C74.085 132.883 74.457 132.681 74.8906 132.534C75.3242 132.388 75.8076 132.314 76.3408 132.314C77.1025 132.314 77.7529 132.449 78.292 132.719C78.8311 132.988 79.2441 133.349 79.5312 133.8C79.8184 134.245 79.9619 134.74 79.9619 135.285H78.3359C78.3359 135.021 78.2568 134.767 78.0986 134.521C77.9463 134.269 77.7207 134.061 77.4219 133.896C77.1289 133.732 76.7686 133.65 76.3408 133.65C75.8896 133.65 75.5234 133.721 75.2422 133.861C74.9668 133.996 74.7646 134.169 74.6357 134.38C74.5127 134.591 74.4512 134.813 74.4512 135.048C74.4512 135.224 74.4805 135.382 74.5391 135.522C74.6035 135.657 74.7148 135.783 74.873 135.9C75.0312 136.012 75.2539 136.117 75.541 136.217C75.8281 136.316 76.1943 136.416 76.6396 136.516C77.4189 136.691 78.0605 136.902 78.5645 137.148C79.0684 137.395 79.4434 137.696 79.6895 138.054C79.9355 138.411 80.0586 138.845 80.0586 139.354C80.0586 139.771 79.9707 140.151 79.7949 140.497C79.625 140.843 79.376 141.142 79.0479 141.394C78.7256 141.64 78.3389 141.833 77.8877 141.974C77.4424 142.108 76.9414 142.176 76.3848 142.176C75.5469 142.176 74.8379 142.026 74.2578 141.728C73.6777 141.429 73.2383 141.042 72.9395 140.567C72.6406 140.093 72.4912 139.592 72.4912 139.064H74.126C74.1494 139.51 74.2783 139.864 74.5127 140.128C74.7471 140.386 75.0342 140.57 75.374 140.682C75.7139 140.787 76.0508 140.84 76.3848 140.84C76.8301 140.84 77.2021 140.781 77.501 140.664C77.8057 140.547 78.0371 140.386 78.1953 140.181C78.3535 139.976 78.4326 139.741 78.4326 139.478ZM86.1758 132.49V133.738H81.0342V132.49H86.1758ZM82.7744 130.179H84.4004V139.645C84.4004 139.967 84.4502 140.21 84.5498 140.374C84.6494 140.538 84.7783 140.646 84.9365 140.699C85.0947 140.752 85.2646 140.778 85.4463 140.778C85.5811 140.778 85.7217 140.767 85.8682 140.743C86.0205 140.714 86.1348 140.69 86.2109 140.673L86.2197 142C86.0908 142.041 85.9209 142.079 85.71 142.114C85.5049 142.155 85.2559 142.176 84.9629 142.176C84.5645 142.176 84.1982 142.097 83.8643 141.938C83.5303 141.78 83.2637 141.517 83.0645 141.147C82.8711 140.772 82.7744 140.269 82.7744 139.636V130.179ZM87.4766 137.351V137.148C87.4766 136.463 87.5762 135.827 87.7754 135.241C87.9746 134.649 88.2617 134.137 88.6367 133.703C89.0117 133.264 89.4658 132.924 89.999 132.684C90.5322 132.438 91.1299 132.314 91.792 132.314C92.46 132.314 93.0605 132.438 93.5938 132.684C94.1328 132.924 94.5898 133.264 94.9648 133.703C95.3457 134.137 95.6357 134.649 95.835 135.241C96.0342 135.827 96.1338 136.463 96.1338 137.148V137.351C96.1338 138.036 96.0342 138.672 95.835 139.258C95.6357 139.844 95.3457 140.356 94.9648 140.796C94.5898 141.229 94.1357 141.569 93.6025 141.815C93.0752 142.056 92.4775 142.176 91.8096 142.176C91.1416 142.176 90.541 142.056 90.0078 141.815C89.4746 141.569 89.0176 141.229 88.6367 140.796C88.2617 140.356 87.9746 139.844 87.7754 139.258C87.5762 138.672 87.4766 138.036 87.4766 137.351ZM89.1025 137.148V137.351C89.1025 137.825 89.1582 138.273 89.2695 138.695C89.3809 139.111 89.5479 139.48 89.7705 139.803C89.999 140.125 90.2832 140.38 90.623 140.567C90.9629 140.749 91.3584 140.84 91.8096 140.84C92.2549 140.84 92.6445 140.749 92.9785 140.567C93.3184 140.38 93.5996 140.125 93.8223 139.803C94.0449 139.48 94.2119 139.111 94.3232 138.695C94.4404 138.273 94.499 137.825 94.499 137.351V137.148C94.499 136.68 94.4404 136.237 94.3232 135.821C94.2119 135.399 94.042 135.027 93.8135 134.705C93.5908 134.377 93.3096 134.119 92.9697 133.932C92.6357 133.744 92.2432 133.65 91.792 133.65C91.3467 133.65 90.9541 133.744 90.6143 133.932C90.2803 134.119 89.999 134.377 89.7705 134.705C89.5479 135.027 89.3809 135.399 89.2695 135.821C89.1582 136.237 89.1025 136.68 89.1025 137.148ZM99.79 134.38V142H98.1553V132.49H99.7021L99.79 134.38ZM99.4561 136.885L98.7002 136.858C98.7061 136.208 98.791 135.607 98.9551 135.057C99.1191 134.5 99.3623 134.017 99.6846 133.606C100.007 133.196 100.408 132.88 100.889 132.657C101.369 132.429 101.926 132.314 102.559 132.314C103.004 132.314 103.414 132.379 103.789 132.508C104.164 132.631 104.489 132.827 104.765 133.097C105.04 133.366 105.254 133.712 105.406 134.134C105.559 134.556 105.635 135.065 105.635 135.663V142H104.009V135.742C104.009 135.244 103.924 134.846 103.754 134.547C103.59 134.248 103.355 134.031 103.051 133.896C102.746 133.756 102.389 133.686 101.979 133.686C101.498 133.686 101.097 133.771 100.774 133.94C100.452 134.11 100.194 134.345 100.001 134.644C99.8076 134.942 99.667 135.285 99.5791 135.672C99.4971 136.053 99.4561 136.457 99.4561 136.885ZM105.617 135.988L104.527 136.322C104.533 135.801 104.618 135.3 104.782 134.819C104.952 134.339 105.195 133.911 105.512 133.536C105.834 133.161 106.229 132.865 106.698 132.648C107.167 132.426 107.703 132.314 108.307 132.314C108.816 132.314 109.268 132.382 109.66 132.517C110.059 132.651 110.393 132.859 110.662 133.141C110.938 133.416 111.146 133.771 111.286 134.204C111.427 134.638 111.497 135.153 111.497 135.751V142H109.862V135.733C109.862 135.2 109.777 134.787 109.607 134.494C109.443 134.195 109.209 133.987 108.904 133.87C108.605 133.747 108.248 133.686 107.832 133.686C107.475 133.686 107.158 133.747 106.883 133.87C106.607 133.993 106.376 134.163 106.188 134.38C106.001 134.591 105.857 134.834 105.758 135.109C105.664 135.385 105.617 135.678 105.617 135.988ZM117.904 142.176C117.242 142.176 116.642 142.064 116.103 141.842C115.569 141.613 115.109 141.294 114.723 140.884C114.342 140.474 114.049 139.987 113.844 139.425C113.639 138.862 113.536 138.247 113.536 137.579V137.21C113.536 136.437 113.65 135.748 113.879 135.145C114.107 134.535 114.418 134.02 114.811 133.598C115.203 133.176 115.648 132.856 116.146 132.64C116.645 132.423 117.16 132.314 117.693 132.314C118.373 132.314 118.959 132.432 119.451 132.666C119.949 132.9 120.356 133.229 120.673 133.65C120.989 134.066 121.224 134.559 121.376 135.127C121.528 135.689 121.604 136.305 121.604 136.973V137.702H114.503V136.375H119.979V136.252C119.955 135.83 119.867 135.42 119.715 135.021C119.568 134.623 119.334 134.295 119.012 134.037C118.689 133.779 118.25 133.65 117.693 133.65C117.324 133.65 116.984 133.729 116.674 133.888C116.363 134.04 116.097 134.269 115.874 134.573C115.651 134.878 115.479 135.25 115.355 135.689C115.232 136.129 115.171 136.636 115.171 137.21V137.579C115.171 138.03 115.232 138.455 115.355 138.854C115.484 139.246 115.669 139.592 115.909 139.891C116.155 140.189 116.451 140.424 116.797 140.594C117.148 140.764 117.547 140.849 117.992 140.849C118.566 140.849 119.053 140.731 119.451 140.497C119.85 140.263 120.198 139.949 120.497 139.557L121.481 140.339C121.276 140.649 121.016 140.945 120.699 141.227C120.383 141.508 119.993 141.736 119.53 141.912C119.073 142.088 118.531 142.176 117.904 142.176ZM125.129 133.984V142H123.503V132.49H125.085L125.129 133.984ZM128.1 132.438L128.091 133.949C127.956 133.92 127.827 133.902 127.704 133.896C127.587 133.885 127.452 133.879 127.3 133.879C126.925 133.879 126.594 133.938 126.307 134.055C126.02 134.172 125.776 134.336 125.577 134.547C125.378 134.758 125.22 135.01 125.103 135.303C124.991 135.59 124.918 135.906 124.883 136.252L124.426 136.516C124.426 135.941 124.481 135.402 124.593 134.898C124.71 134.395 124.889 133.949 125.129 133.562C125.369 133.17 125.674 132.865 126.043 132.648C126.418 132.426 126.863 132.314 127.379 132.314C127.496 132.314 127.631 132.329 127.783 132.358C127.936 132.382 128.041 132.408 128.1 132.438ZM141.134 138.766C141.134 138.467 141.087 138.203 140.993 137.975C140.905 137.74 140.747 137.529 140.519 137.342C140.296 137.154 139.985 136.976 139.587 136.806C139.194 136.636 138.696 136.463 138.093 136.287C137.46 136.1 136.889 135.892 136.379 135.663C135.869 135.429 135.433 135.162 135.069 134.863C134.706 134.564 134.428 134.222 134.234 133.835C134.041 133.448 133.944 133.006 133.944 132.508C133.944 132.01 134.047 131.55 134.252 131.128C134.457 130.706 134.75 130.34 135.131 130.029C135.518 129.713 135.978 129.467 136.511 129.291C137.044 129.115 137.639 129.027 138.295 129.027C139.256 129.027 140.07 129.212 140.738 129.581C141.412 129.944 141.925 130.422 142.276 131.014C142.628 131.6 142.804 132.227 142.804 132.895H141.116C141.116 132.414 141.014 131.989 140.809 131.62C140.604 131.245 140.293 130.952 139.877 130.741C139.461 130.524 138.934 130.416 138.295 130.416C137.691 130.416 137.193 130.507 136.801 130.688C136.408 130.87 136.115 131.116 135.922 131.427C135.734 131.737 135.641 132.092 135.641 132.49C135.641 132.76 135.696 133.006 135.808 133.229C135.925 133.445 136.104 133.647 136.344 133.835C136.59 134.022 136.9 134.195 137.275 134.354C137.656 134.512 138.11 134.664 138.638 134.811C139.364 135.016 139.991 135.244 140.519 135.496C141.046 135.748 141.479 136.032 141.819 136.349C142.165 136.659 142.42 137.014 142.584 137.412C142.754 137.805 142.839 138.25 142.839 138.748C142.839 139.27 142.733 139.741 142.522 140.163C142.312 140.585 142.01 140.945 141.617 141.244C141.225 141.543 140.753 141.774 140.202 141.938C139.657 142.097 139.048 142.176 138.374 142.176C137.782 142.176 137.199 142.094 136.625 141.93C136.057 141.766 135.538 141.52 135.069 141.191C134.606 140.863 134.234 140.459 133.953 139.979C133.678 139.492 133.54 138.93 133.54 138.291H135.228C135.228 138.73 135.312 139.108 135.482 139.425C135.652 139.735 135.884 139.993 136.177 140.198C136.476 140.403 136.812 140.556 137.188 140.655C137.568 140.749 137.964 140.796 138.374 140.796C138.966 140.796 139.467 140.714 139.877 140.55C140.287 140.386 140.598 140.151 140.809 139.847C141.025 139.542 141.134 139.182 141.134 138.766ZM150.362 140.374V135.479C150.362 135.104 150.286 134.778 150.134 134.503C149.987 134.222 149.765 134.005 149.466 133.853C149.167 133.7 148.798 133.624 148.358 133.624C147.948 133.624 147.588 133.694 147.277 133.835C146.973 133.976 146.732 134.16 146.557 134.389C146.387 134.617 146.302 134.863 146.302 135.127H144.676C144.676 134.787 144.764 134.45 144.939 134.116C145.115 133.782 145.367 133.48 145.695 133.211C146.029 132.936 146.428 132.719 146.891 132.561C147.359 132.396 147.881 132.314 148.455 132.314C149.146 132.314 149.756 132.432 150.283 132.666C150.816 132.9 151.232 133.255 151.531 133.729C151.836 134.198 151.988 134.787 151.988 135.496V139.926C151.988 140.242 152.015 140.579 152.067 140.937C152.126 141.294 152.211 141.602 152.322 141.859V142H150.626C150.544 141.812 150.479 141.563 150.433 141.253C150.386 140.937 150.362 140.644 150.362 140.374ZM150.644 136.234L150.661 137.377H149.018C148.555 137.377 148.142 137.415 147.778 137.491C147.415 137.562 147.11 137.67 146.864 137.816C146.618 137.963 146.431 138.147 146.302 138.37C146.173 138.587 146.108 138.842 146.108 139.135C146.108 139.434 146.176 139.706 146.311 139.952C146.445 140.198 146.647 140.395 146.917 140.541C147.192 140.682 147.529 140.752 147.928 140.752C148.426 140.752 148.865 140.646 149.246 140.436C149.627 140.225 149.929 139.967 150.151 139.662C150.38 139.357 150.503 139.062 150.521 138.774L151.215 139.557C151.174 139.803 151.062 140.075 150.881 140.374C150.699 140.673 150.456 140.96 150.151 141.235C149.853 141.505 149.495 141.73 149.079 141.912C148.669 142.088 148.206 142.176 147.69 142.176C147.046 142.176 146.48 142.05 145.994 141.798C145.514 141.546 145.139 141.209 144.869 140.787C144.605 140.359 144.474 139.882 144.474 139.354C144.474 138.845 144.573 138.396 144.772 138.01C144.972 137.617 145.259 137.292 145.634 137.034C146.009 136.771 146.46 136.571 146.987 136.437C147.515 136.302 148.104 136.234 148.754 136.234H150.644ZM158.527 132.49V133.738H153.386V132.49H158.527ZM155.126 130.179H156.752V139.645C156.752 139.967 156.802 140.21 156.901 140.374C157.001 140.538 157.13 140.646 157.288 140.699C157.446 140.752 157.616 140.778 157.798 140.778C157.933 140.778 158.073 140.767 158.22 140.743C158.372 140.714 158.486 140.69 158.562 140.673L158.571 142C158.442 142.041 158.272 142.079 158.062 142.114C157.856 142.155 157.607 142.176 157.314 142.176C156.916 142.176 156.55 142.097 156.216 141.938C155.882 141.78 155.615 141.517 155.416 141.147C155.223 140.772 155.126 140.269 155.126 139.636V130.179ZM162.201 132.49V142H160.566V132.49H162.201ZM160.443 129.968C160.443 129.704 160.522 129.481 160.681 129.3C160.845 129.118 161.085 129.027 161.401 129.027C161.712 129.027 161.949 129.118 162.113 129.3C162.283 129.481 162.368 129.704 162.368 129.968C162.368 130.22 162.283 130.437 162.113 130.618C161.949 130.794 161.712 130.882 161.401 130.882C161.085 130.882 160.845 130.794 160.681 130.618C160.522 130.437 160.443 130.22 160.443 129.968ZM170.349 139.478C170.349 139.243 170.296 139.026 170.19 138.827C170.091 138.622 169.883 138.438 169.566 138.273C169.256 138.104 168.787 137.957 168.16 137.834C167.633 137.723 167.155 137.591 166.728 137.438C166.306 137.286 165.945 137.102 165.646 136.885C165.354 136.668 165.128 136.413 164.97 136.12C164.812 135.827 164.732 135.484 164.732 135.092C164.732 134.717 164.814 134.362 164.979 134.028C165.148 133.694 165.386 133.398 165.69 133.141C166.001 132.883 166.373 132.681 166.807 132.534C167.24 132.388 167.724 132.314 168.257 132.314C169.019 132.314 169.669 132.449 170.208 132.719C170.747 132.988 171.16 133.349 171.447 133.8C171.734 134.245 171.878 134.74 171.878 135.285H170.252C170.252 135.021 170.173 134.767 170.015 134.521C169.862 134.269 169.637 134.061 169.338 133.896C169.045 133.732 168.685 133.65 168.257 133.65C167.806 133.65 167.439 133.721 167.158 133.861C166.883 133.996 166.681 134.169 166.552 134.38C166.429 134.591 166.367 134.813 166.367 135.048C166.367 135.224 166.396 135.382 166.455 135.522C166.52 135.657 166.631 135.783 166.789 135.9C166.947 136.012 167.17 136.117 167.457 136.217C167.744 136.316 168.11 136.416 168.556 136.516C169.335 136.691 169.977 136.902 170.48 137.148C170.984 137.395 171.359 137.696 171.605 138.054C171.852 138.411 171.975 138.845 171.975 139.354C171.975 139.771 171.887 140.151 171.711 140.497C171.541 140.843 171.292 141.142 170.964 141.394C170.642 141.64 170.255 141.833 169.804 141.974C169.358 142.108 168.857 142.176 168.301 142.176C167.463 142.176 166.754 142.026 166.174 141.728C165.594 141.429 165.154 141.042 164.855 140.567C164.557 140.093 164.407 139.592 164.407 139.064H166.042C166.065 139.51 166.194 139.864 166.429 140.128C166.663 140.386 166.95 140.57 167.29 140.682C167.63 140.787 167.967 140.84 168.301 140.84C168.746 140.84 169.118 140.781 169.417 140.664C169.722 140.547 169.953 140.386 170.111 140.181C170.27 139.976 170.349 139.741 170.349 139.478ZM176.536 142H174.91V131.488C174.91 130.803 175.033 130.226 175.279 129.757C175.531 129.282 175.892 128.925 176.36 128.685C176.829 128.438 177.386 128.315 178.03 128.315C178.218 128.315 178.405 128.327 178.593 128.351C178.786 128.374 178.974 128.409 179.155 128.456L179.067 129.783C178.944 129.754 178.804 129.733 178.646 129.722C178.493 129.71 178.341 129.704 178.188 129.704C177.843 129.704 177.544 129.774 177.292 129.915C177.046 130.05 176.858 130.249 176.729 130.513C176.601 130.776 176.536 131.102 176.536 131.488V142ZM178.558 132.49V133.738H173.407V132.49H178.558ZM185.976 140.374V135.479C185.976 135.104 185.899 134.778 185.747 134.503C185.601 134.222 185.378 134.005 185.079 133.853C184.78 133.7 184.411 133.624 183.972 133.624C183.562 133.624 183.201 133.694 182.891 133.835C182.586 133.976 182.346 134.16 182.17 134.389C182 134.617 181.915 134.863 181.915 135.127H180.289C180.289 134.787 180.377 134.45 180.553 134.116C180.729 133.782 180.98 133.48 181.309 133.211C181.643 132.936 182.041 132.719 182.504 132.561C182.973 132.396 183.494 132.314 184.068 132.314C184.76 132.314 185.369 132.432 185.896 132.666C186.43 132.9 186.846 133.255 187.145 133.729C187.449 134.198 187.602 134.787 187.602 135.496V139.926C187.602 140.242 187.628 140.579 187.681 140.937C187.739 141.294 187.824 141.602 187.936 141.859V142H186.239C186.157 141.812 186.093 141.563 186.046 141.253C185.999 140.937 185.976 140.644 185.976 140.374ZM186.257 136.234L186.274 137.377H184.631C184.168 137.377 183.755 137.415 183.392 137.491C183.028 137.562 182.724 137.67 182.478 137.816C182.231 137.963 182.044 138.147 181.915 138.37C181.786 138.587 181.722 138.842 181.722 139.135C181.722 139.434 181.789 139.706 181.924 139.952C182.059 140.198 182.261 140.395 182.53 140.541C182.806 140.682 183.143 140.752 183.541 140.752C184.039 140.752 184.479 140.646 184.859 140.436C185.24 140.225 185.542 139.967 185.765 139.662C185.993 139.357 186.116 139.062 186.134 138.774L186.828 139.557C186.787 139.803 186.676 140.075 186.494 140.374C186.312 140.673 186.069 140.96 185.765 141.235C185.466 141.505 185.108 141.73 184.692 141.912C184.282 142.088 183.819 142.176 183.304 142.176C182.659 142.176 182.094 142.05 181.607 141.798C181.127 141.546 180.752 141.209 180.482 140.787C180.219 140.359 180.087 139.882 180.087 139.354C180.087 138.845 180.187 138.396 180.386 138.01C180.585 137.617 180.872 137.292 181.247 137.034C181.622 136.771 182.073 136.571 182.601 136.437C183.128 136.302 183.717 136.234 184.367 136.234H186.257ZM193.965 140.84C194.352 140.84 194.709 140.761 195.037 140.603C195.365 140.444 195.635 140.228 195.846 139.952C196.057 139.671 196.177 139.352 196.206 138.994H197.753C197.724 139.557 197.533 140.081 197.182 140.567C196.836 141.048 196.382 141.438 195.819 141.736C195.257 142.029 194.639 142.176 193.965 142.176C193.25 142.176 192.626 142.05 192.093 141.798C191.565 141.546 191.126 141.2 190.774 140.761C190.429 140.321 190.168 139.817 189.992 139.249C189.822 138.675 189.737 138.068 189.737 137.43V137.061C189.737 136.422 189.822 135.818 189.992 135.25C190.168 134.676 190.429 134.169 190.774 133.729C191.126 133.29 191.565 132.944 192.093 132.692C192.626 132.44 193.25 132.314 193.965 132.314C194.709 132.314 195.359 132.467 195.916 132.771C196.473 133.07 196.909 133.48 197.226 134.002C197.548 134.518 197.724 135.104 197.753 135.76H196.206C196.177 135.367 196.065 135.013 195.872 134.696C195.685 134.38 195.427 134.128 195.099 133.94C194.776 133.747 194.398 133.65 193.965 133.65C193.467 133.65 193.048 133.75 192.708 133.949C192.374 134.143 192.107 134.406 191.908 134.74C191.715 135.068 191.574 135.435 191.486 135.839C191.404 136.237 191.363 136.645 191.363 137.061V137.43C191.363 137.846 191.404 138.256 191.486 138.66C191.568 139.064 191.706 139.431 191.899 139.759C192.099 140.087 192.365 140.351 192.699 140.55C193.039 140.743 193.461 140.84 193.965 140.84ZM203.562 132.49V133.738H198.421V132.49H203.562ZM200.161 130.179H201.787V139.645C201.787 139.967 201.837 140.21 201.937 140.374C202.036 140.538 202.165 140.646 202.323 140.699C202.481 140.752 202.651 140.778 202.833 140.778C202.968 140.778 203.108 140.767 203.255 140.743C203.407 140.714 203.521 140.69 203.598 140.673L203.606 142C203.478 142.041 203.308 142.079 203.097 142.114C202.892 142.155 202.643 142.176 202.35 142.176C201.951 142.176 201.585 142.097 201.251 141.938C200.917 141.78 200.65 141.517 200.451 141.147C200.258 140.772 200.161 140.269 200.161 139.636V130.179ZM207.236 132.49V142H205.602V132.49H207.236ZM205.479 129.968C205.479 129.704 205.558 129.481 205.716 129.3C205.88 129.118 206.12 129.027 206.437 129.027C206.747 129.027 206.984 129.118 207.148 129.3C207.318 129.481 207.403 129.704 207.403 129.968C207.403 130.22 207.318 130.437 207.148 130.618C206.984 130.794 206.747 130.882 206.437 130.882C206.12 130.882 205.88 130.794 205.716 130.618C205.558 130.437 205.479 130.22 205.479 129.968ZM209.416 137.351V137.148C209.416 136.463 209.516 135.827 209.715 135.241C209.914 134.649 210.201 134.137 210.576 133.703C210.951 133.264 211.405 132.924 211.938 132.684C212.472 132.438 213.069 132.314 213.731 132.314C214.399 132.314 215 132.438 215.533 132.684C216.072 132.924 216.529 133.264 216.904 133.703C217.285 134.137 217.575 134.649 217.774 135.241C217.974 135.827 218.073 136.463 218.073 137.148V137.351C218.073 138.036 217.974 138.672 217.774 139.258C217.575 139.844 217.285 140.356 216.904 140.796C216.529 141.229 216.075 141.569 215.542 141.815C215.015 142.056 214.417 142.176 213.749 142.176C213.081 142.176 212.48 142.056 211.947 141.815C211.414 141.569 210.957 141.229 210.576 140.796C210.201 140.356 209.914 139.844 209.715 139.258C209.516 138.672 209.416 138.036 209.416 137.351ZM211.042 137.148V137.351C211.042 137.825 211.098 138.273 211.209 138.695C211.32 139.111 211.487 139.48 211.71 139.803C211.938 140.125 212.223 140.38 212.562 140.567C212.902 140.749 213.298 140.84 213.749 140.84C214.194 140.84 214.584 140.749 214.918 140.567C215.258 140.38 215.539 140.125 215.762 139.803C215.984 139.48 216.151 139.111 216.263 138.695C216.38 138.273 216.438 137.825 216.438 137.351V137.148C216.438 136.68 216.38 136.237 216.263 135.821C216.151 135.399 215.981 135.027 215.753 134.705C215.53 134.377 215.249 134.119 214.909 133.932C214.575 133.744 214.183 133.65 213.731 133.65C213.286 133.65 212.894 133.744 212.554 133.932C212.22 134.119 211.938 134.377 211.71 134.705C211.487 135.027 211.32 135.399 211.209 135.821C211.098 136.237 211.042 136.68 211.042 137.148ZM221.738 134.521V142H220.112V132.49H221.65L221.738 134.521ZM221.352 136.885L220.675 136.858C220.681 136.208 220.777 135.607 220.965 135.057C221.152 134.5 221.416 134.017 221.756 133.606C222.096 133.196 222.5 132.88 222.969 132.657C223.443 132.429 223.968 132.314 224.542 132.314C225.011 132.314 225.433 132.379 225.808 132.508C226.183 132.631 226.502 132.83 226.766 133.105C227.035 133.381 227.24 133.738 227.381 134.178C227.521 134.611 227.592 135.142 227.592 135.769V142H225.957V135.751C225.957 135.253 225.884 134.854 225.737 134.556C225.591 134.251 225.377 134.031 225.096 133.896C224.814 133.756 224.469 133.686 224.059 133.686C223.654 133.686 223.285 133.771 222.951 133.94C222.623 134.11 222.339 134.345 222.099 134.644C221.864 134.942 221.68 135.285 221.545 135.672C221.416 136.053 221.352 136.457 221.352 136.885ZM234.772 129.203H239.009C239.97 129.203 240.781 129.35 241.443 129.643C242.111 129.936 242.618 130.369 242.964 130.943C243.315 131.512 243.491 132.212 243.491 133.044C243.491 133.63 243.371 134.166 243.131 134.652C242.896 135.133 242.557 135.543 242.111 135.883C241.672 136.217 241.145 136.466 240.529 136.63L240.055 136.814H236.073L236.056 135.435H239.062C239.671 135.435 240.178 135.329 240.582 135.118C240.986 134.901 241.291 134.611 241.496 134.248C241.701 133.885 241.804 133.483 241.804 133.044C241.804 132.552 241.707 132.121 241.514 131.752C241.32 131.383 241.016 131.099 240.6 130.899C240.189 130.694 239.659 130.592 239.009 130.592H236.469V142H234.772V129.203ZM242.252 142L239.141 136.199L240.907 136.19L244.062 141.895V142H242.252ZM251.226 140.374V135.479C251.226 135.104 251.149 134.778 250.997 134.503C250.851 134.222 250.628 134.005 250.329 133.853C250.03 133.7 249.661 133.624 249.222 133.624C248.812 133.624 248.451 133.694 248.141 133.835C247.836 133.976 247.596 134.16 247.42 134.389C247.25 134.617 247.165 134.863 247.165 135.127H245.539C245.539 134.787 245.627 134.45 245.803 134.116C245.979 133.782 246.23 133.48 246.559 133.211C246.893 132.936 247.291 132.719 247.754 132.561C248.223 132.396 248.744 132.314 249.318 132.314C250.01 132.314 250.619 132.432 251.146 132.666C251.68 132.9 252.096 133.255 252.395 133.729C252.699 134.198 252.852 134.787 252.852 135.496V139.926C252.852 140.242 252.878 140.579 252.931 140.937C252.989 141.294 253.074 141.602 253.186 141.859V142H251.489C251.407 141.812 251.343 141.563 251.296 141.253C251.249 140.937 251.226 140.644 251.226 140.374ZM251.507 136.234L251.524 137.377H249.881C249.418 137.377 249.005 137.415 248.642 137.491C248.278 137.562 247.974 137.67 247.728 137.816C247.481 137.963 247.294 138.147 247.165 138.37C247.036 138.587 246.972 138.842 246.972 139.135C246.972 139.434 247.039 139.706 247.174 139.952C247.309 140.198 247.511 140.395 247.78 140.541C248.056 140.682 248.393 140.752 248.791 140.752C249.289 140.752 249.729 140.646 250.109 140.436C250.49 140.225 250.792 139.967 251.015 139.662C251.243 139.357 251.366 139.062 251.384 138.774L252.078 139.557C252.037 139.803 251.926 140.075 251.744 140.374C251.562 140.673 251.319 140.96 251.015 141.235C250.716 141.505 250.358 141.73 249.942 141.912C249.532 142.088 249.069 142.176 248.554 142.176C247.909 142.176 247.344 142.05 246.857 141.798C246.377 141.546 246.002 141.209 245.732 140.787C245.469 140.359 245.337 139.882 245.337 139.354C245.337 138.845 245.437 138.396 245.636 138.01C245.835 137.617 246.122 137.292 246.497 137.034C246.872 136.771 247.323 136.571 247.851 136.437C248.378 136.302 248.967 136.234 249.617 136.234H251.507ZM259.391 132.49V133.738H254.249V132.49H259.391ZM255.989 130.179H257.615V139.645C257.615 139.967 257.665 140.21 257.765 140.374C257.864 140.538 257.993 140.646 258.151 140.699C258.31 140.752 258.479 140.778 258.661 140.778C258.796 140.778 258.937 140.767 259.083 140.743C259.235 140.714 259.35 140.69 259.426 140.673L259.435 142C259.306 142.041 259.136 142.079 258.925 142.114C258.72 142.155 258.471 142.176 258.178 142.176C257.779 142.176 257.413 142.097 257.079 141.938C256.745 141.78 256.479 141.517 256.279 141.147C256.086 140.772 255.989 140.269 255.989 139.636V130.179ZM265.244 142.176C264.582 142.176 263.981 142.064 263.442 141.842C262.909 141.613 262.449 141.294 262.062 140.884C261.682 140.474 261.389 139.987 261.184 139.425C260.979 138.862 260.876 138.247 260.876 137.579V137.21C260.876 136.437 260.99 135.748 261.219 135.145C261.447 134.535 261.758 134.02 262.15 133.598C262.543 133.176 262.988 132.856 263.486 132.64C263.984 132.423 264.5 132.314 265.033 132.314C265.713 132.314 266.299 132.432 266.791 132.666C267.289 132.9 267.696 133.229 268.013 133.65C268.329 134.066 268.563 134.559 268.716 135.127C268.868 135.689 268.944 136.305 268.944 136.973V137.702H261.843V136.375H267.318V136.252C267.295 135.83 267.207 135.42 267.055 135.021C266.908 134.623 266.674 134.295 266.352 134.037C266.029 133.779 265.59 133.65 265.033 133.65C264.664 133.65 264.324 133.729 264.014 133.888C263.703 134.04 263.437 134.269 263.214 134.573C262.991 134.878 262.818 135.25 262.695 135.689C262.572 136.129 262.511 136.636 262.511 137.21V137.579C262.511 138.03 262.572 138.455 262.695 138.854C262.824 139.246 263.009 139.592 263.249 139.891C263.495 140.189 263.791 140.424 264.137 140.594C264.488 140.764 264.887 140.849 265.332 140.849C265.906 140.849 266.393 140.731 266.791 140.497C267.189 140.263 267.538 139.949 267.837 139.557L268.821 140.339C268.616 140.649 268.355 140.945 268.039 141.227C267.723 141.508 267.333 141.736 266.87 141.912C266.413 142.088 265.871 142.176 265.244 142.176Z" fill="#81807E"/>
</svg>
