<svg width="60" height="61" viewBox="0 0 60 61" fill="none" xmlns="http://www.w3.org/2000/svg">
<rect y="0.5" width="60" height="60" rx="12" fill="#1A1A1A"/>
<path d="M20.25 20.75C19.8358 20.75 19.5 21.0858 19.5 21.5C19.5 21.9142 19.8358 22.25 20.25 22.25H21.6357C21.8056 22.25 21.9543 22.3642 21.998 22.5284L24.5558 32.1199C22.9418 32.5385 21.75 34.0051 21.75 35.75C21.75 36.1642 22.0858 36.5 22.5 36.5H38.25C38.6642 36.5 39 36.1642 39 35.75C39 35.3358 38.6642 35 38.25 35H23.378C23.6869 34.1261 24.5203 33.5 25.5 33.5H36.7183C37.0051 33.5 37.2668 33.3364 37.3925 33.0785C38.5277 30.749 39.5183 28.336 40.3527 25.8513C40.4191 25.6536 40.4002 25.4372 40.3005 25.254C40.2008 25.0708 40.0294 24.9374 39.8273 24.8858C35.0055 23.6544 29.9536 23 24.75 23C24.3922 23 24.0351 23.0031 23.6787 23.0093L23.4474 22.1419C23.2285 21.3211 22.4851 20.75 21.6357 20.75H20.25Z" fill="white"/>
<path d="M21.75 38.75C21.75 37.9216 22.4216 37.25 23.25 37.25C24.0784 37.25 24.75 37.9216 24.75 38.75C24.75 39.5784 24.0784 40.25 23.25 40.25C22.4216 40.25 21.75 39.5784 21.75 38.75Z" fill="white"/>
<path d="M34.5 38.75C34.5 37.9216 35.1716 37.25 36 37.25C36.8284 37.25 37.5 37.9216 37.5 38.75C37.5 39.5784 36.8284 40.25 36 40.25C35.1716 40.25 34.5 39.5784 34.5 38.75Z" fill="white"/>
</svg>
