<svg width="136" height="63" viewBox="0 0 136 63" fill="none" xmlns="http://www.w3.org/2000/svg">
<rect width="136" height="63" rx="12" fill="#AE9B84"/>
<path d="M40.1123 34.0625C40.0537 34.6836 39.9072 35.249 39.6729 35.7588C39.4385 36.2627 39.1309 36.6934 38.75 37.0508C38.3633 37.4141 37.9033 37.6953 37.3701 37.8945C36.8428 38.0879 36.2568 38.1846 35.6123 38.1846C35.085 38.1846 34.5986 38.1143 34.1533 37.9736C33.7139 37.8271 33.3213 37.6221 32.9756 37.3584C32.6416 37.1123 32.3486 36.8164 32.0967 36.4707C31.8506 36.1191 31.6426 35.7354 31.4727 35.3193C31.3027 34.9092 31.1738 34.4639 31.0859 33.9834C31.0039 33.5029 30.9629 33.002 30.9629 32.4805V30.7314C30.9629 30.2334 31.0039 29.7529 31.0859 29.29C31.168 28.8271 31.291 28.3906 31.4551 27.9805C31.6309 27.5234 31.8564 27.1104 32.1318 26.7412C32.4131 26.3662 32.7354 26.0469 33.0986 25.7832C33.4443 25.543 33.8252 25.3555 34.2412 25.2207C34.6631 25.0859 35.123 25.0186 35.6211 25.0186C36.2949 25.0186 36.8955 25.1182 37.4229 25.3174C37.9561 25.5166 38.4102 25.7979 38.7852 26.1611C39.166 26.5303 39.4648 26.9756 39.6816 27.4971C39.9043 28.0186 40.0479 28.5986 40.1123 29.2373H38.0029C37.9678 28.8564 37.8945 28.5137 37.7832 28.209C37.6777 27.8984 37.5312 27.6348 37.3438 27.418C37.1504 27.2012 36.9131 27.0371 36.6318 26.9258C36.3506 26.8086 36.0137 26.75 35.6211 26.75C35.3457 26.75 35.0967 26.7881 34.874 26.8643C34.6572 26.9404 34.4639 27.0488 34.2939 27.1895C34.0596 27.3594 33.8633 27.582 33.7051 27.8574C33.5527 28.127 33.4268 28.4287 33.3271 28.7627C33.251 29.0557 33.1924 29.3691 33.1514 29.7031C33.1162 30.0312 33.0986 30.3682 33.0986 30.7139V32.4805C33.0986 32.9082 33.1221 33.3096 33.1689 33.6846C33.2217 34.0596 33.3008 34.4023 33.4062 34.7129C33.4883 34.9707 33.5908 35.2051 33.7139 35.416C33.8428 35.627 33.9951 35.8086 34.1709 35.9609C34.3525 36.125 34.5605 36.251 34.7949 36.3389C35.0352 36.4209 35.3076 36.4619 35.6123 36.4619C35.9756 36.4619 36.2979 36.4092 36.5791 36.3037C36.8604 36.1982 37.1006 36.043 37.2998 35.8379C37.4932 35.6387 37.6484 35.3896 37.7656 35.0908C37.8828 34.792 37.959 34.4492 37.9941 34.0625H40.1123ZM41.9492 33.1572C41.9492 32.4658 42.0488 31.8271 42.248 31.2412C42.4473 30.6494 42.7373 30.1367 43.1182 29.7031C43.4932 29.2695 43.9531 28.9297 44.498 28.6836C45.043 28.4375 45.6641 28.3145 46.3613 28.3145C47.0586 28.3145 47.6797 28.4375 48.2246 28.6836C48.7754 28.9297 49.2412 29.2695 49.6221 29.7031C49.9971 30.1367 50.2842 30.6494 50.4834 31.2412C50.6826 31.8271 50.7822 32.4658 50.7822 33.1572V33.3418C50.7822 34.0391 50.6826 34.6807 50.4834 35.2666C50.2842 35.8525 49.9971 36.3623 49.6221 36.7959C49.2471 37.2295 48.7842 37.5693 48.2334 37.8154C47.6885 38.0615 47.0703 38.1846 46.3789 38.1846C45.6816 38.1846 45.0576 38.0615 44.5068 37.8154C43.9561 37.5693 43.4932 37.2295 43.1182 36.7959C42.7373 36.3623 42.4473 35.8525 42.248 35.2666C42.0488 34.6807 41.9492 34.0391 41.9492 33.3418V33.1572ZM44.0498 33.3418C44.0498 33.7695 44.0938 34.1738 44.1816 34.5547C44.2754 34.9355 44.4189 35.2695 44.6123 35.5566C44.7998 35.8438 45.04 36.0723 45.333 36.2422C45.626 36.4062 45.9746 36.4883 46.3789 36.4883C46.7715 36.4883 47.1143 36.4062 47.4072 36.2422C47.7002 36.0723 47.9404 35.8438 48.1279 35.5566C48.3154 35.2695 48.4531 34.9355 48.541 34.5547C48.6348 34.1738 48.6816 33.7695 48.6816 33.3418V33.1572C48.6816 32.7412 48.6348 32.3428 48.541 31.9619C48.4473 31.5811 48.3096 31.2471 48.1279 30.96C47.9346 30.6729 47.6914 30.4443 47.3984 30.2744C47.1113 30.1045 46.7656 30.0195 46.3613 30.0195C45.9629 30.0195 45.6172 30.1045 45.3242 30.2744C45.0371 30.4443 44.7998 30.6729 44.6123 30.96C44.4189 31.2471 44.2754 31.5811 44.1816 31.9619C44.0938 32.3428 44.0498 32.7412 44.0498 33.1572V33.3418ZM53.1465 38V28.4902H55.0449L55.1768 29.8438C55.3057 29.6621 55.4463 29.4951 55.5986 29.3428C55.7568 29.1846 55.9238 29.0439 56.0996 28.9209C56.3809 28.7275 56.6885 28.5781 57.0225 28.4727C57.3564 28.3672 57.708 28.3145 58.0771 28.3145C58.5635 28.3145 59.0088 28.3848 59.4131 28.5254C59.8174 28.666 60.1631 28.8887 60.4502 29.1934C60.7373 29.498 60.96 29.8877 61.1182 30.3623C61.2764 30.8311 61.3555 31.3994 61.3555 32.0674V38H59.2549V32.1025C59.2549 31.71 59.2109 31.3818 59.123 31.1182C59.0352 30.8545 58.9062 30.6436 58.7363 30.4854C58.5664 30.3271 58.3613 30.2158 58.1211 30.1514C57.8809 30.0811 57.6055 30.0459 57.2949 30.0459C57.0371 30.0459 56.7969 30.0811 56.5742 30.1514C56.3516 30.2158 56.1494 30.3096 55.9678 30.4326C55.8271 30.5264 55.6953 30.6406 55.5723 30.7754C55.4492 30.9102 55.3408 31.0566 55.2471 31.2148V38H53.1465ZM68.1758 26.1699V28.4902H71.7529V30.0635H68.1758V34.6074C68.1758 34.959 68.2168 35.2549 68.2988 35.4951C68.3867 35.7295 68.5068 35.9141 68.6592 36.0488C68.8115 36.1895 68.9932 36.2891 69.2041 36.3477C69.415 36.4062 69.6465 36.4355 69.8984 36.4355C70.0801 36.4355 70.2676 36.4268 70.4609 36.4092C70.6543 36.3916 70.8418 36.3682 71.0234 36.3389C71.1992 36.3154 71.3633 36.2891 71.5156 36.2598C71.6738 36.2246 71.8057 36.1953 71.9111 36.1719L72.1396 37.6221C71.9873 37.7158 71.8027 37.7979 71.5859 37.8682C71.375 37.9326 71.1465 37.9883 70.9004 38.0352C70.6543 38.082 70.3965 38.1172 70.127 38.1406C69.8633 38.1699 69.5996 38.1846 69.3359 38.1846C68.8555 38.1846 68.4131 38.1201 68.0088 37.9912C67.6104 37.8564 67.2676 37.6484 66.9805 37.3672C66.6934 37.0918 66.4678 36.7373 66.3037 36.3037C66.1455 35.8701 66.0664 35.3486 66.0664 34.7393V30.0635H63.7637V28.4902H66.0664V26.1699H68.1758ZM80.8408 38C80.7764 37.8828 80.7236 37.7422 80.6826 37.5781C80.6475 37.4082 80.6152 37.2324 80.5859 37.0508C80.4395 37.2031 80.2725 37.3496 80.085 37.4902C79.9033 37.625 79.6982 37.7422 79.4697 37.8418C79.2412 37.9473 78.9951 38.0293 78.7314 38.0879C78.4678 38.1465 78.1836 38.1758 77.8789 38.1758C77.3867 38.1758 76.9355 38.1055 76.5254 37.9648C76.1211 37.8184 75.7754 37.6191 75.4883 37.3672C75.1953 37.1211 74.9668 36.8252 74.8027 36.4795C74.6445 36.1279 74.5654 35.75 74.5654 35.3457C74.5654 34.8242 74.668 34.3643 74.873 33.9658C75.084 33.5615 75.3887 33.2275 75.7871 32.9639C76.1562 32.7178 76.6104 32.5303 77.1494 32.4014C77.6943 32.2725 78.3096 32.208 78.9951 32.208H80.5244V31.5664C80.5244 31.3203 80.4805 31.0977 80.3926 30.8984C80.3105 30.6992 80.1904 30.5264 80.0322 30.3799C79.8623 30.2334 79.6543 30.1221 79.4082 30.0459C79.168 29.9639 78.8896 29.9229 78.5732 29.9229C78.2861 29.9229 78.0342 29.958 77.8174 30.0283C77.6064 30.0986 77.4307 30.1953 77.29 30.3184C77.1494 30.4297 77.0439 30.5674 76.9736 30.7314C76.9092 30.8896 76.877 31.0596 76.877 31.2412H74.7676C74.7734 30.8604 74.8643 30.4941 75.04 30.1426C75.2158 29.791 75.4736 29.4805 75.8135 29.2109C76.1416 28.9355 76.5459 28.7188 77.0264 28.5605C77.5127 28.3965 78.0664 28.3145 78.6875 28.3145C79.2441 28.3145 79.7627 28.3848 80.2432 28.5254C80.7295 28.6602 81.1484 28.8623 81.5 29.1318C81.8516 29.4014 82.127 29.7441 82.3262 30.1602C82.5254 30.5703 82.625 31.0449 82.625 31.584V35.8115C82.625 36.2393 82.6543 36.626 82.7129 36.9717C82.7773 37.3115 82.8682 37.6045 82.9854 37.8506V38H80.8408ZM78.2832 36.4883C78.5586 36.4883 78.8135 36.4531 79.0479 36.3828C79.2881 36.3125 79.5049 36.2217 79.6982 36.1104C79.8916 35.999 80.0586 35.873 80.1992 35.7324C80.3398 35.5918 80.4482 35.4453 80.5244 35.293V33.5352H79.1709C78.7139 33.5352 78.3184 33.5791 77.9844 33.667C77.6504 33.749 77.3838 33.8691 77.1846 34.0273C77.0088 34.1621 76.877 34.3232 76.7891 34.5107C76.707 34.6982 76.666 34.9092 76.666 35.1436C76.666 35.3369 76.7012 35.5186 76.7715 35.6885C76.8418 35.8525 76.9443 35.9932 77.0791 36.1104C77.2139 36.2275 77.3809 36.3213 77.5801 36.3916C77.7793 36.4561 78.0137 36.4883 78.2832 36.4883ZM89.7178 36.4883C89.9814 36.4883 90.2334 36.4502 90.4736 36.374C90.7197 36.292 90.9365 36.1777 91.124 36.0312C91.3057 35.8848 91.4492 35.7119 91.5547 35.5127C91.666 35.3135 91.7217 35.0938 91.7217 34.8535H93.6992C93.7051 35.3164 93.5996 35.7529 93.3828 36.1631C93.1719 36.5674 92.8848 36.916 92.5215 37.209C92.1523 37.5137 91.7275 37.7539 91.2471 37.9297C90.7725 38.0996 90.2715 38.1846 89.7441 38.1846C89.0117 38.1846 88.3701 38.0586 87.8193 37.8066C87.2744 37.5488 86.8203 37.2031 86.457 36.7695C86.0879 36.3359 85.8096 35.832 85.6221 35.2578C85.4346 34.6777 85.3408 34.0596 85.3408 33.4033V33.0957C85.3408 32.4453 85.4316 31.8301 85.6133 31.25C85.8008 30.6699 86.0791 30.1631 86.4482 29.7295C86.8174 29.2959 87.2744 28.9531 87.8193 28.7012C88.3701 28.4434 89.0088 28.3145 89.7354 28.3145C90.3096 28.3145 90.8398 28.4023 91.3262 28.5781C91.8184 28.7539 92.2402 29 92.5918 29.3164C92.9434 29.6328 93.2158 30.0107 93.4092 30.4502C93.6084 30.8896 93.7051 31.373 93.6992 31.9004H91.7217C91.7217 31.6426 91.6719 31.3994 91.5723 31.1709C91.4785 30.9424 91.3438 30.7432 91.168 30.5732C90.9863 30.4033 90.7695 30.2686 90.5176 30.1689C90.2715 30.0693 90.0049 30.0195 89.7178 30.0195C89.2783 30.0195 88.9121 30.1104 88.6191 30.292C88.332 30.4678 88.1035 30.6992 87.9336 30.9863C87.752 31.2734 87.623 31.6016 87.5469 31.9707C87.4766 32.3398 87.4414 32.7148 87.4414 33.0957V33.4033C87.4414 33.79 87.4766 34.1709 87.5469 34.5459C87.623 34.915 87.749 35.2402 87.9248 35.5215C88.0947 35.8145 88.3262 36.0488 88.6191 36.2246C88.9121 36.4004 89.2783 36.4883 89.7178 36.4883ZM100.607 26.1699V28.4902H104.185V30.0635H100.607V34.6074C100.607 34.959 100.648 35.2549 100.73 35.4951C100.818 35.7295 100.938 35.9141 101.091 36.0488C101.243 36.1895 101.425 36.2891 101.636 36.3477C101.847 36.4062 102.078 36.4355 102.33 36.4355C102.512 36.4355 102.699 36.4268 102.893 36.4092C103.086 36.3916 103.273 36.3682 103.455 36.3389C103.631 36.3154 103.795 36.2891 103.947 36.2598C104.105 36.2246 104.237 36.1953 104.343 36.1719L104.571 37.6221C104.419 37.7158 104.234 37.7979 104.018 37.8682C103.807 37.9326 103.578 37.9883 103.332 38.0352C103.086 38.082 102.828 38.1172 102.559 38.1406C102.295 38.1699 102.031 38.1846 101.768 38.1846C101.287 38.1846 100.845 38.1201 100.44 37.9912C100.042 37.8564 99.6992 37.6484 99.4121 37.3672C99.125 37.0918 98.8994 36.7373 98.7354 36.3037C98.5771 35.8701 98.498 35.3486 98.498 34.7393V30.0635H96.1953V28.4902H98.498V26.1699H100.607Z" fill="#0F0F0F"/>
</svg>
