<svg width="104" height="63" viewBox="0 0 104 63" fill="none" xmlns="http://www.w3.org/2000/svg">
<rect width="104" height="63" rx="12" fill="#1A1A1A"/>
<path d="M39.9326 38H38.3945V32.085H33.1475V38H31.6182V25.2031H33.1475V30.7051H38.3945V25.2031H39.9326V38ZM42.2617 33.1572C42.2617 32.4717 42.3613 31.8359 42.5605 31.25C42.7598 30.6582 43.0469 30.1455 43.4219 29.7119C43.791 29.2783 44.2422 28.9385 44.7754 28.6924C45.3086 28.4404 45.9092 28.3145 46.5771 28.3145C47.251 28.3145 47.8545 28.4404 48.3877 28.6924C48.9268 28.9385 49.3838 29.2783 49.7588 29.7119C50.1279 30.1455 50.4121 30.6582 50.6113 31.25C50.8105 31.8359 50.9102 32.4717 50.9102 33.1572V33.3506C50.9102 34.0361 50.8105 34.6719 50.6113 35.2578C50.4121 35.8438 50.1279 36.3535 49.7588 36.7871C49.3838 37.2207 48.9297 37.5605 48.3965 37.8066C47.8633 38.0527 47.2627 38.1758 46.5947 38.1758C45.9209 38.1758 45.3145 38.0527 44.7754 37.8066C44.2422 37.5605 43.791 37.2207 43.4219 36.7871C43.0469 36.3535 42.7598 35.8438 42.5605 35.2578C42.3613 34.6719 42.2617 34.0361 42.2617 33.3506V33.1572ZM43.8877 33.3506C43.8877 33.8193 43.9434 34.2676 44.0547 34.6953C44.166 35.1172 44.3359 35.4893 44.5645 35.8115C44.7871 36.1338 45.0684 36.3887 45.4082 36.5762C45.748 36.7637 46.1436 36.8574 46.5947 36.8574C47.04 36.8574 47.4297 36.7637 47.7637 36.5762C48.1035 36.3887 48.3877 36.1338 48.6162 35.8115C48.8389 35.4893 49.0059 35.1172 49.1172 34.6953C49.2285 34.2676 49.2842 33.8193 49.2842 33.3506V33.1572C49.2842 32.6943 49.2256 32.252 49.1084 31.8301C48.9971 31.4023 48.8301 31.0273 48.6074 30.7051C48.3789 30.3828 48.0947 30.1279 47.7549 29.9404C47.4209 29.7471 47.0283 29.6504 46.5771 29.6504C46.126 29.6504 45.7334 29.7471 45.3994 29.9404C45.0654 30.1279 44.7871 30.3828 44.5645 30.7051C44.3359 31.0273 44.166 31.4023 44.0547 31.8301C43.9434 32.252 43.8877 32.6943 43.8877 33.1572V33.3506ZM54.2764 28.4902L54.3203 29.3867C54.5137 29.0527 54.7656 28.792 55.0762 28.6045C55.3926 28.417 55.7734 28.3203 56.2188 28.3145C56.4707 28.3145 56.6963 28.3438 56.8955 28.4023C57.1006 28.4551 57.2793 28.5342 57.4316 28.6396C57.543 28.7217 57.6426 28.8213 57.7305 28.9385C57.8242 29.0557 57.9033 29.1875 57.9678 29.334C58.0498 29.1992 58.1465 29.0732 58.2578 28.9561C58.3691 28.8389 58.4893 28.7363 58.6182 28.6484C58.7822 28.5488 58.9639 28.4697 59.1631 28.4111C59.3682 28.3525 59.5908 28.3203 59.8311 28.3145C60.1592 28.3145 60.4551 28.3643 60.7188 28.4639C60.9824 28.5576 61.2051 28.6982 61.3867 28.8857C61.5859 29.0967 61.7383 29.3721 61.8438 29.7119C61.9492 30.0459 62.002 30.4414 62.002 30.8984V38H60.4551V30.8809C60.4551 30.6816 60.4316 30.5059 60.3848 30.3535C60.3379 30.2012 60.2705 30.0752 60.1826 29.9756C60.0889 29.8818 59.9717 29.8115 59.8311 29.7646C59.6963 29.7178 59.5381 29.6943 59.3564 29.6943C59.1631 29.6943 58.9961 29.7207 58.8555 29.7734C58.7148 29.8262 58.5977 29.8965 58.5039 29.9844C58.4102 30.0781 58.3369 30.1865 58.2842 30.3096C58.2314 30.4268 58.1963 30.5586 58.1787 30.7051C58.1787 30.7344 58.1787 30.7637 58.1787 30.793C58.1787 30.8164 58.1787 30.8457 58.1787 30.8809V38H56.6318V30.8721C56.6318 30.6729 56.6084 30.4971 56.5615 30.3447C56.5205 30.1924 56.4531 30.0664 56.3594 29.9668C56.2715 29.873 56.1602 29.8057 56.0254 29.7646C55.8965 29.7178 55.7441 29.6943 55.5684 29.6943C55.375 29.6943 55.2051 29.7178 55.0586 29.7646C54.918 29.8057 54.7979 29.8672 54.6982 29.9492C54.6221 30.0137 54.5547 30.0869 54.4961 30.1689C54.4434 30.251 54.3994 30.3389 54.3643 30.4326V38H52.8174V28.4902H54.2764ZM68.541 38.1758C67.873 38.1758 67.2578 38.0615 66.6953 37.833C66.1387 37.6045 65.6611 37.2852 65.2627 36.875C64.8643 36.4648 64.5537 35.9785 64.3311 35.416C64.1084 34.8535 63.9971 34.2412 63.9971 33.5791V33.21C63.9971 32.4424 64.1201 31.7568 64.3662 31.1533C64.6123 30.5439 64.9404 30.0283 65.3506 29.6064C65.7549 29.1904 66.2148 28.8711 66.7305 28.6484C67.252 28.4258 67.7852 28.3145 68.3301 28.3145C69.0156 28.3145 69.6133 28.4346 70.123 28.6748C70.6387 28.9092 71.0664 29.2344 71.4062 29.6504C71.7461 30.0723 71.998 30.5674 72.1621 31.1357C72.332 31.7041 72.417 32.3193 72.417 32.9814V33.7109H65.623V33.7725C65.6641 34.2354 65.7549 34.6426 65.8955 34.9941C66.042 35.3457 66.2412 35.6562 66.4932 35.9258C66.751 36.2129 67.0615 36.4385 67.4248 36.6025C67.7881 36.7666 68.1895 36.8486 68.6289 36.8486C69.209 36.8486 69.7246 36.7314 70.1758 36.4971C70.627 36.2627 71.002 35.9521 71.3008 35.5654L72.2939 36.3389C71.9775 36.8193 71.5029 37.2471 70.8701 37.6221C70.2432 37.9912 69.4668 38.1758 68.541 38.1758ZM68.3301 29.6504C68.002 29.6504 67.6914 29.7119 67.3984 29.835C67.1055 29.9521 66.8418 30.125 66.6074 30.3535C66.373 30.5879 66.1738 30.875 66.0098 31.2148C65.8516 31.5488 65.7402 31.9355 65.6758 32.375H70.791V32.2959C70.791 32.0029 70.7354 31.6895 70.624 31.3555C70.5127 31.0156 70.3574 30.7227 70.1582 30.4766C69.959 30.2305 69.707 30.0312 69.4023 29.8789C69.1035 29.7266 68.7461 29.6504 68.3301 29.6504Z" fill="white"/>
</svg>
