<svg width="92" height="56" viewBox="0 0 92 56" fill="none" xmlns="http://www.w3.org/2000/svg">
<rect x="0.5" y="1" width="91" height="54" rx="11.5" stroke="#333333" stroke-dasharray="5 5"/>
<path d="M28.9756 28.5586L27.5518 30.1758V34.5H25.8906V21.7031H27.5518V27.9521L28.791 26.4053L32.5439 21.7031H34.5215L30.0479 27.3018L34.8203 34.5H32.8428L28.9756 28.5586ZM36.9736 24.9902H41.834V33.0938H44.9365V34.5H36.9736V33.0938H40.208V26.4053H36.9736V24.9902ZM39.9971 22.4941C39.9971 22.3535 40.0176 22.2217 40.0586 22.0986C40.1055 21.9756 40.1758 21.8701 40.2695 21.7822C40.3457 21.7061 40.4424 21.6475 40.5596 21.6064C40.6826 21.5596 40.8203 21.5361 40.9727 21.5361C41.125 21.5361 41.2598 21.5596 41.377 21.6064C41.4941 21.6475 41.5908 21.7061 41.667 21.7822C41.7607 21.8643 41.8311 21.9668 41.8779 22.0898C41.9248 22.2129 41.9482 22.3477 41.9482 22.4941C41.9482 22.7578 41.8662 22.9775 41.7021 23.1533C41.5381 23.3291 41.2949 23.417 40.9727 23.417C40.6445 23.417 40.3984 23.3291 40.2344 23.1533C40.0762 22.9775 39.9971 22.7578 39.9971 22.4941ZM47.2217 29.666C47.2217 28.957 47.3096 28.3066 47.4854 27.7148C47.667 27.1172 47.9248 26.6045 48.2588 26.1768C48.5869 25.749 48.9854 25.415 49.4541 25.1748C49.9229 24.9346 50.4473 24.8145 51.0273 24.8145C51.5957 24.8145 52.0908 24.9111 52.5127 25.1045C52.9404 25.292 53.3096 25.5674 53.6201 25.9307V21H55.2461V34.5H53.752L53.6816 33.498C53.3652 33.8848 52.9873 34.1777 52.5479 34.377C52.1084 34.5762 51.5957 34.6758 51.0098 34.6758C50.4355 34.6758 49.9141 34.5527 49.4453 34.3066C48.9824 34.0605 48.5869 33.7207 48.2588 33.2871C47.9307 32.8535 47.6758 32.3438 47.4941 31.7578C47.3125 31.166 47.2217 30.5303 47.2217 29.8506V29.666ZM48.8477 29.8506C48.8477 30.3135 48.8975 30.7529 48.9971 31.1689C49.0967 31.585 49.252 31.9512 49.4629 32.2676C49.668 32.584 49.9316 32.8359 50.2539 33.0234C50.5762 33.2051 50.9629 33.2959 51.4141 33.2959C51.959 33.2959 52.4102 33.1729 52.7676 32.9268C53.125 32.6807 53.4092 32.3496 53.6201 31.9336V27.5215C53.4092 27.1348 53.125 26.8184 52.7676 26.5723C52.4102 26.3203 51.9648 26.1943 51.4316 26.1943C50.9746 26.1943 50.582 26.2881 50.2539 26.4756C49.9316 26.6631 49.668 26.915 49.4629 27.2314C49.252 27.5537 49.0967 27.9258 48.9971 28.3477C48.8975 28.7637 48.8477 29.2031 48.8477 29.666V29.8506ZM64.6592 31.9775C64.6592 31.7842 64.6211 31.6113 64.5449 31.459C64.4688 31.3008 64.3398 31.1572 64.1582 31.0283C63.9766 30.8994 63.7363 30.7822 63.4375 30.6768C63.1387 30.5654 62.7666 30.4658 62.3213 30.3779C61.7764 30.2666 61.2783 30.1318 60.8271 29.9736C60.3818 29.8154 60.001 29.625 59.6846 29.4023C59.3623 29.1855 59.1133 28.9307 58.9375 28.6377C58.7617 28.3389 58.6738 27.9932 58.6738 27.6006C58.6738 27.2139 58.7646 26.8535 58.9463 26.5195C59.1279 26.1797 59.3828 25.8838 59.7109 25.6318C60.0391 25.3799 60.4287 25.1807 60.8799 25.0342C61.3369 24.8877 61.8379 24.8145 62.3828 24.8145C62.9688 24.8145 63.4961 24.8906 63.9648 25.043C64.4336 25.1953 64.832 25.4062 65.1602 25.6758C65.4883 25.9453 65.7402 26.2617 65.916 26.625C66.0977 26.9824 66.1885 27.3691 66.1885 27.7852H64.5625C64.5625 27.5801 64.5098 27.3809 64.4043 27.1875C64.2988 26.9883 64.1523 26.8125 63.9648 26.6602C63.7773 26.5078 63.5488 26.3848 63.2793 26.291C63.0156 26.1973 62.7168 26.1504 62.3828 26.1504C62.0371 26.1504 61.7324 26.1885 61.4688 26.2646C61.2109 26.3408 60.9971 26.4434 60.8271 26.5723C60.6514 26.7012 60.5195 26.8506 60.4316 27.0205C60.3438 27.1904 60.2998 27.3662 60.2998 27.5479C60.2998 27.7354 60.335 27.9023 60.4053 28.0488C60.4756 28.1953 60.5986 28.3271 60.7744 28.4443C60.9443 28.5615 61.1729 28.667 61.46 28.7607C61.7529 28.8545 62.1221 28.9453 62.5674 29.0332C63.1533 29.1562 63.6777 29.2998 64.1406 29.4639C64.6035 29.6221 64.9932 29.8125 65.3096 30.0352C65.626 30.2637 65.8662 30.5273 66.0303 30.8262C66.2002 31.125 66.2852 31.4707 66.2852 31.8633C66.2852 32.2852 66.1885 32.6689 65.9951 33.0146C65.8076 33.3604 65.5439 33.6562 65.2041 33.9023C64.8643 34.1484 64.457 34.3389 63.9824 34.4736C63.5078 34.6084 62.9893 34.6758 62.4268 34.6758C61.7822 34.6758 61.208 34.5908 60.7041 34.4209C60.2002 34.2451 59.7754 34.0137 59.4297 33.7266C59.0781 33.4453 58.8086 33.1172 58.6211 32.7422C58.4395 32.3672 58.3486 31.9775 58.3486 31.5732H59.9746C59.998 31.9072 60.0859 32.1885 60.2383 32.417C60.3965 32.6455 60.5928 32.8301 60.8271 32.9707C61.0557 33.1113 61.3105 33.2109 61.5918 33.2695C61.873 33.3281 62.1514 33.3574 62.4268 33.3574C62.8604 33.3574 63.2383 33.3076 63.5605 33.208C63.8828 33.1025 64.1348 32.959 64.3164 32.7773C64.4277 32.666 64.5127 32.543 64.5713 32.4082C64.6299 32.2734 64.6592 32.1299 64.6592 31.9775Z" fill="#B3B3B2"/>
</svg>
