<svg width="92" height="56" viewBox="0 0 92 56" fill="none" xmlns="http://www.w3.org/2000/svg">
<rect x="0.5" y="1" width="91" height="54" rx="11.5" stroke="#333333" stroke-dasharray="5 5"/>
<path d="M27.6924 21.7031L29.7754 28.1016L32.0254 21.7031H34.0469V34.5H32.4648V29.3936L32.5967 24.0498L30.2324 30.9404H29.3008L27.1299 24.2344L27.2617 29.3936V34.5H25.6797V21.7031H27.6924ZM40.9199 34.6758C40.252 34.6758 39.6367 34.5615 39.0742 34.333C38.5176 34.1045 38.04 33.7852 37.6416 33.375C37.2432 32.9648 36.9326 32.4785 36.71 31.916C36.4873 31.3535 36.376 30.7412 36.376 30.0791V29.71C36.376 28.9424 36.499 28.2568 36.7451 27.6533C36.9912 27.0439 37.3193 26.5283 37.7295 26.1064C38.1338 25.6904 38.5938 25.3711 39.1094 25.1484C39.6309 24.9258 40.1641 24.8145 40.709 24.8145C41.3945 24.8145 41.9922 24.9346 42.502 25.1748C43.0176 25.4092 43.4453 25.7344 43.7852 26.1504C44.125 26.5723 44.377 27.0674 44.541 27.6357C44.7109 28.2041 44.7959 28.8193 44.7959 29.4814V30.2109H38.002V30.2725C38.043 30.7354 38.1338 31.1426 38.2744 31.4941C38.4209 31.8457 38.6201 32.1562 38.8721 32.4258C39.1299 32.7129 39.4404 32.9385 39.8037 33.1025C40.167 33.2666 40.5684 33.3486 41.0078 33.3486C41.5879 33.3486 42.1035 33.2314 42.5547 32.9971C43.0059 32.7627 43.3809 32.4521 43.6797 32.0654L44.6729 32.8389C44.3564 33.3193 43.8818 33.7471 43.249 34.1221C42.6221 34.4912 41.8457 34.6758 40.9199 34.6758ZM40.709 26.1504C40.3809 26.1504 40.0703 26.2119 39.7773 26.335C39.4844 26.4521 39.2207 26.625 38.9863 26.8535C38.752 27.0879 38.5527 27.375 38.3887 27.7148C38.2305 28.0488 38.1191 28.4355 38.0547 28.875H43.1699V28.7959C43.1699 28.5029 43.1143 28.1895 43.0029 27.8555C42.8916 27.5156 42.7363 27.2227 42.5371 26.9766C42.3379 26.7305 42.0859 26.5312 41.7812 26.3789C41.4824 26.2266 41.125 26.1504 40.709 26.1504ZM47.5293 34.5V24.9902H48.9883L49.1025 26.3965C49.2432 26.1973 49.3955 26.0156 49.5596 25.8516C49.7295 25.6816 49.9082 25.5352 50.0957 25.4121C50.377 25.2246 50.6816 25.0811 51.0098 24.9814C51.3438 24.876 51.6953 24.8203 52.0645 24.8145C52.5625 24.8145 53.0137 24.8848 53.418 25.0254C53.8281 25.166 54.1768 25.3857 54.4639 25.6846C54.751 25.9834 54.9707 26.3643 55.123 26.8271C55.2812 27.2842 55.3604 27.8291 55.3604 28.4619V34.5H53.7344V28.4971C53.7344 28.0752 53.6875 27.7178 53.5938 27.4248C53.5 27.1318 53.3623 26.8945 53.1807 26.7129C52.9932 26.5312 52.7646 26.3994 52.4951 26.3174C52.2314 26.2354 51.9268 26.1943 51.5811 26.1943C51.2822 26.1943 51.0039 26.2383 50.7461 26.3262C50.4883 26.4082 50.251 26.5225 50.0342 26.6689C49.8584 26.7979 49.6943 26.9473 49.542 27.1172C49.3955 27.2871 49.2666 27.4746 49.1553 27.6797V34.5H47.5293ZM64.6592 31.9775C64.6592 31.7842 64.6211 31.6113 64.5449 31.459C64.4688 31.3008 64.3398 31.1572 64.1582 31.0283C63.9766 30.8994 63.7363 30.7822 63.4375 30.6768C63.1387 30.5654 62.7666 30.4658 62.3213 30.3779C61.7764 30.2666 61.2783 30.1318 60.8271 29.9736C60.3818 29.8154 60.001 29.625 59.6846 29.4023C59.3623 29.1855 59.1133 28.9307 58.9375 28.6377C58.7617 28.3389 58.6738 27.9932 58.6738 27.6006C58.6738 27.2139 58.7646 26.8535 58.9463 26.5195C59.1279 26.1797 59.3828 25.8838 59.7109 25.6318C60.0391 25.3799 60.4287 25.1807 60.8799 25.0342C61.3369 24.8877 61.8379 24.8145 62.3828 24.8145C62.9688 24.8145 63.4961 24.8906 63.9648 25.043C64.4336 25.1953 64.832 25.4062 65.1602 25.6758C65.4883 25.9453 65.7402 26.2617 65.916 26.625C66.0977 26.9824 66.1885 27.3691 66.1885 27.7852H64.5625C64.5625 27.5801 64.5098 27.3809 64.4043 27.1875C64.2988 26.9883 64.1523 26.8125 63.9648 26.6602C63.7773 26.5078 63.5488 26.3848 63.2793 26.291C63.0156 26.1973 62.7168 26.1504 62.3828 26.1504C62.0371 26.1504 61.7324 26.1885 61.4688 26.2646C61.2109 26.3408 60.9971 26.4434 60.8271 26.5723C60.6514 26.7012 60.5195 26.8506 60.4316 27.0205C60.3438 27.1904 60.2998 27.3662 60.2998 27.5479C60.2998 27.7354 60.335 27.9023 60.4053 28.0488C60.4756 28.1953 60.5986 28.3271 60.7744 28.4443C60.9443 28.5615 61.1729 28.667 61.46 28.7607C61.7529 28.8545 62.1221 28.9453 62.5674 29.0332C63.1533 29.1562 63.6777 29.2998 64.1406 29.4639C64.6035 29.6221 64.9932 29.8125 65.3096 30.0352C65.626 30.2637 65.8662 30.5273 66.0303 30.8262C66.2002 31.125 66.2852 31.4707 66.2852 31.8633C66.2852 32.2852 66.1885 32.6689 65.9951 33.0146C65.8076 33.3604 65.5439 33.6562 65.2041 33.9023C64.8643 34.1484 64.457 34.3389 63.9824 34.4736C63.5078 34.6084 62.9893 34.6758 62.4268 34.6758C61.7822 34.6758 61.208 34.5908 60.7041 34.4209C60.2002 34.2451 59.7754 34.0137 59.4297 33.7266C59.0781 33.4453 58.8086 33.1172 58.6211 32.7422C58.4395 32.3672 58.3486 31.9775 58.3486 31.5732H59.9746C59.998 31.9072 60.0859 32.1885 60.2383 32.417C60.3965 32.6455 60.5928 32.8301 60.8271 32.9707C61.0557 33.1113 61.3105 33.2109 61.5918 33.2695C61.873 33.3281 62.1514 33.3574 62.4268 33.3574C62.8604 33.3574 63.2383 33.3076 63.5605 33.208C63.8828 33.1025 64.1348 32.959 64.3164 32.7773C64.4277 32.666 64.5127 32.543 64.5713 32.4082C64.6299 32.2734 64.6592 32.1299 64.6592 31.9775Z" fill="#B3B3B2"/>
</svg>
