<svg width="135" height="63" viewBox="0 0 135 63" fill="none" xmlns="http://www.w3.org/2000/svg">
<rect x="0.5" y="0.5" width="134" height="62" rx="11.5" stroke="#262626" stroke-dasharray="5 5"/>
<path d="M27.5625 32.8672V38H25.9365V25.2031H30.085C30.6592 25.2148 31.2012 25.3057 31.7109 25.4756C32.2266 25.6455 32.6777 25.8916 33.0645 26.2139C33.4512 26.5361 33.7559 26.9346 33.9785 27.4092C34.207 27.8838 34.3213 28.4287 34.3213 29.0439C34.3213 29.6592 34.207 30.2041 33.9785 30.6787C33.7559 31.1475 33.4512 31.543 33.0645 31.8652C32.6777 32.1875 32.2266 32.4336 31.7109 32.6035C31.2012 32.7734 30.6592 32.8613 30.085 32.8672H27.5625ZM27.5625 31.5312H30.085C30.46 31.5254 30.8057 31.4668 31.1221 31.3555C31.4385 31.2383 31.7139 31.0742 31.9482 30.8633C32.1826 30.6523 32.3643 30.3975 32.4932 30.0986C32.6279 29.7939 32.6953 29.4482 32.6953 29.0615C32.6953 28.6748 32.6279 28.3262 32.4932 28.0156C32.3643 27.7051 32.1855 27.4414 31.957 27.2246C31.7227 27.0078 31.4443 26.8408 31.1221 26.7236C30.8057 26.6064 30.46 26.5449 30.085 26.5391H27.5625V31.5312ZM42.8291 28.3145C43.1279 28.3145 43.4385 28.335 43.7607 28.376C44.0889 28.417 44.335 28.4727 44.499 28.543L44.2793 30.1338C43.9629 30.0635 43.6611 30.0137 43.374 29.9844C43.0928 29.9492 42.7969 29.9316 42.4863 29.9316C42.0879 29.9316 41.7275 29.9814 41.4053 30.0811C41.083 30.1748 40.8018 30.3154 40.5615 30.5029C40.3447 30.667 40.1543 30.8691 39.9902 31.1094C39.832 31.3438 39.7002 31.6074 39.5947 31.9004V38H37.96V28.4902H39.5068L39.5771 29.7646L39.5859 30.002C39.9727 29.4805 40.4355 29.0703 40.9746 28.7715C41.5195 28.4668 42.1377 28.3145 42.8291 28.3145ZM46.9512 33.1572C46.9512 32.4717 47.0508 31.8359 47.25 31.25C47.4492 30.6582 47.7363 30.1455 48.1113 29.7119C48.4805 29.2783 48.9316 28.9385 49.4648 28.6924C49.998 28.4404 50.5986 28.3145 51.2666 28.3145C51.9404 28.3145 52.5439 28.4404 53.0771 28.6924C53.6162 28.9385 54.0732 29.2783 54.4482 29.7119C54.8174 30.1455 55.1016 30.6582 55.3008 31.25C55.5 31.8359 55.5996 32.4717 55.5996 33.1572V33.3506C55.5996 34.0361 55.5 34.6719 55.3008 35.2578C55.1016 35.8438 54.8174 36.3535 54.4482 36.7871C54.0732 37.2207 53.6191 37.5605 53.0859 37.8066C52.5527 38.0527 51.9521 38.1758 51.2842 38.1758C50.6104 38.1758 50.0039 38.0527 49.4648 37.8066C48.9316 37.5605 48.4805 37.2207 48.1113 36.7871C47.7363 36.3535 47.4492 35.8438 47.25 35.2578C47.0508 34.6719 46.9512 34.0361 46.9512 33.3506V33.1572ZM48.5771 33.3506C48.5771 33.8193 48.6328 34.2676 48.7441 34.6953C48.8555 35.1172 49.0254 35.4893 49.2539 35.8115C49.4766 36.1338 49.7578 36.3887 50.0977 36.5762C50.4375 36.7637 50.833 36.8574 51.2842 36.8574C51.7295 36.8574 52.1191 36.7637 52.4531 36.5762C52.793 36.3887 53.0771 36.1338 53.3057 35.8115C53.5283 35.4893 53.6953 35.1172 53.8066 34.6953C53.918 34.2676 53.9736 33.8193 53.9736 33.3506V33.1572C53.9736 32.6943 53.915 32.252 53.7979 31.8301C53.6865 31.4023 53.5195 31.0273 53.2969 30.7051C53.0684 30.3828 52.7842 30.1279 52.4443 29.9404C52.1104 29.7471 51.7178 29.6504 51.2666 29.6504C50.8154 29.6504 50.4229 29.7471 50.0889 29.9404C49.7549 30.1279 49.4766 30.3828 49.2539 30.7051C49.0254 31.0273 48.8555 31.4023 48.7441 31.8301C48.6328 32.252 48.5771 32.6943 48.5771 33.1572V33.3506ZM57.9111 33.166C57.9111 32.457 57.999 31.8066 58.1748 31.2148C58.3564 30.6172 58.6143 30.1045 58.9482 29.6768C59.2764 29.249 59.6748 28.915 60.1436 28.6748C60.6123 28.4346 61.1367 28.3145 61.7168 28.3145C62.2852 28.3145 62.7803 28.4111 63.2021 28.6045C63.6299 28.792 63.999 29.0674 64.3096 29.4307V24.5H65.9355V38H64.4414L64.3711 36.998C64.0547 37.3848 63.6768 37.6777 63.2373 37.877C62.7979 38.0762 62.2852 38.1758 61.6992 38.1758C61.125 38.1758 60.6035 38.0527 60.1348 37.8066C59.6719 37.5605 59.2764 37.2207 58.9482 36.7871C58.6201 36.3535 58.3652 35.8438 58.1836 35.2578C58.002 34.666 57.9111 34.0303 57.9111 33.3506V33.166ZM59.5371 33.3506C59.5371 33.8135 59.5869 34.2529 59.6865 34.6689C59.7861 35.085 59.9414 35.4512 60.1523 35.7676C60.3574 36.084 60.6211 36.3359 60.9434 36.5234C61.2656 36.7051 61.6523 36.7959 62.1035 36.7959C62.6484 36.7959 63.0996 36.6729 63.457 36.4268C63.8145 36.1807 64.0986 35.8496 64.3096 35.4336V31.0215C64.0986 30.6348 63.8145 30.3184 63.457 30.0723C63.0996 29.8203 62.6543 29.6943 62.1211 29.6943C61.6641 29.6943 61.2715 29.7881 60.9434 29.9756C60.6211 30.1631 60.3574 30.415 60.1523 30.7314C59.9414 31.0537 59.7861 31.4258 59.6865 31.8477C59.5869 32.2637 59.5371 32.7031 59.5371 33.166V33.3506ZM75.2959 38L75.1992 36.6904C74.8828 37.1592 74.4873 37.5254 74.0127 37.7891C73.5381 38.0469 72.9902 38.1758 72.3691 38.1758C71.8711 38.1758 71.4199 38.0996 71.0156 37.9473C70.6113 37.7891 70.2656 37.5459 69.9785 37.2178C69.6914 36.8896 69.4688 36.4736 69.3105 35.9697C69.1582 35.46 69.082 34.8506 69.082 34.1416V28.4902H70.708V34.1592C70.708 34.6748 70.749 35.1025 70.8311 35.4424C70.9131 35.7822 71.0361 36.0518 71.2002 36.251C71.3643 36.4561 71.5635 36.5996 71.7979 36.6816C72.0381 36.7637 72.3135 36.8047 72.624 36.8047C72.9873 36.8047 73.3125 36.7637 73.5996 36.6816C73.8867 36.5938 74.1357 36.4736 74.3467 36.3213C74.5225 36.1982 74.6748 36.0518 74.8037 35.8818C74.9385 35.7061 75.0498 35.5156 75.1377 35.3105V28.4902H76.7725V38H75.2959ZM83.8916 36.8574C84.1846 36.8574 84.4688 36.8105 84.7441 36.7168C85.0254 36.623 85.2744 36.4912 85.4912 36.3213C85.708 36.1572 85.8809 35.9639 86.0098 35.7412C86.1445 35.5127 86.2148 35.2666 86.2207 35.0029H87.7588C87.7529 35.4248 87.6416 35.8291 87.4248 36.2158C87.2139 36.5967 86.9297 36.9307 86.5723 37.2178C86.2148 37.5107 85.8047 37.7451 85.3418 37.9209C84.8789 38.0908 84.3955 38.1758 83.8916 38.1758C83.1709 38.1758 82.541 38.0469 82.002 37.7891C81.4629 37.5312 81.0146 37.1826 80.6572 36.7432C80.2939 36.3096 80.0215 35.8086 79.8398 35.2402C79.6582 34.666 79.5674 34.0625 79.5674 33.4297V33.0605C79.5674 32.4336 79.6582 31.833 79.8398 31.2588C80.0215 30.6846 80.2939 30.1777 80.6572 29.7383C81.0146 29.3047 81.4629 28.959 82.002 28.7012C82.541 28.4434 83.1709 28.3145 83.8916 28.3145C84.4541 28.3145 84.9697 28.4053 85.4385 28.5869C85.9131 28.7627 86.3232 29.0029 86.6689 29.3076C87.0088 29.6182 87.2754 29.9844 87.4688 30.4062C87.6621 30.8281 87.7588 31.2793 87.7588 31.7598H86.2207C86.2148 31.4727 86.1504 31.2031 86.0273 30.9512C85.9102 30.6934 85.749 30.4678 85.5439 30.2744C85.3389 30.0811 85.0928 29.9287 84.8057 29.8174C84.5244 29.7061 84.2197 29.6504 83.8916 29.6504C83.3877 29.6504 82.9629 29.7529 82.6172 29.958C82.2773 30.1572 82.002 30.418 81.791 30.7402C81.5801 31.0684 81.4277 31.4346 81.334 31.8389C81.2461 32.2432 81.2021 32.6504 81.2021 33.0605V33.4297C81.2021 33.8457 81.2461 34.2588 81.334 34.6689C81.4277 35.0732 81.5801 35.4365 81.791 35.7588C81.9961 36.0869 82.2686 36.3535 82.6084 36.5586C82.9541 36.7578 83.3818 36.8574 83.8916 36.8574ZM94.5 26.1875V28.4902H98.1211V29.7471H94.5V34.915C94.5 35.2842 94.5469 35.5889 94.6406 35.8291C94.7344 36.0693 94.8633 36.2598 95.0273 36.4004C95.1914 36.5469 95.3789 36.6494 95.5898 36.708C95.8066 36.7666 96.0352 36.7959 96.2754 36.7959C96.4512 36.7959 96.6328 36.7871 96.8203 36.7695C97.0078 36.7461 97.1924 36.7197 97.374 36.6904C97.5498 36.6611 97.7139 36.6318 97.8662 36.6025C98.0244 36.5674 98.1533 36.5381 98.2529 36.5146L98.4814 37.666C98.3467 37.748 98.1826 37.8213 97.9893 37.8857C97.7959 37.9443 97.585 37.9941 97.3564 38.0352C97.1279 38.082 96.8848 38.1172 96.627 38.1406C96.375 38.1641 96.123 38.1758 95.8711 38.1758C95.4492 38.1758 95.0537 38.1172 94.6846 38C94.3213 37.877 94.0049 37.6836 93.7354 37.4199C93.4658 37.1621 93.252 36.8281 93.0938 36.418C92.9414 36.002 92.8652 35.501 92.8652 34.915V29.7471H90.3691V28.4902H92.8652V26.1875H94.5ZM107.78 35.4775C107.78 35.2842 107.742 35.1113 107.666 34.959C107.59 34.8008 107.461 34.6572 107.279 34.5283C107.098 34.3994 106.857 34.2822 106.559 34.1768C106.26 34.0654 105.888 33.9658 105.442 33.8779C104.897 33.7666 104.399 33.6318 103.948 33.4736C103.503 33.3154 103.122 33.125 102.806 32.9023C102.483 32.6855 102.234 32.4307 102.059 32.1377C101.883 31.8389 101.795 31.4932 101.795 31.1006C101.795 30.7139 101.886 30.3535 102.067 30.0195C102.249 29.6797 102.504 29.3838 102.832 29.1318C103.16 28.8799 103.55 28.6807 104.001 28.5342C104.458 28.3877 104.959 28.3145 105.504 28.3145C106.09 28.3145 106.617 28.3906 107.086 28.543C107.555 28.6953 107.953 28.9062 108.281 29.1758C108.609 29.4453 108.861 29.7617 109.037 30.125C109.219 30.4824 109.31 30.8691 109.31 31.2852H107.684C107.684 31.0801 107.631 30.8809 107.525 30.6875C107.42 30.4883 107.273 30.3125 107.086 30.1602C106.898 30.0078 106.67 29.8848 106.4 29.791C106.137 29.6973 105.838 29.6504 105.504 29.6504C105.158 29.6504 104.854 29.6885 104.59 29.7646C104.332 29.8408 104.118 29.9434 103.948 30.0723C103.772 30.2012 103.641 30.3506 103.553 30.5205C103.465 30.6904 103.421 30.8662 103.421 31.0479C103.421 31.2354 103.456 31.4023 103.526 31.5488C103.597 31.6953 103.72 31.8271 103.896 31.9443C104.065 32.0615 104.294 32.167 104.581 32.2607C104.874 32.3545 105.243 32.4453 105.688 32.5332C106.274 32.6562 106.799 32.7998 107.262 32.9639C107.725 33.1221 108.114 33.3125 108.431 33.5352C108.747 33.7637 108.987 34.0273 109.151 34.3262C109.321 34.625 109.406 34.9707 109.406 35.3633C109.406 35.7852 109.31 36.1689 109.116 36.5146C108.929 36.8604 108.665 37.1562 108.325 37.4023C107.985 37.6484 107.578 37.8389 107.104 37.9736C106.629 38.1084 106.11 38.1758 105.548 38.1758C104.903 38.1758 104.329 38.0908 103.825 37.9209C103.321 37.7451 102.896 37.5137 102.551 37.2266C102.199 36.9453 101.93 36.6172 101.742 36.2422C101.561 35.8672 101.47 35.4775 101.47 35.0732H103.096C103.119 35.4072 103.207 35.6885 103.359 35.917C103.518 36.1455 103.714 36.3301 103.948 36.4707C104.177 36.6113 104.432 36.7109 104.713 36.7695C104.994 36.8281 105.272 36.8574 105.548 36.8574C105.981 36.8574 106.359 36.8076 106.682 36.708C107.004 36.6025 107.256 36.459 107.438 36.2773C107.549 36.166 107.634 36.043 107.692 35.9082C107.751 35.7734 107.78 35.6299 107.78 35.4775Z" fill="#B3B3B2"/>
</svg>
