<svg width="160" height="63" viewBox="0 0 160 63" fill="none" xmlns="http://www.w3.org/2000/svg">
<rect x="1" y="0.5" width="158" height="62" rx="11.5" fill="#1F1F1F"/>
<rect x="1" y="0.5" width="158" height="62" rx="11.5" stroke="#404040" stroke-dasharray="16 6"/>
<path d="M32.8057 34.7656C32.8057 34.4668 32.7588 34.2031 32.665 33.9746C32.5771 33.7402 32.4189 33.5293 32.1904 33.3418C31.9678 33.1543 31.6572 32.9756 31.2588 32.8057C30.8662 32.6357 30.3682 32.4629 29.7646 32.2871C29.1318 32.0996 28.5605 31.8916 28.0508 31.6631C27.541 31.4287 27.1045 31.1621 26.7412 30.8633C26.3779 30.5645 26.0996 30.2217 25.9062 29.835C25.7129 29.4482 25.6162 29.0059 25.6162 28.5078C25.6162 28.0098 25.7188 27.5498 25.9238 27.1279C26.1289 26.7061 26.4219 26.3398 26.8027 26.0293C27.1895 25.7129 27.6494 25.4668 28.1826 25.291C28.7158 25.1152 29.3105 25.0273 29.9668 25.0273C30.9277 25.0273 31.7422 25.2119 32.4102 25.5811C33.084 25.9443 33.5967 26.4219 33.9482 27.0137C34.2998 27.5996 34.4756 28.2266 34.4756 28.8945H32.7881C32.7881 28.4141 32.6855 27.9893 32.4805 27.6201C32.2754 27.2451 31.9648 26.9521 31.5488 26.7412C31.1328 26.5244 30.6055 26.416 29.9668 26.416C29.3633 26.416 28.8652 26.5068 28.4727 26.6885C28.0801 26.8701 27.7871 27.1162 27.5938 27.4268C27.4062 27.7373 27.3125 28.0918 27.3125 28.4902C27.3125 28.7598 27.3682 29.0059 27.4795 29.2285C27.5967 29.4453 27.7754 29.6475 28.0156 29.835C28.2617 30.0225 28.5723 30.1953 28.9473 30.3535C29.3281 30.5117 29.7822 30.6641 30.3096 30.8105C31.0361 31.0156 31.6631 31.2441 32.1904 31.4961C32.7178 31.748 33.1514 32.0322 33.4912 32.3486C33.8369 32.6592 34.0918 33.0137 34.2559 33.4121C34.4258 33.8047 34.5107 34.25 34.5107 34.748C34.5107 35.2695 34.4053 35.7412 34.1943 36.1631C33.9834 36.585 33.6816 36.9453 33.2891 37.2441C32.8965 37.543 32.4248 37.7744 31.874 37.9385C31.3291 38.0967 30.7197 38.1758 30.0459 38.1758C29.4541 38.1758 28.8711 38.0938 28.2969 37.9297C27.7285 37.7656 27.21 37.5195 26.7412 37.1914C26.2783 36.8633 25.9062 36.459 25.625 35.9785C25.3496 35.4922 25.2119 34.9297 25.2119 34.291H26.8994C26.8994 34.7305 26.9844 35.1084 27.1543 35.4248C27.3242 35.7354 27.5557 35.9932 27.8486 36.1982C28.1475 36.4033 28.4844 36.5557 28.8594 36.6553C29.2402 36.749 29.6357 36.7959 30.0459 36.7959C30.6377 36.7959 31.1387 36.7139 31.5488 36.5498C31.959 36.3857 32.2695 36.1514 32.4805 35.8467C32.6973 35.542 32.8057 35.1816 32.8057 34.7656ZM38.0527 24.5V38H36.4268V24.5H38.0527ZM37.666 32.8848L36.9893 32.8584C36.9951 32.208 37.0918 31.6074 37.2793 31.0566C37.4668 30.5 37.7305 30.0166 38.0703 29.6064C38.4102 29.1963 38.8145 28.8799 39.2832 28.6572C39.7578 28.4287 40.2822 28.3145 40.8564 28.3145C41.3252 28.3145 41.7471 28.3789 42.1221 28.5078C42.4971 28.6309 42.8164 28.8301 43.0801 29.1055C43.3496 29.3809 43.5547 29.7383 43.6953 30.1777C43.8359 30.6113 43.9062 31.1416 43.9062 31.7686V38H42.2715V31.751C42.2715 31.2529 42.1982 30.8545 42.0518 30.5557C41.9053 30.251 41.6914 30.0312 41.4102 29.8965C41.1289 29.7559 40.7832 29.6855 40.373 29.6855C39.9688 29.6855 39.5996 29.7705 39.2656 29.9404C38.9375 30.1104 38.6533 30.3447 38.4131 30.6436C38.1787 30.9424 37.9941 31.2852 37.8594 31.6719C37.7305 32.0527 37.666 32.457 37.666 32.8848ZM45.9102 33.3506V33.1484C45.9102 32.4629 46.0098 31.8271 46.209 31.2412C46.4082 30.6494 46.6953 30.1367 47.0703 29.7031C47.4453 29.2637 47.8994 28.9238 48.4326 28.6836C48.9658 28.4375 49.5635 28.3145 50.2256 28.3145C50.8936 28.3145 51.4941 28.4375 52.0273 28.6836C52.5664 28.9238 53.0234 29.2637 53.3984 29.7031C53.7793 30.1367 54.0693 30.6494 54.2686 31.2412C54.4678 31.8271 54.5674 32.4629 54.5674 33.1484V33.3506C54.5674 34.0361 54.4678 34.6719 54.2686 35.2578C54.0693 35.8438 53.7793 36.3564 53.3984 36.7959C53.0234 37.2295 52.5693 37.5693 52.0361 37.8154C51.5088 38.0557 50.9111 38.1758 50.2432 38.1758C49.5752 38.1758 48.9746 38.0557 48.4414 37.8154C47.9082 37.5693 47.4512 37.2295 47.0703 36.7959C46.6953 36.3564 46.4082 35.8438 46.209 35.2578C46.0098 34.6719 45.9102 34.0361 45.9102 33.3506ZM47.5361 33.1484V33.3506C47.5361 33.8252 47.5918 34.2734 47.7031 34.6953C47.8145 35.1113 47.9814 35.4805 48.2041 35.8027C48.4326 36.125 48.7168 36.3799 49.0566 36.5674C49.3965 36.749 49.792 36.8398 50.2432 36.8398C50.6885 36.8398 51.0781 36.749 51.4121 36.5674C51.752 36.3799 52.0332 36.125 52.2559 35.8027C52.4785 35.4805 52.6455 35.1113 52.7568 34.6953C52.874 34.2734 52.9326 33.8252 52.9326 33.3506V33.1484C52.9326 32.6797 52.874 32.2373 52.7568 31.8213C52.6455 31.3994 52.4756 31.0273 52.2471 30.7051C52.0244 30.377 51.7432 30.1191 51.4033 29.9316C51.0693 29.7441 50.6768 29.6504 50.2256 29.6504C49.7803 29.6504 49.3877 29.7441 49.0479 29.9316C48.7139 30.1191 48.4326 30.377 48.2041 30.7051C47.9814 31.0273 47.8145 31.3994 47.7031 31.8213C47.5918 32.2373 47.5361 32.6797 47.5361 33.1484ZM58.2324 30.3184V41.6562H56.5977V28.4902H58.0918L58.2324 30.3184ZM64.6396 33.166V33.3506C64.6396 34.042 64.5576 34.6836 64.3936 35.2754C64.2295 35.8613 63.9893 36.3711 63.6729 36.8047C63.3623 37.2383 62.9785 37.5752 62.5215 37.8154C62.0645 38.0557 61.54 38.1758 60.9482 38.1758C60.3447 38.1758 59.8115 38.0762 59.3486 37.877C58.8857 37.6777 58.4932 37.3877 58.1709 37.0068C57.8486 36.626 57.5908 36.1689 57.3975 35.6357C57.21 35.1025 57.0811 34.502 57.0107 33.834V32.8496C57.0811 32.1465 57.2129 31.5166 57.4062 30.96C57.5996 30.4033 57.8545 29.9287 58.1709 29.5361C58.4932 29.1377 58.8828 28.8359 59.3398 28.6309C59.7969 28.4199 60.3242 28.3145 60.9219 28.3145C61.5195 28.3145 62.0498 28.4316 62.5127 28.666C62.9756 28.8945 63.3652 29.2227 63.6816 29.6504C63.998 30.0781 64.2354 30.5908 64.3936 31.1885C64.5576 31.7803 64.6396 32.4395 64.6396 33.166ZM63.0049 33.3506V33.166C63.0049 32.6914 62.9551 32.2461 62.8555 31.8301C62.7559 31.4082 62.6006 31.0391 62.3896 30.7227C62.1846 30.4004 61.9209 30.1484 61.5986 29.9668C61.2764 29.7793 60.8926 29.6855 60.4473 29.6855C60.0371 29.6855 59.6797 29.7559 59.375 29.8965C59.0762 30.0371 58.8213 30.2275 58.6104 30.4678C58.3994 30.7021 58.2266 30.9717 58.0918 31.2764C57.9629 31.5752 57.8662 31.8857 57.8018 32.208V34.4844C57.9189 34.8945 58.083 35.2812 58.2939 35.6445C58.5049 36.002 58.7861 36.292 59.1377 36.5146C59.4893 36.7314 59.9316 36.8398 60.4648 36.8398C60.9043 36.8398 61.2822 36.749 61.5986 36.5674C61.9209 36.3799 62.1846 36.125 62.3896 35.8027C62.6006 35.4805 62.7559 35.1113 62.8555 34.6953C62.9551 34.2734 63.0049 33.8252 63.0049 33.3506ZM81.2686 25.2031V38H79.5635L73.1211 28.1299V38H71.4248V25.2031H73.1211L79.5898 35.0996V25.2031H81.2686ZM83.5977 33.3506V33.1484C83.5977 32.4629 83.6973 31.8271 83.8965 31.2412C84.0957 30.6494 84.3828 30.1367 84.7578 29.7031C85.1328 29.2637 85.5869 28.9238 86.1201 28.6836C86.6533 28.4375 87.251 28.3145 87.9131 28.3145C88.5811 28.3145 89.1816 28.4375 89.7148 28.6836C90.2539 28.9238 90.7109 29.2637 91.0859 29.7031C91.4668 30.1367 91.7568 30.6494 91.9561 31.2412C92.1553 31.8271 92.2549 32.4629 92.2549 33.1484V33.3506C92.2549 34.0361 92.1553 34.6719 91.9561 35.2578C91.7568 35.8438 91.4668 36.3564 91.0859 36.7959C90.7109 37.2295 90.2568 37.5693 89.7236 37.8154C89.1963 38.0557 88.5986 38.1758 87.9307 38.1758C87.2627 38.1758 86.6621 38.0557 86.1289 37.8154C85.5957 37.5693 85.1387 37.2295 84.7578 36.7959C84.3828 36.3564 84.0957 35.8438 83.8965 35.2578C83.6973 34.6719 83.5977 34.0361 83.5977 33.3506ZM85.2236 33.1484V33.3506C85.2236 33.8252 85.2793 34.2734 85.3906 34.6953C85.502 35.1113 85.6689 35.4805 85.8916 35.8027C86.1201 36.125 86.4043 36.3799 86.7441 36.5674C87.084 36.749 87.4795 36.8398 87.9307 36.8398C88.376 36.8398 88.7656 36.749 89.0996 36.5674C89.4395 36.3799 89.7207 36.125 89.9434 35.8027C90.166 35.4805 90.333 35.1113 90.4443 34.6953C90.5615 34.2734 90.6201 33.8252 90.6201 33.3506V33.1484C90.6201 32.6797 90.5615 32.2373 90.4443 31.8213C90.333 31.3994 90.1631 31.0273 89.9346 30.7051C89.7119 30.377 89.4307 30.1191 89.0908 29.9316C88.7568 29.7441 88.3643 29.6504 87.9131 29.6504C87.4678 29.6504 87.0752 29.7441 86.7354 29.9316C86.4014 30.1191 86.1201 30.377 85.8916 30.7051C85.6689 31.0273 85.502 31.3994 85.3906 31.8213C85.2793 32.2373 85.2236 32.6797 85.2236 33.1484ZM96.7021 36.3125L99.1455 28.4902H100.218L100.007 30.0459L97.5195 38H96.4736L96.7021 36.3125ZM95.0586 28.4902L97.1416 36.4004L97.291 38H96.1924L93.4326 28.4902H95.0586ZM102.556 36.3389L104.542 28.4902H106.159L103.399 38H102.31L102.556 36.3389ZM100.455 28.4902L102.846 36.1807L103.118 38H102.081L99.5234 30.0283L99.3125 28.4902H100.455Z" fill="white"/>
<path fill-rule="evenodd" clip-rule="evenodd" d="M119.75 21.75L131 21.75C131.199 21.75 131.39 21.829 131.53 21.9697C131.671 22.1103 131.75 22.3011 131.75 22.5V33.75C131.75 34.1642 131.414 34.5 131 34.5C130.586 34.5 130.25 34.1642 130.25 33.75V24.3107L116.53 38.0303C116.237 38.3232 115.763 38.3232 115.47 38.0303C115.177 37.7374 115.177 37.2626 115.47 36.9697L129.189 23.25L119.75 23.25C119.336 23.25 119 22.9142 119 22.5C119 22.0858 119.336 21.75 119.75 21.75Z" fill="white"/>
<path d="M17.5 0.500145L13 0.500145C6.37258 0.500145 1 5.87272 1 12.5001V16.9989" stroke="#AE9B84"/>
<path d="M142.5 0.5L147 0.5C153.627 0.5 159 5.87258 159 12.5V16.9988" stroke="#AE9B84"/>
<path d="M159 45.999L159 50.499C159 57.1264 153.627 62.499 147 62.499L142.501 62.499" stroke="#AE9B84"/>
<path d="M1.00098 45.999L1.00098 50.499C1.00098 57.1264 6.37356 62.499 13.001 62.499L17.4997 62.499" stroke="#AE9B84"/>
</svg>
