<svg width="113" height="56" viewBox="0 0 113 56" fill="none" xmlns="http://www.w3.org/2000/svg">
<rect x="0.5" y="1" width="112" height="54" rx="11.5" stroke="#333333" stroke-dasharray="5 5"/>
<path d="M26.2656 34.5L24.71 21.7031H26.2568L27.1797 30.5273L27.2324 31.0371L27.3291 30.5098L28.876 21.7031H30.291L31.8467 30.5186L31.9434 31.0371L31.9961 30.5098L32.9189 21.7031H34.457L32.9014 34.5H31.2402L29.6846 25.3945L29.5967 24.8584L29.5 25.4033L27.9355 34.5H26.2656ZM35.9512 29.6572C35.9512 28.9717 36.0508 28.3359 36.25 27.75C36.4492 27.1582 36.7363 26.6455 37.1113 26.2119C37.4805 25.7783 37.9316 25.4385 38.4648 25.1924C38.998 24.9404 39.5986 24.8145 40.2666 24.8145C40.9404 24.8145 41.5439 24.9404 42.0771 25.1924C42.6162 25.4385 43.0732 25.7783 43.4482 26.2119C43.8174 26.6455 44.1016 27.1582 44.3008 27.75C44.5 28.3359 44.5996 28.9717 44.5996 29.6572V29.8506C44.5996 30.5361 44.5 31.1719 44.3008 31.7578C44.1016 32.3438 43.8174 32.8535 43.4482 33.2871C43.0732 33.7207 42.6191 34.0605 42.0859 34.3066C41.5527 34.5527 40.9521 34.6758 40.2842 34.6758C39.6104 34.6758 39.0039 34.5527 38.4648 34.3066C37.9316 34.0605 37.4805 33.7207 37.1113 33.2871C36.7363 32.8535 36.4492 32.3438 36.25 31.7578C36.0508 31.1719 35.9512 30.5361 35.9512 29.8506V29.6572ZM37.5771 29.8506C37.5771 30.3193 37.6328 30.7676 37.7441 31.1953C37.8555 31.6172 38.0254 31.9893 38.2539 32.3115C38.4766 32.6338 38.7578 32.8887 39.0977 33.0762C39.4375 33.2637 39.833 33.3574 40.2842 33.3574C40.7295 33.3574 41.1191 33.2637 41.4531 33.0762C41.793 32.8887 42.0771 32.6338 42.3057 32.3115C42.5283 31.9893 42.6953 31.6172 42.8066 31.1953C42.918 30.7676 42.9736 30.3193 42.9736 29.8506V29.6572C42.9736 29.1943 42.915 28.752 42.7979 28.3301C42.6865 27.9023 42.5195 27.5273 42.2969 27.2051C42.0684 26.8828 41.7842 26.6279 41.4443 26.4404C41.1104 26.2471 40.7178 26.1504 40.2666 26.1504C39.8154 26.1504 39.4229 26.2471 39.0889 26.4404C38.7549 26.6279 38.4766 26.8828 38.2539 27.2051C38.0254 27.5273 37.8555 27.9023 37.7441 28.3301C37.6328 28.752 37.5771 29.1943 37.5771 29.6572V29.8506ZM47.9658 24.9902L48.0098 25.8867C48.2031 25.5527 48.4551 25.292 48.7656 25.1045C49.082 24.917 49.4629 24.8203 49.9082 24.8145C50.1602 24.8145 50.3857 24.8438 50.585 24.9023C50.79 24.9551 50.9688 25.0342 51.1211 25.1396C51.2324 25.2217 51.332 25.3213 51.4199 25.4385C51.5137 25.5557 51.5928 25.6875 51.6572 25.834C51.7393 25.6992 51.8359 25.5732 51.9473 25.4561C52.0586 25.3389 52.1787 25.2363 52.3076 25.1484C52.4717 25.0488 52.6533 24.9697 52.8525 24.9111C53.0576 24.8525 53.2803 24.8203 53.5205 24.8145C53.8486 24.8145 54.1445 24.8643 54.4082 24.9639C54.6719 25.0576 54.8945 25.1982 55.0762 25.3857C55.2754 25.5967 55.4277 25.8721 55.5332 26.2119C55.6387 26.5459 55.6914 26.9414 55.6914 27.3984V34.5H54.1445V27.3809C54.1445 27.1816 54.1211 27.0059 54.0742 26.8535C54.0273 26.7012 53.96 26.5752 53.8721 26.4756C53.7783 26.3818 53.6611 26.3115 53.5205 26.2646C53.3857 26.2178 53.2275 26.1943 53.0459 26.1943C52.8525 26.1943 52.6855 26.2207 52.5449 26.2734C52.4043 26.3262 52.2871 26.3965 52.1934 26.4844C52.0996 26.5781 52.0264 26.6865 51.9736 26.8096C51.9209 26.9268 51.8857 27.0586 51.8682 27.2051C51.8682 27.2344 51.8682 27.2637 51.8682 27.293C51.8682 27.3164 51.8682 27.3457 51.8682 27.3809V34.5H50.3213V27.3721C50.3213 27.1729 50.2979 26.9971 50.251 26.8447C50.21 26.6924 50.1426 26.5664 50.0488 26.4668C49.9609 26.373 49.8496 26.3057 49.7148 26.2646C49.5859 26.2178 49.4336 26.1943 49.2578 26.1943C49.0645 26.1943 48.8945 26.2178 48.748 26.2646C48.6074 26.3057 48.4873 26.3672 48.3877 26.4492C48.3115 26.5137 48.2441 26.5869 48.1855 26.6689C48.1328 26.751 48.0889 26.8389 48.0537 26.9326V34.5H46.5068V24.9902H47.9658ZM62.2305 34.6758C61.5625 34.6758 60.9473 34.5615 60.3848 34.333C59.8281 34.1045 59.3506 33.7852 58.9521 33.375C58.5537 32.9648 58.2432 32.4785 58.0205 31.916C57.7979 31.3535 57.6865 30.7412 57.6865 30.0791V29.71C57.6865 28.9424 57.8096 28.2568 58.0557 27.6533C58.3018 27.0439 58.6299 26.5283 59.04 26.1064C59.4443 25.6904 59.9043 25.3711 60.4199 25.1484C60.9414 24.9258 61.4746 24.8145 62.0195 24.8145C62.7051 24.8145 63.3027 24.9346 63.8125 25.1748C64.3281 25.4092 64.7559 25.7344 65.0957 26.1504C65.4355 26.5723 65.6875 27.0674 65.8516 27.6357C66.0215 28.2041 66.1064 28.8193 66.1064 29.4814V30.2109H59.3125V30.2725C59.3535 30.7354 59.4443 31.1426 59.585 31.4941C59.7314 31.8457 59.9307 32.1562 60.1826 32.4258C60.4404 32.7129 60.751 32.9385 61.1143 33.1025C61.4775 33.2666 61.8789 33.3486 62.3184 33.3486C62.8984 33.3486 63.4141 33.2314 63.8652 32.9971C64.3164 32.7627 64.6914 32.4521 64.9902 32.0654L65.9834 32.8389C65.667 33.3193 65.1924 33.7471 64.5596 34.1221C63.9326 34.4912 63.1562 34.6758 62.2305 34.6758ZM62.0195 26.1504C61.6914 26.1504 61.3809 26.2119 61.0879 26.335C60.7949 26.4521 60.5312 26.625 60.2969 26.8535C60.0625 27.0879 59.8633 27.375 59.6992 27.7148C59.541 28.0488 59.4297 28.4355 59.3652 28.875H64.4805V28.7959C64.4805 28.5029 64.4248 28.1895 64.3135 27.8555C64.2021 27.5156 64.0469 27.2227 63.8477 26.9766C63.6484 26.7305 63.3965 26.5312 63.0918 26.3789C62.793 26.2266 62.4355 26.1504 62.0195 26.1504ZM68.8398 34.5V24.9902H70.2988L70.4131 26.3965C70.5537 26.1973 70.7061 26.0156 70.8701 25.8516C71.04 25.6816 71.2188 25.5352 71.4062 25.4121C71.6875 25.2246 71.9922 25.0811 72.3203 24.9814C72.6543 24.876 73.0059 24.8203 73.375 24.8145C73.873 24.8145 74.3242 24.8848 74.7285 25.0254C75.1387 25.166 75.4873 25.3857 75.7744 25.6846C76.0615 25.9834 76.2812 26.3643 76.4336 26.8271C76.5918 27.2842 76.6709 27.8291 76.6709 28.4619V34.5H75.0449V28.4971C75.0449 28.0752 74.998 27.7178 74.9043 27.4248C74.8105 27.1318 74.6729 26.8945 74.4912 26.7129C74.3037 26.5312 74.0752 26.3994 73.8057 26.3174C73.542 26.2354 73.2373 26.1943 72.8916 26.1943C72.5928 26.1943 72.3145 26.2383 72.0566 26.3262C71.7988 26.4082 71.5615 26.5225 71.3447 26.6689C71.1689 26.7979 71.0049 26.9473 70.8525 27.1172C70.7061 27.2871 70.5771 27.4746 70.4658 27.6797V34.5H68.8398ZM85.9697 31.9775C85.9697 31.7842 85.9316 31.6113 85.8555 31.459C85.7793 31.3008 85.6504 31.1572 85.4688 31.0283C85.2871 30.8994 85.0469 30.7822 84.748 30.6768C84.4492 30.5654 84.0771 30.4658 83.6318 30.3779C83.0869 30.2666 82.5889 30.1318 82.1377 29.9736C81.6924 29.8154 81.3115 29.625 80.9951 29.4023C80.6729 29.1855 80.4238 28.9307 80.248 28.6377C80.0723 28.3389 79.9844 27.9932 79.9844 27.6006C79.9844 27.2139 80.0752 26.8535 80.2568 26.5195C80.4385 26.1797 80.6934 25.8838 81.0215 25.6318C81.3496 25.3799 81.7393 25.1807 82.1904 25.0342C82.6475 24.8877 83.1484 24.8145 83.6934 24.8145C84.2793 24.8145 84.8066 24.8906 85.2754 25.043C85.7441 25.1953 86.1426 25.4062 86.4707 25.6758C86.7988 25.9453 87.0508 26.2617 87.2266 26.625C87.4082 26.9824 87.499 27.3691 87.499 27.7852H85.873C85.873 27.5801 85.8203 27.3809 85.7148 27.1875C85.6094 26.9883 85.4629 26.8125 85.2754 26.6602C85.0879 26.5078 84.8594 26.3848 84.5898 26.291C84.3262 26.1973 84.0273 26.1504 83.6934 26.1504C83.3477 26.1504 83.043 26.1885 82.7793 26.2646C82.5215 26.3408 82.3076 26.4434 82.1377 26.5723C81.9619 26.7012 81.8301 26.8506 81.7422 27.0205C81.6543 27.1904 81.6104 27.3662 81.6104 27.5479C81.6104 27.7354 81.6455 27.9023 81.7158 28.0488C81.7861 28.1953 81.9092 28.3271 82.085 28.4443C82.2549 28.5615 82.4834 28.667 82.7705 28.7607C83.0635 28.8545 83.4326 28.9453 83.8779 29.0332C84.4639 29.1562 84.9883 29.2998 85.4512 29.4639C85.9141 29.6221 86.3037 29.8125 86.6201 30.0352C86.9365 30.2637 87.1768 30.5273 87.3408 30.8262C87.5107 31.125 87.5957 31.4707 87.5957 31.8633C87.5957 32.2852 87.499 32.6689 87.3057 33.0146C87.1182 33.3604 86.8545 33.6562 86.5146 33.9023C86.1748 34.1484 85.7676 34.3389 85.293 34.4736C84.8184 34.6084 84.2998 34.6758 83.7373 34.6758C83.0928 34.6758 82.5186 34.5908 82.0146 34.4209C81.5107 34.2451 81.0859 34.0137 80.7402 33.7266C80.3887 33.4453 80.1191 33.1172 79.9316 32.7422C79.75 32.3672 79.6592 31.9775 79.6592 31.5732H81.2852C81.3086 31.9072 81.3965 32.1885 81.5488 32.417C81.707 32.6455 81.9033 32.8301 82.1377 32.9707C82.3662 33.1113 82.6211 33.2109 82.9023 33.2695C83.1836 33.3281 83.4619 33.3574 83.7373 33.3574C84.1709 33.3574 84.5488 33.3076 84.8711 33.208C85.1934 33.1025 85.4453 32.959 85.627 32.7773C85.7383 32.666 85.8232 32.543 85.8818 32.4082C85.9404 32.2734 85.9697 32.1299 85.9697 31.9775Z" fill="#B3B3B2"/>
</svg>
