<svg width="149" height="161" viewBox="0 0 149 161" fill="none" xmlns="http://www.w3.org/2000/svg">
<path d="M91.3125 37.3228H92.3125V36.1611L91.1637 36.3339L91.3125 37.3228ZM106.688 37.3228L106.836 36.3339L105.688 36.1611V37.3228H106.688ZM44.6412 33.6412L45.3483 34.3483L44.6412 33.6412ZM44.6412 19.1455L45.3483 18.4384L44.6412 19.1455ZM30.1455 33.6412L29.4384 34.3483L30.1455 33.6412ZM30.1455 19.1455L30.8526 19.8526L30.1455 19.1455ZM167.855 142.36L168.562 141.653L167.855 142.36ZM167.855 156.856L168.562 157.563L167.855 156.856ZM153.359 142.36L152.652 141.653L153.359 142.36ZM153.359 156.856L152.652 157.563L153.359 156.856ZM153.359 33.6412L152.652 34.3483L153.359 33.6412ZM167.855 33.6412L168.562 34.3483L167.855 33.6412ZM153.359 19.1455L152.652 18.4384V18.4384L153.359 19.1455ZM167.855 19.1455L168.562 18.4384V18.4384L167.855 19.1455ZM44.6412 156.855L45.3483 157.562L44.6412 156.855ZM30.1455 156.855L29.4384 157.562H29.4384L30.1455 156.855ZM44.6412 142.359L45.3483 141.652L44.6412 142.359ZM30.1455 142.359L29.4384 141.652H29.4384L30.1455 142.359ZM110.25 0.875C110.25 -1.36457 109.595 -3.4541 108.465 -5.2086L106.783 -4.12575C107.711 -2.68443 108.25 -0.969141 108.25 0.875H110.25ZM105.084 -8.58969C103.329 -9.71955 101.24 -10.375 99 -10.375V-8.375C100.844 -8.375 102.559 -7.83637 104.001 -6.90819L105.084 -8.58969ZM99 -10.375C96.7604 -10.375 94.6709 -9.71955 92.9164 -8.58969L93.9993 -6.90819C95.4406 -7.83637 97.1559 -8.375 99 -8.375V-10.375ZM89.5353 -5.2086C88.4054 -3.4541 87.75 -1.36457 87.75 0.875H89.75C89.75 -0.969142 90.2886 -2.68443 91.2168 -4.12575L89.5353 -5.2086ZM87.75 0.875C87.75 3.11457 88.4054 5.2041 89.5353 6.9586L91.2168 5.87575C90.2886 4.43443 89.75 2.71914 89.75 0.875H87.75ZM92.9164 10.3397C94.6709 11.4696 96.7604 12.125 99 12.125V10.125C97.1559 10.125 95.4406 9.58637 93.9992 8.65819L92.9164 10.3397ZM99 12.125C101.24 12.125 103.329 11.4696 105.084 10.3397L104.001 8.65819C102.559 9.58637 100.844 10.125 99 10.125V12.125ZM108.465 6.9586C109.595 5.2041 110.25 3.11457 110.25 0.875H108.25C108.25 2.71914 107.711 4.43443 106.783 5.87575L108.465 6.9586ZM91.1637 36.3339C88.1599 36.7857 85.2395 37.4933 82.4256 38.4339L83.0596 40.3307C85.7648 39.4265 88.5727 38.7461 91.4613 38.3116L91.1637 36.3339ZM76.1827 40.9825C70.7478 43.6248 65.8404 47.1812 61.6601 51.4515L63.0893 52.8506C67.1108 48.7425 71.8311 45.322 77.0571 42.7812L76.1827 40.9825ZM57.2629 56.5615C53.6836 61.306 50.8941 66.6809 49.0906 72.4905L51.0007 73.0835C52.7345 67.4982 55.4166 62.3296 58.8595 57.766L57.2629 56.5615ZM47.5143 79.0467C47.0118 81.9565 46.75 84.9481 46.75 88H48.75C48.75 85.0627 49.0019 82.1849 49.4851 79.3871L47.5143 79.0467ZM46.75 88C46.75 90.5247 46.9291 93.0082 47.2755 95.4382L49.2555 95.156C48.9224 92.8191 48.75 90.43 48.75 88H46.75ZM48.3612 100.925C49.6063 105.818 51.5419 110.435 54.0576 114.666L55.7767 113.644C53.3573 109.575 51.4965 105.136 50.2994 100.432L48.3612 100.925ZM57.1693 119.314C60.1571 123.299 63.701 126.843 67.686 129.831L68.8857 128.231C65.0525 125.357 61.6434 121.948 58.7694 118.114L57.1693 119.314ZM72.334 132.942C76.565 135.458 81.182 137.394 86.075 138.639L86.5683 136.701C81.8642 135.504 77.425 133.643 73.3561 131.223L72.334 132.942ZM91.5618 139.724C93.9919 140.071 96.4753 140.25 99 140.25V138.25C96.57 138.25 94.1809 138.078 91.8441 137.745L91.5618 139.724ZM99 140.25C101.525 140.25 104.008 140.071 106.438 139.724L106.156 137.745C103.819 138.078 101.43 138.25 99 138.25V140.25ZM111.925 138.639C116.818 137.394 121.435 135.458 125.666 132.942L124.644 131.223C120.575 133.643 116.136 135.504 111.432 136.701L111.925 138.639ZM130.314 129.831C134.299 126.843 137.843 123.299 140.831 119.314L139.231 118.114C136.357 121.947 132.947 125.357 129.114 128.231L130.314 129.831ZM143.942 114.666C146.458 110.435 148.394 105.818 149.639 100.925L147.701 100.432C146.504 105.136 144.643 109.575 142.223 113.644L143.942 114.666ZM150.724 95.4382C151.071 93.0082 151.25 90.5247 151.25 88H149.25C149.25 90.43 149.078 92.8191 148.744 95.156L150.724 95.4382ZM151.25 88C151.25 84.9481 150.988 81.9565 150.486 79.0467L148.515 79.3871C148.998 82.1849 149.25 85.0627 149.25 88H151.25ZM148.909 72.4905C147.106 66.6809 144.316 61.306 140.737 56.5615L139.141 57.766C142.583 62.3296 145.266 67.4982 146.999 73.0835L148.909 72.4905ZM136.34 51.4515C132.16 47.1812 127.252 43.6248 121.817 40.9825L120.943 42.7812C126.169 45.322 130.889 48.7425 134.911 52.8506L136.34 51.4515ZM115.574 38.4339C112.761 37.4933 109.84 36.7857 106.836 36.3339L106.539 38.3116C109.427 38.7461 112.235 39.4265 114.94 40.3307L115.574 38.4339ZM105.688 37.3228V44.6732H107.688V37.3228H105.688ZM105.688 50.186V64.8868H107.688V50.186H105.688ZM105.688 70.3996V77.75H107.688V70.3996H105.688ZM105.688 77.75C105.688 79.0837 105.298 80.3234 104.627 81.3652L106.309 82.4481C107.181 81.0931 107.688 79.4791 107.688 77.75H105.688ZM102.615 83.3772C101.573 84.0482 100.334 84.4375 99 84.4375V86.4375C100.729 86.4375 102.343 85.9313 103.698 85.0587L102.615 83.3772ZM99 84.4375C97.6663 84.4375 96.4266 84.0482 95.3848 83.3772L94.3019 85.0587C95.657 85.9313 97.2709 86.4375 99 86.4375V84.4375ZM93.3728 81.3652C92.7019 80.3234 92.3125 79.0837 92.3125 77.75H90.3125C90.3125 79.4791 90.8187 81.0931 91.6913 82.4481L93.3728 81.3652ZM92.3125 77.75V70.3996H90.3125V77.75H92.3125ZM92.3125 64.8868V50.186H90.3125V64.8868H92.3125ZM92.3125 44.6732V37.3228H90.3125V44.6732H92.3125ZM176.875 88C176.875 86.1559 177.414 84.4406 178.342 82.9993L176.66 81.9164C175.53 83.6709 174.875 85.7604 174.875 88H176.875ZM181.124 80.2168C182.566 79.2886 184.281 78.75 186.125 78.75V76.75C183.885 76.75 181.796 77.4054 180.041 78.5353L181.124 80.2168ZM186.125 78.75C187.969 78.75 189.684 79.2886 191.126 80.2168L192.209 78.5353C190.454 77.4054 188.365 76.75 186.125 76.75V78.75ZM193.908 82.9992C194.836 84.4406 195.375 86.1559 195.375 88H197.375C197.375 85.7604 196.72 83.6709 195.59 81.9164L193.908 82.9992ZM195.375 88C195.375 89.8441 194.836 91.5594 193.908 93.0007L195.59 94.0836C196.72 92.3291 197.375 90.2396 197.375 88H195.375ZM191.126 95.7832C189.684 96.7114 187.969 97.25 186.125 97.25V99.25C188.365 99.25 190.454 98.5946 192.209 97.4647L191.126 95.7832ZM186.125 97.25C184.281 97.25 182.566 96.7114 181.124 95.7832L180.041 97.4647C181.796 98.5946 183.885 99.25 186.125 99.25V97.25ZM178.342 93.0008C177.414 91.5594 176.875 89.8441 176.875 88H174.875C174.875 90.2396 175.53 92.3291 176.66 94.0836L178.342 93.0008ZM11.875 97.25C10.0309 97.25 8.31557 96.7114 6.87425 95.7832L5.7914 97.4647C7.5459 98.5946 9.63543 99.25 11.875 99.25V97.25ZM4.09181 93.0008C3.16363 91.5594 2.625 89.8441 2.625 88H0.625C0.625 90.2396 1.28045 92.3291 2.41031 94.0836L4.09181 93.0008ZM2.625 88C2.625 86.1559 3.16363 84.4406 4.09181 82.9993L2.41031 81.9164C1.28045 83.6709 0.625 85.7604 0.625 88H2.625ZM6.87425 80.2168C8.31557 79.2886 10.0309 78.75 11.875 78.75V76.75C9.63543 76.75 7.5459 77.4054 5.7914 78.5353L6.87425 80.2168ZM11.875 78.75C13.7191 78.75 15.4344 79.2886 16.8758 80.2168L17.9586 78.5353C16.2041 77.4054 14.1146 76.75 11.875 76.75V78.75ZM19.6582 82.9992C20.5864 84.4406 21.125 86.1559 21.125 88H23.125C23.125 85.7604 22.4696 83.6709 21.3397 81.9164L19.6582 82.9992ZM21.125 88C21.125 89.8441 20.5864 91.5594 19.6582 93.0007L21.3397 94.0836C22.4696 92.3291 23.125 90.2396 23.125 88H21.125ZM16.8758 95.7832C15.4344 96.7114 13.7191 97.25 11.875 97.25V99.25C14.1146 99.25 16.2041 98.5946 17.9586 97.4647L16.8758 95.7832ZM43.934 32.934C42.63 34.2381 41.0363 35.0701 39.3608 35.4329L39.7841 37.3876C41.8237 36.9459 43.7646 35.9319 45.3483 34.3483L43.934 32.934ZM35.4258 35.4329C33.7503 35.0701 32.1566 34.2381 30.8526 32.934L29.4384 34.3483C31.022 35.9319 32.963 36.9459 35.0025 37.3876L35.4258 35.4329ZM30.8526 32.934C29.5486 31.63 28.7165 30.0363 28.3537 28.3608L26.399 28.7841C26.8407 30.8237 27.8547 32.7646 29.4384 34.3483L30.8526 32.934ZM28.3537 24.4258C28.7165 22.7503 29.5486 21.1566 30.8526 19.8526L29.4384 18.4384C27.8547 20.022 26.8407 21.963 26.399 24.0025L28.3537 24.4258ZM30.8526 19.8526C32.1566 18.5486 33.7503 17.7165 35.4258 17.3537L35.0025 15.399C32.963 15.8407 31.022 16.8547 29.4384 18.4384L30.8526 19.8526ZM39.3608 17.3537C41.0363 17.7165 42.63 18.5486 43.934 19.8526L45.3483 18.4384C43.7646 16.8547 41.8237 15.8407 39.7841 15.399L39.3608 17.3537ZM43.934 19.8526C45.2381 21.1566 46.0701 22.7503 46.4329 24.4258L48.3876 24.0025C47.9459 21.963 46.9319 20.022 45.3483 18.4384L43.934 19.8526ZM46.4329 28.3608C46.0701 30.0363 45.2381 31.63 43.934 32.934L45.3483 34.3483C46.9319 32.7646 47.9459 30.8237 48.3876 28.7841L46.4329 28.3608ZM168.562 141.653C166.978 140.069 165.037 139.055 162.997 138.613L162.574 140.568C164.25 140.931 165.843 141.763 167.147 143.067L168.562 141.653ZM158.216 138.613C156.176 139.055 154.235 140.069 152.652 141.653L154.066 143.067C155.37 141.763 156.964 140.931 158.639 140.568L158.216 138.613ZM152.652 141.653C151.068 143.236 150.054 145.177 149.612 147.217L151.567 147.64C151.93 145.965 152.762 144.371 154.066 143.067L152.652 141.653ZM149.612 151.998C150.054 154.038 151.068 155.979 152.652 157.563L154.066 156.148C152.762 154.844 151.93 153.251 151.567 151.575L149.612 151.998ZM152.652 157.563C154.235 159.146 156.176 160.16 158.216 160.602L158.639 158.647C156.964 158.284 155.37 157.452 154.066 156.148L152.652 157.563ZM162.997 160.602C165.037 160.16 166.978 159.146 168.562 157.563L167.147 156.148C165.843 157.452 164.25 158.284 162.574 158.647L162.997 160.602ZM168.562 157.563C170.145 155.979 171.159 154.038 171.601 151.998L169.646 151.575C169.283 153.251 168.451 154.844 167.147 156.148L168.562 157.563ZM171.601 147.217C171.159 145.177 170.145 143.236 168.562 141.653L167.147 143.067C168.451 144.371 169.283 145.965 169.646 147.64L171.601 147.217ZM154.066 32.934C152.762 31.63 151.93 30.0363 151.567 28.3608L149.612 28.7841C150.054 30.8237 151.068 32.7646 152.652 34.3483L154.066 32.934ZM151.567 24.4258C151.93 22.7503 152.762 21.1566 154.066 19.8526L152.652 18.4384C151.068 20.022 150.054 21.963 149.612 24.0025L151.567 24.4258ZM154.066 19.8526C155.37 18.5486 156.964 17.7165 158.639 17.3537L158.216 15.399C156.176 15.8407 154.235 16.8547 152.652 18.4384L154.066 19.8526ZM162.574 17.3537C164.25 17.7165 165.843 18.5486 167.147 19.8526L168.562 18.4384C166.978 16.8547 165.037 15.8407 162.997 15.399L162.574 17.3537ZM167.147 19.8526C168.451 21.1566 169.283 22.7503 169.646 24.4258L171.601 24.0025C171.159 21.963 170.145 20.022 168.562 18.4384L167.147 19.8526ZM169.646 28.3608C169.283 30.0363 168.451 31.63 167.147 32.934L168.562 34.3483C170.145 32.7646 171.159 30.8237 171.601 28.7841L169.646 28.3608ZM167.147 32.934C165.843 34.2381 164.25 35.0701 162.574 35.4329L162.997 37.3876C165.037 36.9459 166.978 35.9319 168.562 34.3483L167.147 32.934ZM158.639 35.4329C156.964 35.0701 155.37 34.2381 154.066 32.934L152.652 34.3483C154.235 35.9319 156.176 36.9459 158.216 37.3876L158.639 35.4329ZM43.934 156.147C42.63 157.451 41.0363 158.283 39.3608 158.646L39.7841 160.601C41.8237 160.159 43.7646 159.145 45.3483 157.562L43.934 156.147ZM35.4258 158.646C33.7503 158.283 32.1566 157.451 30.8526 156.147L29.4384 157.562C31.022 159.145 32.963 160.159 35.0025 160.601L35.4258 158.646ZM30.8526 156.147C29.5486 154.843 28.7165 153.25 28.3537 151.574L26.399 151.997C26.8407 154.037 27.8547 155.978 29.4384 157.562L30.8526 156.147ZM28.3537 147.639C28.7165 145.964 29.5486 144.37 30.8526 143.066L29.4384 141.652C27.8547 143.235 26.8407 145.176 26.399 147.216L28.3537 147.639ZM30.8526 143.066C32.1566 141.762 33.7503 140.93 35.4258 140.567L35.0025 138.612C32.963 139.054 31.022 140.068 29.4384 141.652L30.8526 143.066ZM39.3608 140.567C41.0363 140.93 42.63 141.762 43.934 143.066L45.3483 141.652C43.7646 140.068 41.8237 139.054 39.7841 138.612L39.3608 140.567ZM43.934 143.066C45.2381 144.37 46.0701 145.964 46.4329 147.639L48.3876 147.216C47.9459 145.176 46.9319 143.235 45.3483 141.652L43.934 143.066ZM46.4329 151.574C46.0701 153.25 45.2381 154.843 43.934 156.147L45.3483 157.562C46.9319 155.978 47.9459 154.037 48.3876 151.997L46.4329 151.574Z" fill="#262626"/>
</svg>
