<svg width="154" height="172" viewBox="0 0 154 172" fill="none" xmlns="http://www.w3.org/2000/svg">
<path d="M32.5933 55.5305L33.5218 55.1592L33.0955 54.0933L32.0981 54.6617L32.5933 55.5305ZM124.016 101.243L125.008 101.119L124.864 99.9796L123.756 100.278L124.016 101.243ZM138.713 95.61L138.26 94.7181L137.6 95.0532L137.728 95.783L138.713 95.61ZM175.407 55.5306L175.902 54.6618L174.904 54.0934L174.478 55.1593L175.407 55.5306ZM116.963 163.752L116.261 163.04L115.276 164.01L116.506 164.642L116.963 163.752ZM104 87.5C101.075 87.5 98.1982 87.2924 95.3846 86.8914L95.1024 88.8714C98.0091 89.2857 100.98 89.5 104 89.5V87.5ZM89.0326 85.6346C83.3689 84.1932 78.024 81.9527 73.1251 79.0399L72.103 80.7589C77.164 83.7682 82.6867 86.0834 88.5393 87.5728L89.0326 85.6346ZM67.7429 75.4367C63.1279 71.9765 59.0235 67.8721 55.5633 63.2571L53.9631 64.4569C57.5371 69.2237 61.7763 73.4629 66.5431 77.0369L67.7429 75.4367ZM51.9601 57.8749C49.0473 52.976 46.8068 47.6311 45.3654 41.9674L43.4272 42.4607C44.9166 48.3133 47.2318 53.836 50.2411 58.897L51.9601 57.8749ZM44.1086 35.6154C43.7076 32.8018 43.5 29.9254 43.5 27H41.5C41.5 30.0202 41.7143 32.9909 42.1286 35.8976L44.1086 35.6154ZM43.5 27C43.5 24.0746 43.7076 21.1982 44.1086 18.3846L42.1286 18.1024C41.7143 21.0091 41.5 23.9798 41.5 27H43.5ZM45.3654 12.0326C46.8068 6.36886 49.0473 1.02404 51.9601 -3.87488L50.2411 -4.89703C47.2318 0.164028 44.9166 5.68665 43.4272 11.5393L45.3654 12.0326ZM55.5633 -9.25711C59.0235 -13.8721 63.1279 -17.9765 67.7429 -21.4367L66.5431 -23.0369C61.7763 -19.4629 57.5371 -15.2237 53.9631 -10.4569L55.5633 -9.25711ZM73.1251 -25.0399C78.024 -27.9527 83.3689 -30.1932 89.0326 -31.6346L88.5393 -33.5728C82.6866 -32.0834 77.164 -29.7682 72.103 -26.7589L73.1251 -25.0399ZM95.3846 -32.8914C98.1982 -33.2924 101.075 -33.5 104 -33.5V-35.5C100.98 -35.5 98.0091 -35.2857 95.1024 -34.8714L95.3846 -32.8914ZM104 -33.5C106.925 -33.5 109.802 -33.2924 112.615 -32.8914L112.898 -34.8714C109.991 -35.2857 107.02 -35.5 104 -35.5V-33.5ZM118.967 -31.6346C124.631 -30.1932 129.976 -27.9527 134.875 -25.0399L135.897 -26.7589C130.836 -29.7682 125.313 -32.0834 119.461 -33.5728L118.967 -31.6346ZM140.257 -21.4367C144.872 -17.9765 148.977 -13.8721 152.437 -9.25711L154.037 -10.4569C150.463 -15.2237 146.224 -19.4629 141.457 -23.0369L140.257 -21.4367ZM156.04 -3.87489C158.953 1.02404 161.193 6.36886 162.635 12.0326L164.573 11.5393C163.083 5.68665 160.768 0.164028 157.759 -4.89704L156.04 -3.87489ZM163.891 18.3846C164.292 21.1982 164.5 24.0746 164.5 27H166.5C166.5 23.9798 166.286 21.0091 165.871 18.1024L163.891 18.3846ZM164.5 27C164.5 29.9255 164.292 32.8018 163.891 35.6154L165.871 35.8976C166.286 32.9909 166.5 30.0202 166.5 27H164.5ZM162.635 41.9674C161.193 47.6311 158.953 52.976 156.04 57.8749L157.759 58.897C160.768 53.836 163.083 48.3133 164.573 42.4607L162.635 41.9674ZM152.437 63.2571C148.977 67.8721 144.872 71.9765 140.257 75.4367L141.457 77.0369C146.224 73.4629 150.463 69.2237 154.037 64.4569L152.437 63.2571ZM134.875 79.0399C129.976 81.9527 124.631 84.1932 118.967 85.6346L119.461 87.5728C125.313 86.0834 130.836 83.7682 135.897 80.7589L134.875 79.0399ZM112.615 86.8914C109.802 87.2924 106.925 87.5 104 87.5V89.5C107.02 89.5 109.991 89.2857 112.898 88.8714L112.615 86.8914ZM2.5 109C2.5 106.387 2.66554 103.814 2.98659 101.29L1.00257 101.037C0.6709 103.645 0.5 106.303 0.5 109H2.5ZM3.99248 95.5841C5.14648 90.4865 6.94418 85.6332 9.29579 81.1138L7.5216 80.1906C5.09193 84.86 3.23431 89.875 2.04184 95.1425L3.99248 95.5841ZM12.2135 76.1084C15.0269 71.7733 18.3805 67.8209 22.1789 64.3465L20.8291 62.8707C16.906 66.4591 13.4421 70.5415 10.5359 75.0196L12.2135 76.1084ZM26.6359 60.6437C28.6892 59.0972 30.8439 57.6785 33.0884 56.3993L32.0981 54.6617C29.7793 55.9832 27.5535 57.4487 25.4327 59.0462L26.6359 60.6437ZM31.6648 55.9018C32.7129 58.5228 33.8993 61.0734 35.215 63.5447L36.9804 62.6048C35.6986 60.1972 34.5428 57.7124 33.5218 55.1592L31.6648 55.9018ZM38.4099 68.9991C41.454 73.7434 44.9986 78.1355 48.9692 82.1011L50.3825 80.686C46.5132 76.8216 43.0592 72.5417 40.0932 67.9191L38.4099 68.9991ZM53.6179 86.3835C57.8878 90.0097 62.5541 93.1838 67.5429 95.8316L68.4805 94.065C63.6202 91.4854 59.0734 88.3927 54.9125 84.8591L53.6179 86.3835ZM73.2423 98.565C78.3471 100.762 83.7339 102.429 89.3332 103.496L89.7076 101.531C84.2531 100.492 79.0057 98.8679 74.0329 96.7278L73.2423 98.565ZM95.5847 104.426C98.3494 104.723 101.157 104.875 104 104.875V102.875C101.229 102.875 98.4922 102.726 95.7984 102.437L95.5847 104.426ZM104 104.875C106.511 104.875 108.995 104.756 111.446 104.524L111.257 102.533C108.869 102.759 106.448 102.875 104 102.875V104.875ZM116.991 103.796C119.46 103.381 121.89 102.851 124.275 102.209L123.756 100.278C121.433 100.903 119.065 101.42 116.659 101.824L116.991 103.796ZM123.023 101.368C123.139 102.284 123.233 103.207 123.307 104.136L125.301 103.977C125.225 103.018 125.127 102.065 125.008 101.119L123.023 101.368ZM123.437 106.218C123.479 107.14 123.5 108.068 123.5 109H125.5C125.5 108.037 125.478 107.08 125.435 106.128L123.437 106.218ZM123.5 109C123.5 111.925 123.292 114.802 122.891 117.615L124.871 117.898C125.286 114.991 125.5 112.02 125.5 109H123.5ZM121.635 123.967C120.193 129.631 117.953 134.976 115.04 139.875L116.759 140.897C119.768 135.836 122.083 130.313 123.573 124.461L121.635 123.967ZM111.437 145.257C107.977 149.872 103.872 153.977 99.2571 157.437L100.457 159.037C105.224 155.463 109.463 151.224 113.037 146.457L111.437 145.257ZM93.8749 161.04C88.976 163.953 83.6311 166.193 77.9674 167.635L78.4607 169.573C84.3133 168.083 89.836 165.768 94.897 162.759L93.8749 161.04ZM71.6154 168.891C68.8018 169.292 65.9254 169.5 63 169.5V171.5C66.0202 171.5 68.9909 171.286 71.8976 170.871L71.6154 168.891ZM63 169.5C60.0746 169.5 57.1982 169.292 54.3846 168.891L54.1024 170.871C57.0091 171.286 59.9798 171.5 63 171.5V169.5ZM48.0326 167.635C42.3689 166.193 37.024 163.953 32.1251 161.04L31.103 162.759C36.164 165.768 41.6867 168.083 47.5393 169.573L48.0326 167.635ZM26.7429 157.437C22.1279 153.977 18.0235 149.872 14.5633 145.257L12.9631 146.457C16.5371 151.224 20.7763 155.463 25.5431 159.037L26.7429 157.437ZM10.9601 139.875C8.04727 134.976 5.80675 129.631 4.36544 123.967L2.42721 124.461C3.91662 130.313 6.23179 135.836 9.24106 140.897L10.9601 139.875ZM3.10863 117.615C2.70756 114.802 2.5 111.925 2.5 109H0.5C0.5 112.02 0.714293 114.991 1.12864 117.898L3.10863 117.615ZM137.728 95.783C138.005 97.3602 138.233 98.9542 138.411 100.563L140.399 100.344C140.216 98.692 139.982 97.0559 139.698 95.4371L137.728 95.783ZM138.724 104.172C138.824 105.768 138.875 107.378 138.875 109H140.875C140.875 107.336 140.823 105.685 140.72 104.047L138.724 104.172ZM138.875 109C138.875 111.457 138.758 113.886 138.53 116.282L140.521 116.472C140.755 114.013 140.875 111.52 140.875 109H138.875ZM137.816 121.703C136.998 126.56 135.717 131.26 134.022 135.757L135.894 136.462C137.634 131.846 138.948 127.021 139.788 122.035L137.816 121.703ZM131.91 140.799C129.859 145.236 127.392 149.442 124.559 153.366L126.18 154.537C129.088 150.509 131.62 146.193 133.726 141.638L131.91 140.799ZM121.202 157.681C119.64 159.546 117.991 161.334 116.261 163.04L117.665 164.464C119.441 162.714 121.133 160.878 122.735 158.965L121.202 157.681ZM116.506 164.642C119.675 166.267 123.001 167.631 126.455 168.702L127.047 166.792C123.705 165.755 120.486 164.436 117.419 162.862L116.506 164.642ZM134.295 170.587C137.774 171.187 141.351 171.5 145 171.5V169.5C141.465 169.5 138.002 169.197 134.635 168.616L134.295 170.587ZM145 171.5C148.02 171.5 150.991 171.286 153.897 170.871L153.615 168.891C150.802 169.292 147.925 169.5 145 169.5V171.5ZM160.46 169.573C166.313 168.083 171.836 165.768 176.897 162.759L175.875 161.04C170.976 163.953 165.631 166.193 159.967 167.635L160.46 169.573ZM182.457 159.037C187.223 155.463 191.463 151.224 195.037 146.457L193.436 145.257C189.976 149.872 185.872 153.976 181.257 157.437L182.457 159.037ZM198.759 140.897C201.768 135.836 204.083 130.313 205.573 124.461L203.634 123.967C202.193 129.631 199.952 134.976 197.04 139.875L198.759 140.897ZM206.871 117.898C207.285 114.991 207.5 112.02 207.5 109H205.5C205.5 111.925 205.292 114.802 204.891 117.615L206.871 117.898ZM207.5 109C207.5 106.303 207.329 103.645 206.997 101.037L205.013 101.29C205.334 103.814 205.5 106.387 205.5 109H207.5ZM205.958 95.1425C204.765 89.8751 202.908 84.8601 200.478 80.1907L198.704 81.1138C201.056 85.6332 202.853 90.4866 204.007 95.5841L205.958 95.1425ZM197.464 75.0197C194.558 70.5416 191.094 66.4593 187.171 62.8709L185.821 64.3466C189.619 67.821 192.973 71.7734 195.786 76.1084L197.464 75.0197ZM182.567 59.0463C180.446 57.4489 178.221 55.9833 175.902 54.6618L174.912 56.3995C177.156 57.6786 179.311 59.0973 181.364 60.6438L182.567 59.0463ZM174.478 55.1593C173.653 57.2228 172.74 59.2416 171.743 61.2111L173.528 62.1141C174.551 60.0925 175.488 58.0202 176.335 55.902L174.478 55.1593ZM169.349 65.5796C167.086 69.404 164.497 73.0127 161.62 76.3674L163.138 77.6694C166.091 74.2268 168.748 70.5232 171.07 66.598L169.349 65.5796ZM158.255 80.0414C155.161 83.2061 151.792 86.101 148.187 88.6878L149.353 90.3127C153.053 87.658 156.51 84.6871 159.685 81.4397L158.255 80.0414ZM144.047 91.4582C142.171 92.626 140.241 93.7142 138.26 94.7181L139.165 96.502C141.197 95.4716 143.179 94.3546 145.104 93.156L144.047 91.4582Z" fill="#262626"/>
</svg>
