<svg width="144" height="172" viewBox="0 0 144 172" fill="none" xmlns="http://www.w3.org/2000/svg">
<path d="M63.4979 82.5143C63.6963 82.6743 64.18 83.0582 64.5465 83.3186C65.5789 84.0521 67.2911 85.1319 69.7388 86.2467C74.6078 88.4644 82.5244 90.8837 94 90.8837C105.476 90.8837 113.392 88.4644 118.261 86.2467C120.709 85.1319 122.421 84.0522 123.453 83.3186C123.97 82.9515 124.318 82.6705 124.502 82.5143C124.581 82.4478 124.63 82.4039 124.65 82.3859L124.658 82.3788C127.736 79.429 132.54 79.5783 135.442 82.7351C138.37 85.9207 138.251 90.9627 135.177 93.9967L135.164 94.0096L135.149 94.0236L135.118 94.0544L135.042 94.1274L134.838 94.3168C134.68 94.4617 134.476 94.6431 134.225 94.8554C133.723 95.2801 133.033 95.8288 132.148 96.4574C130.378 97.7152 127.83 99.2906 124.448 100.831C117.658 103.924 107.637 106.815 94 106.815C80.3631 106.815 70.3422 103.924 63.5519 100.831C60.1699 99.2906 57.6219 97.7152 55.8515 96.4574C54.9668 95.8288 54.2772 95.2801 53.7751 94.8554C53.5378 94.6547 53.0192 94.1827 52.8991 94.0702L52.8824 94.0544C49.8079 91.0205 49.6301 85.9207 52.5582 82.7351C55.4621 79.5758 60.4197 79.5572 63.4979 82.5143ZM63.4979 82.5143C63.4172 82.4493 63.5512 82.5595 63.4979 82.5143ZM63.4979 82.5143C63.4192 82.4478 63.5178 82.5324 63.4979 82.5143ZM186.25 66.9872V10.8984C186.25 -12.3599 186.25 -23.9891 179.001 -30.3523C171.751 -36.7154 160.671 -34.8019 138.51 -30.9748L127.702 -29.1083C110.889 -26.2049 102.483 -24.7532 94 -24.7532C85.5168 -24.7532 77.1106 -26.2049 60.2982 -29.1083L49.4904 -30.9748C27.3292 -34.8019 16.2486 -36.7154 8.99931 -30.3523C1.75 -23.9891 1.75 -12.3599 1.75 10.8984V66.9872C1.75 125.298 45.1994 153.595 72.4602 165.611C79.8551 168.87 83.5526 170.5 94 170.5C104.447 170.5 108.145 168.87 115.54 165.611C142.801 153.595 186.25 125.298 186.25 66.9872ZM58.125 32.4701C50.507 32.4701 45.7673 36.0616 44.5017 38.6859C42.6039 42.6211 37.9866 44.2171 34.1887 42.2507C30.3908 40.2843 28.8504 35.5 30.7483 31.5647C35.4507 21.8139 46.8142 16.5392 58.125 16.5392C69.4358 16.5392 80.7993 21.8139 85.5017 31.5647C87.3996 35.5 85.8592 40.2843 82.0613 42.2507C78.2634 44.2171 73.6461 42.6211 71.7483 38.6859C70.4827 36.0616 65.743 32.4701 58.125 32.4701ZM116.252 38.6859C117.517 36.0616 122.257 32.4701 129.875 32.4701C137.493 32.4701 142.233 36.0616 143.498 38.6859C145.396 42.6211 150.013 44.2171 153.811 42.2507C157.609 40.2843 159.15 35.5 157.252 31.5647C152.549 21.8139 141.186 16.5392 129.875 16.5392C118.564 16.5392 107.201 21.8139 102.498 31.5647C100.6 35.5 102.141 40.2843 105.939 42.2507C109.737 44.2171 114.354 42.6211 116.252 38.6859Z" stroke="#262626" stroke-width="2" stroke-dasharray="16 6"/>
</svg>
