<svg width="34" height="34" viewBox="0 0 34 34" fill="none" xmlns="http://www.w3.org/2000/svg">
<path d="M32.3287 7.31323C31.328 7.74387 30.276 8.04374 29.1987 8.20544C29.7024 8.11909 30.4435 7.21249 30.7385 6.84554C31.1867 6.29202 31.5282 5.66013 31.7458 4.98197C31.7458 4.93161 31.7962 4.85965 31.7458 4.82368C31.7205 4.80982 31.692 4.80256 31.6631 4.80256C31.6342 4.80256 31.6057 4.80982 31.5804 4.82368C30.4105 5.45716 29.1656 5.94065 27.8748 6.26272C27.8298 6.27647 27.7819 6.2777 27.7363 6.26629C27.6907 6.25488 27.649 6.23126 27.6158 6.19797C27.5153 6.07833 27.4072 5.96537 27.292 5.85979C26.7655 5.38811 26.1682 5.00205 25.522 4.71575C24.6496 4.35784 23.7073 4.20284 22.7662 4.26245C21.8531 4.32012 20.9616 4.56504 20.1471 4.98197C19.3451 5.42155 18.6403 6.01872 18.0749 6.73761C17.4802 7.47753 17.0509 8.33623 16.8157 9.25594C16.6219 10.1308 16.5999 11.035 16.751 11.9182C16.751 12.0693 16.751 12.0909 16.6215 12.0693C11.4913 11.3138 7.28206 9.49338 3.84274 5.58637C3.69164 5.41369 3.61249 5.41369 3.49017 5.58637C1.99357 7.86006 2.72028 11.4577 4.59104 13.2349C4.84288 13.4723 5.10191 13.7026 5.37532 13.9184C4.51759 13.8576 3.68081 13.6251 2.91456 13.2349C2.77065 13.1414 2.6915 13.1917 2.68431 13.3644C2.66391 13.6038 2.66391 13.8445 2.68431 14.0839C2.83444 15.2313 3.2866 16.3182 3.99456 17.2335C4.70252 18.1487 5.64086 18.8596 6.71364 19.2933C6.97515 19.4053 7.24765 19.4897 7.5267 19.5451C6.73265 19.7014 5.91826 19.7258 5.1163 19.6171C4.94361 19.5811 4.87885 19.6746 4.94361 19.8401C6.00131 22.7182 8.29659 23.596 9.98027 24.0853C10.2105 24.1213 10.4408 24.1213 10.6998 24.1789C10.6998 24.1789 10.6998 24.1788 10.6566 24.222C10.1602 25.1286 8.15268 25.7402 7.23169 26.0568C5.55065 26.6606 3.75835 26.8914 1.97918 26.7332C1.69856 26.69 1.6338 26.6972 1.56185 26.7332C1.4899 26.7691 1.56185 26.8483 1.641 26.9202C2.00076 27.1577 2.36052 27.3663 2.73467 27.5678C3.84853 28.1753 5.0261 28.6579 6.24595 29.0069C12.5634 30.7481 19.6722 29.4673 24.4139 24.7545C28.141 21.0561 29.4506 15.9547 29.4506 10.8461C29.4506 10.6518 29.688 10.5367 29.8247 10.436C30.7677 9.70125 31.599 8.83357 32.2927 7.86006C32.4128 7.71495 32.4744 7.53018 32.4654 7.34201C32.4654 7.23408 32.4654 7.25567 32.3287 7.31323Z" fill="#C2B4A3"/>
</svg>
